<svg id="ART" mobilanim="none" width="196px" height="146px" viewBox="0 0 196 146" version="1.1" xmlns="http://www.w3.org/2000/svg" xmlns:xlink="http://www.w3.org/1999/xlink">
    <title>INFOGRAPHIE_2.2</title>
    <g id="Welcome" stroke="none" stroke-width="1" fill="none" fill-rule="evenodd">
        <g id="INFOGRAPHIE_2.2" fill-rule="nonzero">
            <g id="Group" transform="translate(50.000000, 0.000000)">
                <path d="M72.4505796,25.6 C71.8436249,25.6 71.3378293,25.6 70.7308746,25.6 C68.7076923,25.7013728 66.7856691,25.9041183 64.8636459,26.1068638 C41.9005269,29.756283 24.4,49.6253432 24.4,73.5493136 C24.4,95.2430834 38.6634352,113.49018 58.3894626,119.572545 C62.3346681,120.789018 66.4821918,121.498627 70.7308746,121.6 C71.2366702,121.6 71.8436249,121.6 72.4505796,121.6 C74.9795574,121.6 77.5085353,121.397254 79.9363541,120.991763 C102.899473,117.342344 120.4,97.4732841 120.4,73.5493136 C120.4,47.192397 98.9542677,25.6 72.4505796,25.6 Z" id="Path" fill="#8F4FEB"></path>
                <path d="M73,25.6 L73,0.8 C72.2,0.8 71.2,0.8 70.5,0.8 L71.4,25.7 C71.9,25.6 72.5,25.6 73,25.6 Z" id="Path" fill="#C4F7C9"></path>
                <path d="M71.4,25.7 L70.5,0.8 C67.3,0.9 64.8,1.2 61.7,1.6 L65.6,26.2 C67.5,25.9 69.4,25.7 71.4,25.7 Z" id="Path" fill="#A2EFAC"></path>
                <path d="M25.6,73.1 C25.6,49.4 42.9,29.8 65.6,26.3 L61.7,1.7 C33.7,6.1 12.2,24.8 3.9,52 C-7.8,90.2 13.7,130.6 51.9,142.3 L59.2,118.5 C39.7,112.5 25.6,94.4 25.6,73.1 Z" id="Path" fill="#8F4FEB"></path>
                <path d="M59.1,118.4 L51.8,142.2 C57.9,144.1 64.1,145.1 70.4,145.3 L71.3,120.4 C67.1,120.3 63,119.6 59.1,118.4 Z" id="Path" fill="#D9C4F7"></path>
                <path d="M73,120.5 C72.4,120.5 71.9,120.5 71.3,120.5 L70.4,145.4 C75.1,145.6 79.5,145.3 84.2,144.6 L80.3,120 C78,120.3 75.5,120.5 73,120.5 Z" id="Path" fill="#B691F0"></path>
                <path d="M73,0.8 L73,25.7 C99.2,25.7 120.4,46.9 120.4,73.1 C120.4,96.8 103.1,116.4 80.4,119.9 L84.3,144.5 C120.2,138.8 145.3,109.4 145.3,73.1 C145.3,33.1 112.9,0.8 73,0.8 Z" id="Path" fill="#44DF59"></path>
            </g>
            <g id="Group" transform="translate(0.000000, 69.000000)" fill="#8F4FEB">
                <path d="M2.5,6.6 C2.1,6.6 1.7,6.5 1.3,6.3 C0.9,6.1 0.7,5.8 0.5,5.4 C0.3,5 0.2,4.5 0.2,4 C0.2,3.5 0.3,3.1 0.5,2.7 C0.7,2.3 1,2 1.4,1.7 C1.8,1.5 2.2,1.3 2.7,1.3 C3,1.3 3.4,1.4 3.6,1.5 C3.9,1.6 4.1,1.8 4.3,2.1 L4.3,1.4 L5.6,1.4 L5.6,6.5 L4.3,6.5 L4.3,5.9 C4.1,6.2 3.9,6.4 3.6,6.5 C3.2,6.5 2.9,6.6 2.5,6.6 Z M2.9,5.3 C3.3,5.3 3.6,5.2 3.9,4.9 C4.2,4.6 4.3,4.3 4.3,3.8 C4.3,3.4 4.2,3 3.9,2.8 C3.7,2.5 3.3,2.4 2.9,2.4 C2.5,2.4 2.2,2.5 1.9,2.8 C1.7,3.1 1.5,3.4 1.5,3.8 C1.5,4.2 1.6,4.6 1.9,4.9 C2.2,5.2 2.5,5.3 2.9,5.3 Z" id="Shape"></path>
                <path d="M7.5,1.4 L8.8,1.4 L8.8,2.2 C8.9,1.9 9.1,1.7 9.4,1.5 C9.6,1.3 9.9,1.3 10.2,1.3 C10.4,1.3 10.6,1.3 10.8,1.4 L10.7,2.7 C10.5,2.6 10.3,2.6 10.1,2.6 C9.7,2.6 9.4,2.7 9.2,3 C9,3.3 8.9,3.7 8.9,4.1 L8.9,6.4 L7.5,6.4 L7.5,1.4 L7.5,1.4 Z" id="Path"></path>
                <polygon id="Path" points="12.9 2.5 11.9 2.5 11.9 1.4 12.9 1.4 12.9 0 14.3 0 14.3 1.4 15.5 1.4 15.5 2.5 14.3 2.5 14.3 6.4 12.9 6.4 12.9 2.5"></polygon>
            </g>
            <g id="Group" transform="translate(98.000000, 63.000000)" fill="#FFFFFF">
                <path d="M9.4,11.1 L9.4,13.6 L11,13.6 L11,13.9 L4.3,13.9 L4.3,13.6 L5.4,13.6 L5.4,11.1 L0.5,11.1 L0.5,10.7 C2.4,8.9 4.1,4.1 4.4,0.6 L9.7,0.6 C8.2,4.2 5.9,6.9 1,10.7 L5.4,10.7 L5.4,8.2 L9.4,6.8 L9.4,10.7 L11.1,10.7 L11.1,11.1 L9.4,11.1 Z" id="Path"></path>
                <path d="M22.9,10.2 C22.9,12.7 20.7,14.3 16.8,14.3 C15.4,14.3 14.1,14 12.9,13.5 L13.7,9.1 L13.7,9.1 L16.2,13.9 C16.3,13.9 16.4,14 16.6,14 C17.7,14 18.6,12.8 18.6,10.6 C18.6,8.7 17.3,7.1 15.2,7.1 L15.2,6.9 C17.2,6.9 17.9,5.8 17.9,3.4 C17.9,1.7 17.4,0.6 16.5,0.6 C16.4,0.6 16.2,0.6 16.1,0.7 L14.2,5.5 L14.2,5.5 L12.6,1.5 C14.1,0.7 15.5,0.3 17.2,0.3 C20.3,0.3 22.2,1.6 22.2,3.4 C22.2,5.1 20.5,6.5 18.2,6.8 C21,7 22.9,8.4 22.9,10.2 Z" id="Path"></path>
                <path d="M29.8,4.4 C29.8,2.1 31.1,0.3 33.6,0.2 C36,0.2 37.4,2 37.4,4.4 C37.4,6.7 36.1,8.6 33.6,8.6 C31.1,8.7 29.8,6.8 29.8,4.4 Z M34.4,4.4 C34.4,1.8 34.2,0.5 33.5,0.5 C32.8,0.5 32.6,1.8 32.6,4.4 C32.6,7 32.8,8.4 33.5,8.4 C34.2,8.4 34.4,7 34.4,4.4 Z M41.4,0.6 L42.2,0.6 L34.9,13.9 L34.2,13.9 L41.4,0.6 Z M38.9,10 C38.9,7.7 40.2,5.9 42.7,5.8 C45.1,5.8 46.5,7.6 46.5,10 C46.5,12.3 45.2,14.2 42.7,14.2 C40.2,14.3 38.9,12.4 38.9,10 Z M43.5,10 C43.5,7.4 43.3,6.1 42.6,6.1 C41.9,6.1 41.7,7.4 41.7,10 C41.7,12.6 41.9,14 42.6,14 C43.3,14 43.5,12.6 43.5,10 Z" id="Shape"></path>
            </g>
            <rect id="Rectangle" fill="#8F4FEB" x="24.9" y="72.9" width="38" height="1"></rect>
        </g>
    </g>
</svg>