<!-- Generator: Adobe Illustrator 25.3.1, SVG Export Plug-In . SVG Version: 6.00 Build 0)  -->
<svg version="1.1" id="Calque_1 fourth" xmlns="http://www.w3.org/2000/svg" xmlns:xlink="http://www.w3.org/1999/xlink" x="0px" y="0px"
	 viewBox="0 0 280.2 261.3" style="enable-background:new 0 0 280.2 261.3;" xml:space="preserve">
<style type="text/css">
	.st0{fill:#C4F7C9;}
	.st1{fill:#A2EFAC;}
	.st2{fill:#8F4FEB;}
	.st3{fill:#D9C4F7;}
	.st4{fill:#B691F0;}
	.st5{fill:#44E559;}
</style>
<g>
	<path class="st0" d="M140,81.9V57.1c-0.8,0-1.8,0-2.5,0l0.9,24.8C138.9,81.9,139.4,81.9,140,81.9z"/>
	<path class="st1" d="M138.3,81.9l-0.9-24.8c-3.1,0.1-5.7,0.4-8.8,0.8l3.9,24.5C134.5,82.2,136.4,82,138.3,81.9z"/>
	<path class="st2" d="M92.7,129.2c0-23.6,17.3-43.2,39.9-46.7L128.7,58c-28,4.4-49.4,23.1-57.7,50.1c-11.6,38.1,9.8,78.4,47.9,90
		l7.2-23.7C106.8,168.5,92.7,150.5,92.7,129.2z"/>
	<path class="st3" d="M126.2,174.4l-7.2,23.7c6.1,1.9,12.2,2.9,18.6,3.1l0.9-24.8C134.1,176.3,130,175.6,126.2,174.4z"/>
	<path class="st4" d="M140,176.5c-0.6,0-1.1,0-1.7,0l-0.9,24.8c4.7,0.2,9.1-0.1,13.8-0.8l-3.9-24.5C145,176.3,142.5,176.5,140,176.5
		z"/>
	<path class="st5" d="M140,57.1v24.8c26.1,0,47.3,21.2,47.3,47.3c0,23.6-17.3,43.2-39.9,46.7l3.9,24.5c35.8-5.7,60.8-35,60.8-71.2
		C212.1,89.4,179.8,57.1,140,57.1z"/>
	<path class="st0" d="M140,81.9c-0.6,0-1.1,0-1.7,0c-1.9,0.1-3.9,0.3-5.7,0.5C110,86,92.7,105.6,92.7,129.2
		c0,21.3,14.1,39.3,33.5,45.2c3.9,1.2,8,1.9,12.2,2c0.5,0,1.1,0,1.7,0c2.5,0,5-0.2,7.4-0.6c22.6-3.6,39.9-23.1,39.9-46.7
		C187.3,103.1,166.1,81.9,140,81.9z"/>
</g>
<g>
	<g>
		<path class="st2" d="M124.5,21.2c-0.8,0-1.3-0.2-1.7-0.6c-0.4-0.4-0.6-0.9-0.6-1.7v-3h1.4v2.9c0,0.7,0.3,1.1,1,1.1
			c0.6,0,0.9-0.4,0.9-1.1V16h1.4v3c0,0.7-0.2,1.3-0.6,1.7C125.8,21,125.2,21.2,124.5,21.2z"/>
		<path class="st2" d="M129.2,17.1h-1V16h1v-1.4h1.4V16h1.2v1.1h-1.2V21h-1.4V17.1z"/>
		<path class="st2" d="M134,14.9c-0.2,0-0.4-0.1-0.6-0.2c-0.2-0.2-0.2-0.3-0.2-0.6c0-0.2,0.1-0.4,0.2-0.6c0.2-0.2,0.4-0.2,0.6-0.2
			c0.2,0,0.4,0.1,0.6,0.2c0.2,0.2,0.2,0.3,0.2,0.6c0,0.2-0.1,0.4-0.2,0.6C134.4,14.9,134.2,14.9,134,14.9z M133.3,16h1.4v5h-1.4V16z
			"/>
		<path class="st2" d="M136.7,13h1.4v8h-1.4V13z"/>
		<path class="st2" d="M140.7,14.9c-0.2,0-0.4-0.1-0.6-0.2c-0.2-0.2-0.2-0.3-0.2-0.6c0-0.2,0.1-0.4,0.2-0.6c0.2-0.2,0.4-0.2,0.6-0.2
			c0.2,0,0.4,0.1,0.6,0.2c0.2,0.2,0.2,0.3,0.2,0.6c0,0.2-0.1,0.4-0.2,0.6C141.1,14.9,140.9,14.9,140.7,14.9z M140,16h1.4v5H140V16z"
			/>
		<path class="st2" d="M143.8,17.1h-1V16h1v-1.4h1.4V16h1.2v1.1h-1.2V21h-1.4V17.1z"/>
		<path class="st2" d="M149.6,20.7l-2.1-4.7h1.5l1.3,3.2l1.2-3.2h1.5l-3.3,7.5h-1.4L149.6,20.7z"/>
	</g>
</g>
<g>
	<g>
		<path class="st2" d="M124.1,126.3c0-3.8,2-6.9,5.7-6.9c3.7,0,5.7,3.1,5.7,6.9c0,3.8-2,7-5.7,7
			C126.1,133.4,124.1,130.2,124.1,126.3z M131.2,126.3c0-4.1-0.3-6.5-1.5-6.5c-1.2,0-1.5,2.4-1.5,6.5c0,4.2,0.3,6.7,1.5,6.7
			C131,133,131.2,130.5,131.2,126.3z"/>
		<path class="st2" d="M142.6,123.6c0-2.3,1.3-4.1,3.8-4.1c2.4,0,3.8,1.8,3.8,4.1c0,2.3-1.3,4.2-3.8,4.2
			C143.9,127.8,142.6,125.9,142.6,123.6z M147.2,123.5c0-2.6-0.2-3.9-0.9-3.9c-0.7,0-0.9,1.3-0.9,3.9c0,2.6,0.2,4,0.9,4
			C147,127.5,147.2,126.1,147.2,123.5z M154.1,119.8h0.8l-7.3,13.2h-0.7L154.1,119.8z M151.6,129.1c0-2.3,1.3-4.1,3.8-4.1
			c2.4,0,3.8,1.8,3.8,4.1c0,2.3-1.3,4.2-3.8,4.2C153,133.4,151.6,131.5,151.6,129.1z M156.3,129.1c0-2.6-0.2-3.9-0.9-3.9
			c-0.7,0-0.9,1.3-0.9,3.9c0,2.6,0.2,4,0.9,4S156.3,131.7,156.3,129.1z"/>
	</g>
</g>
<rect x="138.9" y="27.6" class="st2" width="0.3" height="37.9"/>
</svg>
