<!-- Generator: Adobe Illustrator 25.3.1, SVG Export Plug-In . SVG Version: 6.00 Build 0)  -->
<svg version="1.1" id="Calque_1" xmlns="http://www.w3.org/2000/svg" xmlns:xlink="http://www.w3.org/1999/xlink" x="0px" y="0px"
	 viewBox="0 0 280.2 261.3" style="enable-background:new 0 0 280.2 261.3;" xml:space="preserve">
<style type="text/css">
	.st0{fill:#C4F7C9;}
	.st1{fill:#A2EFAC;}
	.st2{fill:#8F4FEB;}
	.st3{fill:#D9C4F7;}
	.st4{fill:#B691F0;}
	.st5{fill:#44E559;}
	.st6{fill:#8B50E7;}
</style>
<g>
	<path class="st0" d="M140,81.9V57.1c-0.8,0-1.8,0-2.5,0l0.9,24.8C138.9,81.9,139.5,81.9,140,81.9z"/>
	<path class="st1" d="M138.4,82l-0.9-24.8c-3.1,0.1-5.7,0.4-8.8,0.8l3.9,24.5C134.5,82.2,136.4,82,138.4,82z"/>
	<path class="st2" d="M92.7,129.2c0-23.6,17.3-43.2,39.9-46.7L128.7,58c-28,4.4-49.4,23.1-57.7,50.1c-11.6,38.1,9.8,78.4,47.9,90
		l7.2-23.7C106.8,168.5,92.7,150.5,92.7,129.2z"/>
	<path class="st3" d="M126.2,174.4l-7.2,23.7c6.1,1.9,12.2,2.9,18.6,3.1l0.9-24.8C134.1,176.3,130.1,175.6,126.2,174.4z"/>
	<path class="st4" d="M140,176.5c-0.6,0-1.1,0-1.7,0l-0.9,24.8c4.7,0.2,9.1-0.1,13.8-0.8l-3.9-24.5C145,176.3,142.5,176.5,140,176.5
		z"/>
	<path class="st5" d="M140,57.1v24.8c26.1,0,47.3,21.2,47.3,47.3c0,23.6-17.3,43.2-39.9,46.7l3.9,24.5c35.8-5.7,60.8-35,60.8-71.2
		C212.1,89.4,179.8,57.1,140,57.1z"/>
	<path class="st1" d="M140,81.9c-0.6,0-1.1,0-1.7,0c-1.9,0.1-3.9,0.3-5.7,0.5c-22.6,3.6-39.9,23.1-39.9,46.7
		c0,21.3,14.1,39.3,33.5,45.2c3.9,1.2,8,1.9,12.2,2c0.5,0,1.1,0,1.7,0c2.5,0,5-0.2,7.4-0.6c22.6-3.6,39.9-23.1,39.9-46.7
		C187.3,103.1,166.1,81.9,140,81.9z"/>
</g>
<g>
	<g>
		<path class="st6" d="M121.6,21.7c-0.3,0-0.7,0-1.1-0.1c-0.4-0.1-0.7-0.2-0.9-0.3l0.1-1.2c0.2,0.1,0.5,0.2,0.8,0.3
			c0.3,0.1,0.6,0.1,0.9,0.1c0.6,0,1-0.1,1.2-0.4c0.3-0.3,0.4-0.7,0.4-1.2v-0.4c-0.2,0.3-0.4,0.5-0.7,0.6c-0.3,0.1-0.6,0.2-1,0.2
			c-0.4,0-0.8-0.1-1.2-0.3c-0.4-0.2-0.6-0.5-0.8-0.9c-0.2-0.4-0.3-0.9-0.3-1.4c0-0.5,0.1-0.9,0.3-1.3c0.2-0.4,0.5-0.7,0.9-1
			c0.4-0.2,0.8-0.4,1.2-0.4c0.3,0,0.7,0.1,0.9,0.2c0.3,0.1,0.5,0.3,0.7,0.6l0-0.7h1.3v4.7c0,0.9-0.2,1.7-0.7,2.1
			C123.3,21.4,122.6,21.7,121.6,21.7z M121.8,18.1c0.4,0,0.7-0.1,1-0.4c0.3-0.3,0.4-0.6,0.4-1.1c0-0.4-0.1-0.8-0.4-1
			c-0.2-0.3-0.6-0.4-1-0.4c-0.4,0-0.7,0.1-1,0.4c-0.2,0.3-0.4,0.6-0.4,1c0,0.4,0.1,0.8,0.4,1.1C121.1,18,121.5,18.1,121.8,18.1z"/>
		<path class="st6" d="M128.5,19.3c-0.4,0-0.8-0.1-1.2-0.3c-0.4-0.2-0.6-0.5-0.8-0.9c-0.2-0.4-0.3-0.9-0.3-1.4
			c0-0.5,0.1-0.9,0.3-1.3c0.2-0.4,0.5-0.7,0.9-1c0.4-0.2,0.8-0.4,1.2-0.4c0.3,0,0.7,0.1,0.9,0.2c0.3,0.1,0.5,0.3,0.7,0.6l0-0.7h1.3
			v5h-1.3l0-0.6c-0.2,0.3-0.4,0.5-0.7,0.6C129.2,19.3,128.9,19.3,128.5,19.3z M128.9,18.1c0.4,0,0.7-0.1,1-0.4
			c0.3-0.3,0.4-0.6,0.4-1.1c0-0.4-0.1-0.8-0.4-1c-0.2-0.3-0.6-0.4-1-0.4c-0.4,0-0.7,0.1-1,0.4c-0.2,0.3-0.4,0.6-0.4,1
			c0,0.4,0.1,0.8,0.4,1.1C128.2,18,128.5,18.1,128.9,18.1z"/>
		<path class="st6" d="M133.5,14.1h1.3l0,0.6c0.2-0.3,0.4-0.5,0.6-0.6c0.3-0.1,0.6-0.2,0.9-0.2c0.7,0,1.2,0.3,1.5,0.9
			c0.1-0.3,0.4-0.5,0.6-0.7c0.3-0.2,0.6-0.2,1-0.2c0.6,0,1.1,0.2,1.4,0.5c0.3,0.4,0.5,0.9,0.5,1.6v3.1H140v-2.8
			c0-0.4-0.1-0.7-0.2-0.9c-0.1-0.2-0.4-0.3-0.7-0.3c-0.3,0-0.5,0.1-0.7,0.3c-0.2,0.2-0.3,0.5-0.3,0.9v2.7h-1.4v-2.8
			c0-0.4-0.1-0.7-0.2-0.9c-0.1-0.2-0.4-0.3-0.7-0.3c-0.3,0-0.6,0.1-0.7,0.3c-0.2,0.2-0.3,0.5-0.3,0.9v2.7h-1.4V14.1z"/>
		<path class="st6" d="M145.9,19.3c-0.6,0-1.1-0.1-1.5-0.3c-0.4-0.2-0.8-0.5-1-0.9c-0.2-0.4-0.4-0.9-0.4-1.4c0-0.5,0.1-1,0.3-1.4
			c0.2-0.4,0.5-0.7,0.9-1c0.4-0.2,0.8-0.4,1.4-0.4c0.5,0,0.9,0.1,1.3,0.3c0.4,0.2,0.6,0.5,0.8,0.9c0.2,0.4,0.3,0.8,0.3,1.3
			c0,0.2,0,0.4,0,0.6h-3.6c0.2,0.8,0.7,1.1,1.7,1.1c0.3,0,0.6,0,0.9-0.1c0.3-0.1,0.5-0.2,0.8-0.3l0.1,1.1c-0.2,0.1-0.5,0.2-0.9,0.3
			C146.7,19.3,146.3,19.3,145.9,19.3z M146.7,16.1c0-0.4-0.1-0.6-0.3-0.8c-0.2-0.2-0.5-0.3-0.8-0.3c-0.3,0-0.6,0.1-0.8,0.3
			c-0.2,0.2-0.3,0.5-0.4,0.8H146.7z"/>
	</g>
</g>
<g>
	<g>
		<path class="st6" d="M133.4,128.7v4.4h-9.7v0l0.9-1.2c3.2-4.1,4.4-6.5,4.4-9.1c0-1.9-0.5-3-1.4-3c-0.1,0-0.3,0-0.4,0.1l-1.9,5.3h0
			l-1.5-4.6c1.3-0.7,2.8-1.1,4.4-1.1c3.3,0,5,1.2,5,3.4c0,2.1-1.5,3.7-6.6,6.9h6.4v-1.1H133.4z"/>
		<path class="st6" d="M140.4,123.6c0-2.3,1.3-4.1,3.8-4.1c2.4,0,3.8,1.8,3.8,4.1c0,2.3-1.3,4.2-3.8,4.2
			C141.7,127.8,140.4,125.9,140.4,123.6z M145,123.6c0-2.6-0.2-3.9-0.9-3.9c-0.7,0-0.9,1.3-0.9,3.9c0,2.6,0.2,4,0.9,4
			C144.8,127.6,145,126.2,145,123.6z M152,119.8h0.8l-7.3,13.2h-0.7L152,119.8z M149.5,129.2c0-2.3,1.3-4.1,3.8-4.1
			c2.4,0,3.8,1.8,3.8,4.1c0,2.3-1.3,4.2-3.8,4.2C150.8,133.4,149.5,131.5,149.5,129.2z M154.1,129.2c0-2.6-0.2-3.9-0.9-3.9
			c-0.7,0-0.9,1.3-0.9,3.9c0,2.6,0.2,4,0.9,4C153.9,133.1,154.1,131.8,154.1,129.2z"/>
	</g>
</g>
<rect x="133.9" y="27.7" class="st6" width="0.3" height="37.9"/>
</svg>
