<!-- Generator: Adobe Illustrator 25.3.1, SVG Export Plug-In . SVG Version: 6.00 Build 0)  -->
<svg version="1.1" id="Calque_1 fiveth" xmlns="http://www.w3.org/2000/svg" xmlns:xlink="http://www.w3.org/1999/xlink" x="0px" y="0px"
	 viewBox="0 0 280.2 261.3" style="enable-background:new 0 0 280.2 261.3;" xml:space="preserve">
<style type="text/css">
	.st0{fill:#C4F7C9;}
	.st1{fill:#A2EFAC;}
	.st2{fill:#8F4FEB;}
	.st3{fill:#D9C4F7;}
	.st4{fill:#B691F0;}
	.st5{fill:#44E559;}
	.st6{fill:#FFFFFF;}
</style>
<g>
	<path class="st0" d="M105.3,81.9V57.1c-0.8,0-1.8,0-2.5,0l0.9,24.8C104.2,81.9,104.7,81.9,105.3,81.9z"/>
	<path class="st1" d="M103.6,81.9l-0.9-24.8c-3.1,0.1-5.7,0.4-8.8,0.8l3.9,24.5C99.8,82.2,101.7,82,103.6,81.9z"/>
	<path class="st2" d="M58,129.2c0-23.6,17.3-43.2,39.9-46.7L94,58c-28,4.4-49.4,23.1-57.7,50.1c-11.6,38.1,9.8,78.4,47.9,90
		l7.2-23.7C72.1,168.5,58,150.5,58,129.2z"/>
	<path class="st3" d="M91.5,174.4l-7.2,23.7c6.1,1.9,12.2,2.9,18.6,3.1l0.9-24.8C99.4,176.3,95.3,175.6,91.5,174.4z"/>
	<path class="st4" d="M105.3,176.5c-0.6,0-1.1,0-1.7,0l-0.9,24.8c4.7,0.2,9.1-0.1,13.8-0.8l-3.9-24.5
		C110.3,176.3,107.8,176.5,105.3,176.5z"/>
	<path class="st5" d="M105.3,57.1v24.8c26.1,0,47.3,21.2,47.3,47.3c0,23.6-17.3,43.2-39.9,46.7l3.9,24.5c35.8-5.7,60.8-35,60.8-71.2
		C177.4,89.4,145.1,57.1,105.3,57.1z"/>
	<path class="st5" d="M105.3,81.9c-0.6,0-1.1,0-1.7,0c-1.9,0.1-3.9,0.3-5.7,0.5C75.3,86,58,105.6,58,129.2
		c0,21.3,14.1,39.3,33.5,45.2c3.9,1.2,8,1.9,12.2,2c0.5,0,1.1,0,1.7,0c2.5,0,5-0.2,7.4-0.6c22.6-3.6,39.9-23.1,39.9-46.7
		C152.6,103.1,131.4,81.9,105.3,81.9z"/>
</g>
<g>
	<g>
		<path class="st2" d="M209.3,131.7c-0.5,0-1-0.1-1.5-0.3c-0.4-0.2-0.7-0.5-1-0.9c-0.2-0.4-0.3-0.9-0.3-1.4c0-0.5,0.1-1,0.3-1.4
			c0.2-0.4,0.5-0.7,1-1c0.4-0.2,0.9-0.3,1.5-0.3c0.3,0,0.6,0,0.9,0.1c0.3,0.1,0.5,0.2,0.7,0.3l-0.2,1.2c-0.4-0.2-0.9-0.3-1.3-0.3
			c-0.5,0-0.8,0.1-1.1,0.4c-0.3,0.3-0.4,0.6-0.4,1c0,0.4,0.1,0.8,0.4,1.1s0.7,0.4,1.1,0.4c0.4,0,0.9-0.1,1.4-0.3l0.1,1.1
			c-0.2,0.1-0.5,0.2-0.8,0.3S209.7,131.7,209.3,131.7z"/>
		<path class="st2" d="M215,131.7c-0.5,0-0.9-0.1-1.4-0.3c-0.4-0.2-0.7-0.5-1-1c-0.2-0.4-0.4-0.9-0.4-1.4c0-0.5,0.1-0.9,0.3-1.3
			c0.2-0.4,0.6-0.7,1-1c0.4-0.2,0.9-0.4,1.4-0.4c0.5,0,0.9,0.1,1.4,0.3c0.4,0.2,0.7,0.5,1,0.9c0.2,0.4,0.4,0.9,0.4,1.4
			c0,0.5-0.1,0.9-0.3,1.3c-0.2,0.4-0.6,0.7-1,1C216,131.6,215.6,131.7,215,131.7z M215,130.5c0.4,0,0.7-0.1,1-0.4
			c0.3-0.3,0.4-0.6,0.4-1.1c0-0.4-0.1-0.8-0.4-1c-0.2-0.3-0.6-0.4-1-0.4c-0.4,0-0.7,0.1-1,0.4c-0.2,0.3-0.4,0.6-0.4,1
			c0,0.4,0.1,0.8,0.4,1.1C214.3,130.3,214.6,130.5,215,130.5z"/>
		<path class="st2" d="M219.4,123.5h1.4v8h-1.4V123.5z"/>
		<path class="st2" d="M222.8,123.5h1.4v8h-1.4V123.5z"/>
		<path class="st2" d="M228.8,131.7c-0.6,0-1.1-0.1-1.5-0.3c-0.4-0.2-0.8-0.5-1-0.9c-0.2-0.4-0.4-0.9-0.4-1.4c0-0.5,0.1-1,0.3-1.4
			c0.2-0.4,0.5-0.7,0.9-1c0.4-0.2,0.8-0.4,1.4-0.4c0.5,0,0.9,0.1,1.3,0.3c0.4,0.2,0.6,0.5,0.8,0.9c0.2,0.4,0.3,0.8,0.3,1.3
			c0,0.2,0,0.4,0,0.6h-3.6c0.2,0.8,0.7,1.1,1.7,1.1c0.3,0,0.6,0,0.9-0.1c0.3-0.1,0.5-0.2,0.8-0.3l0.1,1.1c-0.2,0.1-0.5,0.2-0.9,0.3
			C229.5,131.7,229.1,131.7,228.8,131.7z M229.5,128.5c0-0.4-0.1-0.6-0.3-0.8c-0.2-0.2-0.5-0.3-0.8-0.3c-0.3,0-0.6,0.1-0.8,0.3
			c-0.2,0.2-0.3,0.5-0.4,0.8H229.5z"/>
		<path class="st2" d="M235.1,131.7c-0.5,0-1-0.1-1.5-0.3c-0.4-0.2-0.7-0.5-1-0.9c-0.2-0.4-0.3-0.9-0.3-1.4c0-0.5,0.1-1,0.3-1.4
			c0.2-0.4,0.5-0.7,1-1c0.4-0.2,0.9-0.3,1.5-0.3c0.3,0,0.6,0,0.9,0.1c0.3,0.1,0.5,0.2,0.7,0.3l-0.2,1.2c-0.4-0.2-0.9-0.3-1.3-0.3
			c-0.5,0-0.8,0.1-1.1,0.4c-0.3,0.3-0.4,0.6-0.4,1c0,0.4,0.1,0.8,0.4,1.1s0.7,0.4,1.1,0.4c0.4,0,0.9-0.1,1.4-0.3l0.1,1.1
			c-0.2,0.1-0.5,0.2-0.8,0.3S235.4,131.7,235.1,131.7z"/>
		<path class="st2" d="M239.1,127.6h-1v-1.1h1v-1.4h1.4v1.4h1.2v1.1h-1.2v3.9h-1.4V127.6z"/>
		<path class="st2" d="M243.9,125.5c-0.2,0-0.4-0.1-0.6-0.2c-0.2-0.2-0.2-0.3-0.2-0.6c0-0.2,0.1-0.4,0.2-0.6
			c0.2-0.2,0.4-0.2,0.6-0.2s0.4,0.1,0.6,0.2c0.2,0.2,0.2,0.3,0.2,0.6c0,0.2-0.1,0.4-0.2,0.6C244.4,125.4,244.2,125.5,243.9,125.5z
			 M243.2,126.5h1.4v5h-1.4V126.5z"/>
		<path class="st2" d="M249.5,131.7c-0.4,0-0.7-0.1-0.9-0.2c-0.3-0.1-0.5-0.3-0.7-0.6l0,0.7h-1.3v-8h1.4v3.6
			c0.4-0.5,0.9-0.8,1.6-0.8c0.4,0,0.8,0.1,1.2,0.3s0.6,0.5,0.8,0.9c0.2,0.4,0.3,0.9,0.3,1.4c0,0.5-0.1,0.9-0.3,1.3
			c-0.2,0.4-0.5,0.7-0.9,1C250.4,131.6,250,131.7,249.5,131.7z M249.2,130.5c0.4,0,0.7-0.1,1-0.4c0.2-0.3,0.4-0.6,0.4-1
			c0-0.4-0.1-0.8-0.4-1.1c-0.3-0.3-0.6-0.4-1-0.4c-0.4,0-0.7,0.1-1,0.4c-0.3,0.3-0.4,0.6-0.4,1.1c0,0.4,0.1,0.8,0.4,1
			C248.5,130.3,248.8,130.5,249.2,130.5z"/>
		<path class="st2" d="M253.6,123.5h1.4v8h-1.4V123.5z"/>
		<path class="st2" d="M259.6,131.7c-0.6,0-1.1-0.1-1.5-0.3c-0.4-0.2-0.8-0.5-1-0.9c-0.2-0.4-0.4-0.9-0.4-1.4c0-0.5,0.1-1,0.3-1.4
			c0.2-0.4,0.5-0.7,0.9-1c0.4-0.2,0.8-0.4,1.4-0.4c0.5,0,0.9,0.1,1.3,0.3c0.4,0.2,0.6,0.5,0.8,0.9c0.2,0.4,0.3,0.8,0.3,1.3
			c0,0.2,0,0.4,0,0.6H258c0.2,0.8,0.7,1.1,1.7,1.1c0.3,0,0.6,0,0.9-0.1c0.3-0.1,0.5-0.2,0.8-0.3l0.1,1.1c-0.2,0.1-0.5,0.2-0.9,0.3
			C260.3,131.7,260,131.7,259.6,131.7z M260.3,128.5c0-0.4-0.1-0.6-0.3-0.8c-0.2-0.2-0.5-0.3-0.8-0.3c-0.3,0-0.6,0.1-0.8,0.3
			c-0.2,0.2-0.3,0.5-0.4,0.8H260.3z"/>
	</g>
</g>
<g>
	<g>
		<path class="st6" d="M95.2,130.2v2.5h1.6v0.3h-6.7v-0.3h1.1v-2.5h-4.9v-0.4c1.9-1.8,3.6-6.6,3.9-10.1h5.2
			c-1.5,3.6-3.8,6.3-8.6,10.1h4.4v-2.5l4-1.4v3.9h1.7v0.4H95.2z"/>
		<path class="st6" d="M108.7,129c0,2.4-2.3,4.4-5.1,4.4c-2.9,0-5-1.3-5-3.5c0-1.5,1.3-2.7,3.2-2.9c-1.9-1.4-2.5-2.4-2.5-3.9
			c0-2.1,1.9-3.7,4.6-3.7c2.4,0,4.2,1.2,4.2,2.7c0,1.4-1.2,2.2-3.1,2.3l1.3,0.9C108,126.5,108.7,127.6,108.7,129z M105.6,131
			c0-1-0.7-1.9-1.8-2.6l-1.3-0.9c-0.2-0.1-0.3-0.2-0.5-0.4c-0.3,0.7-0.4,1.4-0.4,2.2c0,2.5,0.9,3.6,2.3,3.6
			C105,133,105.6,132.1,105.6,131z M102.1,121.3c0,0.7,0.5,1.4,1.4,2l1.4,1c0.3-0.7,0.5-1.4,0.5-2.2c0-1.4-0.7-2.3-1.7-2.3
			C102.8,119.8,102.1,120.4,102.1,121.3z"/>
		<path class="st6" d="M115.8,123.6c0-2.3,1.3-4.1,3.8-4.1c2.4,0,3.8,1.8,3.8,4.1c0,2.3-1.3,4.2-3.8,4.2
			C117.1,127.8,115.8,125.9,115.8,123.6z M120.4,123.5c0-2.6-0.2-3.9-0.9-3.9c-0.7,0-0.9,1.3-0.9,3.9c0,2.6,0.2,4,0.9,4
			C120.2,127.5,120.4,126.1,120.4,123.5z M127.3,119.8h0.8l-7.3,13.2h-0.7L127.3,119.8z M124.8,129.1c0-2.3,1.3-4.1,3.8-4.1
			c2.4,0,3.8,1.8,3.8,4.1c0,2.3-1.3,4.2-3.8,4.2C126.2,133.4,124.8,131.5,124.8,129.1z M129.5,129.1c0-2.6-0.2-3.9-0.9-3.9
			c-0.7,0-0.9,1.3-0.9,3.9c0,2.6,0.2,4,0.9,4S129.5,131.7,129.5,129.1z"/>
	</g>
</g>
<rect x="161" y="129" class="st2" width="37.9" height="0.3"/>
</svg>
