<svg id="menu" width="146px" height="146px" viewBox="0 0 146 146" version="1.1" xmlns="http://www.w3.org/2000/svg" xmlns:xlink="http://www.w3.org/1999/xlink">
    <title>INFOGRAPHIE_2</title>
    <g id="Welcome" stroke="none" stroke-width="1" fill="none" fill-rule="evenodd">
        <g id="INFOGRAPHIE_2" fill-rule="nonzero">
            <g id="Group">
                <path d="M73.1,25.6 L73.1,0.8 C72.3,0.8 71.3,0.8 70.6,0.8 L71.5,25.7 C72,25.6 72.6,25.6 73.1,25.6 Z" id="utility" fill="#C4F7C9"></path>
                <path d="M71.5,25.7 L70.6,0.8 C67.4,0.9 64.9,1.2 61.8,1.6 L65.7,26.2 C67.6,25.9 69.5,25.7 71.5,25.7 Z" id="game" fill="#A2EFAC"></path>
                <path d="M25.7,73.1 C25.7,49.4 43,29.8 65.7,26.3 L61.8,1.7 C33.8,6.1 12.3,24.8 4,52 C-7.7,90.2 13.8,130.6 52,142.3 L59.3,118.5 C39.8,112.5 25.7,94.4 25.7,73.1 Z" id="art" fill="#8F4FEB"></path>
                <path d="M59.2,118.4 L51.9,142.2 C58,144.1 64.2,145.1 70.5,145.3 L71.4,120.4 C67.2,120.3 63.1,119.6 59.2,118.4 Z" id="sport" fill="#D9C4F7"></path>
                <path d="M73.1,120.5 C72.5,120.5 72,120.5 71.4,120.5 L70.5,145.4 C75.2,145.6 79.6,145.3 84.3,144.6 L80.4,120 C78.1,120.3 75.6,120.5 73.1,120.5 Z" id="metaverse" fill="#B691F0"></path>
                <path d="M73.1,0.8 L73.1,25.7 C99.3,25.7 120.5,46.9 120.5,73.1 C120.5,96.8 103.2,116.4 80.5,119.9 L84.4,144.5 C120.3,138.8 145.4,109.4 145.4,73.1 C145.4,33.1 113,0.8 73.1,0.8 Z" id="collectible" fill="#44E559"></path>
                <path d="M73.1,25.6 C72.5,25.6 72,25.6 71.4,25.6 C69.4,25.7 67.5,25.9 65.6,26.1 C42.9,29.7 25.6,49.3 25.6,72.9 C25.6,94.3 39.7,112.3 59.2,118.3 C63.1,119.5 67.2,120.2 71.4,120.3 C71.9,120.3 72.5,120.3 73.1,120.3 C75.6,120.3 78.1,120.1 80.5,119.7 C103.2,116.1 120.5,96.5 120.5,72.9 C120.5,46.9 99.3,25.6 73.1,25.6 Z" id="Path" fill="#FFFFFF"></path>
            </g>
            <g id="Group" transform="translate(52.000000, 61.000000)" fill="#8B50E7">
                <path d="M2.5,8.5 C2.1,8.5 1.8,8.5 1.4,8.4 C1.1,8.3 0.8,8.2 0.6,8 L0.8,6.9 C1,7.1 1.3,7.2 1.6,7.3 C1.9,7.4 2.2,7.4 2.5,7.4 C3.1,7.4 3.3,7.3 3.3,7 C3.3,6.8 3.2,6.7 3.1,6.7 C3,6.6 2.7,6.5 2.4,6.4 C1.8,6.2 1.4,6 1.1,5.8 C0.8,5.5 0.7,5.2 0.7,4.8 C0.7,4.3 0.9,3.9 1.2,3.7 C1.6,3.4 2.1,3.3 2.7,3.3 C3,3.3 3.3,3.3 3.6,3.4 C3.9,3.5 4.2,3.6 4.4,3.7 L4.2,4.8 C4,4.7 3.8,4.6 3.5,4.5 C3.2,4.4 3,4.4 2.7,4.4 C2.2,4.4 2,4.5 2,4.8 C2,4.9 2.1,5.1 2.2,5.1 C2.3,5.2 2.5,5.3 2.9,5.4 C3.5,5.6 4,5.8 4.2,6.1 C4.5,6.4 4.6,6.7 4.6,7.1 C4.6,7.6 4.4,8 4,8.3 C3.7,8.4 3.2,8.5 2.5,8.5 Z" id="Path"></path>
                <path d="M9,8.5 C8.4,8.5 7.9,8.4 7.5,8.2 C7.1,8 6.7,7.7 6.5,7.3 C6.3,6.9 6.1,6.4 6.1,5.9 C6.1,5.4 6.2,4.9 6.4,4.5 C6.6,4.1 6.9,3.8 7.3,3.5 C7.7,3.3 8.1,3.1 8.7,3.1 C9.2,3.1 9.6,3.2 10,3.4 C10.4,3.6 10.6,3.9 10.8,4.3 C11,4.7 11.1,5.1 11.1,5.6 C11.1,5.8 11.1,6 11.1,6.2 L7.5,6.2 C7.7,7 8.2,7.3 9.2,7.3 C9.5,7.3 9.8,7.3 10.1,7.2 C10.4,7.1 10.6,7 10.9,6.9 L11,8 C10.8,8.1 10.5,8.2 10.1,8.3 C9.7,8.5 9.4,8.5 9,8.5 Z M9.7,5.3 C9.7,4.9 9.6,4.7 9.4,4.5 C9.2,4.3 8.9,4.2 8.6,4.2 C8.3,4.2 8,4.3 7.8,4.5 C7.6,4.7 7.5,5 7.4,5.3 L9.7,5.3 Z" id="Shape"></path>
                <polygon id="Path" points="12.8 0.3 14.2 0.3 14.2 8.4 12.8 8.4"></polygon>
                <path d="M18.8,8.5 C18.2,8.5 17.7,8.4 17.3,8.2 C16.9,8 16.5,7.7 16.3,7.3 C16.1,6.9 15.9,6.4 15.9,5.9 C15.9,5.4 16,4.9 16.2,4.5 C16.4,4.1 16.7,3.8 17.1,3.5 C17.5,3.3 17.9,3.1 18.5,3.1 C19,3.1 19.4,3.2 19.8,3.4 C20.2,3.6 20.4,3.9 20.6,4.3 C20.8,4.7 20.9,5.1 20.9,5.6 C20.9,5.8 20.9,6 20.9,6.2 L17.3,6.2 C17.5,7 18,7.3 19,7.3 C19.3,7.3 19.6,7.3 19.9,7.2 C20.2,7.1 20.4,7 20.7,6.9 L20.8,8 C20.6,8.1 20.3,8.2 19.9,8.3 C19.5,8.5 19.2,8.5 18.8,8.5 Z M19.5,5.3 C19.5,4.9 19.4,4.7 19.2,4.5 C19,4.3 18.7,4.2 18.4,4.2 C18.1,4.2 17.8,4.3 17.6,4.5 C17.4,4.7 17.3,5 17.2,5.3 L19.5,5.3 Z" id="Shape"></path>
                <path d="M25.2,8.5 C24.6,8.5 24.2,8.4 23.7,8.2 C23.3,8 23,7.7 22.7,7.3 C22.5,6.9 22.4,6.4 22.4,5.9 C22.4,5.4 22.5,4.9 22.7,4.5 C22.9,4.1 23.2,3.8 23.7,3.5 C24.1,3.3 24.6,3.2 25.2,3.2 C25.5,3.2 25.8,3.2 26.1,3.3 C26.4,3.4 26.6,3.5 26.8,3.6 L26.6,4.8 C26.2,4.6 25.7,4.5 25.3,4.5 C24.8,4.5 24.5,4.6 24.2,4.9 C23.9,5.2 23.8,5.5 23.8,5.9 C23.8,6.4 23.9,6.7 24.2,7 C24.5,7.3 24.9,7.4 25.3,7.4 C25.7,7.4 26.2,7.3 26.7,7.1 L26.8,8.2 C26.6,8.3 26.3,8.4 26,8.5 C25.8,8.5 25.5,8.5 25.2,8.5 Z" id="Path"></path>
                <polygon id="Path" points="29.2 4.5 28.2 4.5 28.2 3.4 29.2 3.4 29.2 2 30.6 2 30.6 3.4 31.8 3.4 31.8 4.5 30.6 4.5 30.6 8.4 29.2 8.4"></polygon>
                <path d="M3,19.6 C2.6,19.6 2.2,19.5 1.8,19.3 C1.4,19.1 1.2,18.8 1,18.4 C0.8,18 0.7,17.5 0.7,17 C0.7,16.5 0.8,16.1 1,15.7 C1.2,15.3 1.5,15 1.9,14.7 C2.3,14.5 2.7,14.3 3.2,14.3 C3.5,14.3 3.9,14.4 4.1,14.5 C4.4,14.6 4.6,14.8 4.8,15.1 L4.8,14.4 L6.1,14.4 L6.1,19.5 L4.8,19.5 L4.8,18.9 C4.6,19.2 4.4,19.4 4.1,19.5 C3.7,19.5 3.4,19.6 3,19.6 Z M3.4,18.4 C3.8,18.4 4.1,18.3 4.4,18 C4.7,17.7 4.8,17.4 4.8,16.9 C4.8,16.5 4.7,16.1 4.4,15.9 C4.2,15.6 3.8,15.5 3.4,15.5 C3,15.5 2.7,15.6 2.4,15.9 C2.2,16.2 2,16.5 2,16.9 C2,17.3 2.1,17.7 2.4,18 C2.7,18.3 3,18.4 3.4,18.4 Z" id="Shape"></path>
                <path d="M12.2,19.6 C11.8,19.6 11.5,19.6 11.1,19.5 C10.8,19.4 10.5,19.3 10.3,19.1 L10.5,18 C10.7,18.2 11,18.3 11.3,18.4 C11.6,18.5 11.9,18.5 12.2,18.5 C12.8,18.5 13,18.4 13,18.1 C13,17.9 12.9,17.8 12.8,17.8 C12.7,17.7 12.4,17.6 12.1,17.5 C11.5,17.3 11.1,17.1 10.8,16.9 C10.5,16.6 10.4,16.3 10.4,15.9 C10.4,15.4 10.6,15 10.9,14.8 C11.3,14.5 11.8,14.4 12.4,14.4 C12.7,14.4 13,14.4 13.3,14.5 C13.6,14.6 13.9,14.7 14.1,14.8 L13.9,15.9 C13.7,15.8 13.5,15.7 13.2,15.6 C12.9,15.5 12.7,15.5 12.4,15.5 C11.9,15.5 11.7,15.6 11.7,15.9 C11.7,16 11.8,16.2 11.9,16.2 C12,16.3 12.2,16.4 12.6,16.5 C13.2,16.7 13.7,16.9 13.9,17.2 C14.2,17.5 14.3,17.8 14.3,18.2 C14.3,18.7 14.1,19.1 13.7,19.4 C13.4,19.4 12.9,19.6 12.2,19.6 Z" id="Path"></path>
                <path d="M18.7,19.6 C18.1,19.6 17.6,19.5 17.2,19.3 C16.8,19.1 16.4,18.8 16.2,18.4 C16,18 15.8,17.5 15.8,17 C15.8,16.5 15.9,16 16.1,15.6 C16.3,15.2 16.6,14.9 17,14.6 C17.4,14.4 17.8,14.2 18.4,14.2 C18.9,14.2 19.3,14.3 19.7,14.5 C20.1,14.7 20.3,15 20.5,15.4 C20.7,15.8 20.8,16.2 20.8,16.7 C20.8,16.9 20.8,17.1 20.8,17.3 L17.2,17.3 C17.4,18.1 17.9,18.4 18.9,18.4 C19.2,18.4 19.5,18.4 19.8,18.3 C20.1,18.2 20.3,18.1 20.6,18 L20.7,19.1 C20.5,19.2 20.2,19.3 19.8,19.4 C19.4,19.6 19.1,19.6 18.7,19.6 Z M19.4,16.4 C19.4,16 19.3,15.8 19.1,15.6 C18.9,15.4 18.6,15.3 18.3,15.3 C18,15.3 17.7,15.4 17.5,15.6 C17.3,15.8 17.2,16.1 17.1,16.4 L19.4,16.4 Z" id="Shape"></path>
                <path d="M25.1,19.6 C24.5,19.6 24.1,19.5 23.6,19.3 C23.2,19.1 22.9,18.8 22.6,18.4 C22.4,18 22.3,17.5 22.3,17 C22.3,16.5 22.4,16 22.6,15.6 C22.8,15.2 23.1,14.9 23.6,14.6 C24,14.4 24.5,14.3 25.1,14.3 C25.4,14.3 25.7,14.3 26,14.4 C26.3,14.5 26.5,14.6 26.7,14.7 L26.5,15.9 C26.1,15.7 25.6,15.6 25.2,15.6 C24.7,15.6 24.4,15.7 24.1,16 C23.8,16.3 23.7,16.6 23.7,17 C23.7,17.5 23.8,17.8 24.1,18.1 C24.4,18.4 24.8,18.5 25.2,18.5 C25.6,18.5 26.1,18.4 26.6,18.2 L26.7,19.3 C26.5,19.4 26.2,19.5 25.9,19.6 C25.7,19.5 25.4,19.6 25.1,19.6 Z" id="Path"></path>
                <polygon id="Path" points="29.1 15.5 28.1 15.5 28.1 14.4 29.1 14.4 29.1 13 30.5 13 30.5 14.4 31.7 14.4 31.7 15.5 30.5 15.5 30.5 19.4 29.1 19.4"></polygon>
                <path d="M33.9,13.3 C33.7,13.3 33.5,13.2 33.3,13.1 C33.1,12.9 33.1,12.8 33.1,12.5 C33.1,12.3 33.2,12.1 33.3,11.9 C33.5,11.7 33.7,11.7 33.9,11.7 C34.1,11.7 34.3,11.8 34.5,11.9 C34.7,12.1 34.7,12.2 34.7,12.5 C34.7,12.7 34.6,12.9 34.5,13.1 C34.4,13.3 34.2,13.3 33.9,13.3 Z M33.2,14.4 L34.6,14.4 L34.6,19.5 L33.2,19.5 L33.2,14.4 Z" id="Shape"></path>
                <path d="M39,19.6 C38.5,19.6 38,19.5 37.6,19.3 C37.2,19.1 36.9,18.8 36.6,18.3 C36.4,17.9 36.2,17.4 36.2,16.9 C36.2,16.4 36.3,16 36.5,15.6 C36.7,15.2 37.1,14.9 37.5,14.6 C37.9,14.4 38.4,14.2 38.9,14.2 C39.4,14.2 39.9,14.3 40.3,14.5 C40.7,14.7 41,15 41.3,15.4 C41.6,15.8 41.7,16.3 41.7,16.8 C41.7,17.3 41.6,17.7 41.4,18.1 C41.2,18.5 40.8,18.8 40.4,19.1 C40,19.5 39.6,19.6 39,19.6 Z M39,18.4 C39.4,18.4 39.7,18.3 40,18 C40.3,17.7 40.4,17.4 40.4,16.9 C40.4,16.5 40.3,16.1 40,15.9 C39.8,15.6 39.4,15.5 39,15.5 C38.6,15.5 38.3,15.6 38,15.9 C37.8,16.2 37.6,16.5 37.6,16.9 C37.6,17.3 37.7,17.7 38,18 C38.3,18.2 38.6,18.4 39,18.4 Z" id="Shape"></path>
                <path d="M43.4,14.4 L44.7,14.4 L44.7,15 C44.8,14.7 45,14.6 45.3,14.4 C45.6,14.3 45.9,14.2 46.2,14.2 C46.8,14.2 47.3,14.4 47.6,14.8 C47.9,15.2 48.1,15.7 48.1,16.4 L48.1,19.5 L46.7,19.5 L46.7,16.7 C46.7,15.9 46.4,15.5 45.8,15.5 C45.5,15.5 45.2,15.6 45,15.8 C44.8,16 44.7,16.3 44.7,16.7 L44.7,19.4 L43.3,19.4 L43.3,14.4 L43.4,14.4 Z" id="Path"></path>
            </g>
        </g>
    </g>
</svg>