<!-- Generator: Adobe Illustrator 25.3.1, SVG Export Plug-In . SVG Version: 6.00 Build 0)  -->
<svg version="1.1" id="Calque_1 sixth" xmlns="http://www.w3.org/2000/svg" xmlns:xlink="http://www.w3.org/1999/xlink" x="0px" y="0px"
	 viewBox="0 0 280.2 261.3" style="enable-background:new 0 0 280.2 261.3;" xml:space="preserve">
<style type="text/css">
	.st0{fill:#C4F7C9;}
	.st1{fill:#A2EFAC;}
	.st2{fill:#8F4FEB;}
	.st3{fill:#D9C4F7;}
	.st4{fill:#B691F0;}
	.st5{fill:#44E559;}
	.st6{fill:#8B50E7;}
	.st7{fill:#FFFFFF;}
</style>
<g>
	<path class="st0" d="M128.5,63.6V38.8c-0.8,0-1.8,0-2.5,0l0.9,24.8C127.4,63.6,128,63.6,128.5,63.6z"/>
	<path class="st1" d="M126.9,63.7L126,38.9c-3.1,0.1-5.7,0.4-8.8,0.8l3.9,24.5C123,63.9,124.9,63.7,126.9,63.7z"/>
	<path class="st2" d="M81.3,110.9c0-23.6,17.3-43.2,39.9-46.7l-3.9-24.5c-28,4.4-49.4,23.1-57.7,50.1c-11.6,38.1,9.8,78.4,47.9,90
		l7.2-23.7C95.3,150.2,81.3,132.2,81.3,110.9z"/>
	<path class="st3" d="M114.7,156.1l-7.2,23.7c6.1,1.9,12.2,2.9,18.6,3.1l0.9-24.8C122.7,158,118.6,157.3,114.7,156.1z"/>
	<path class="st4" d="M128.5,158.2c-0.6,0-1.1,0-1.7,0L126,183c4.7,0.2,9.1-0.1,13.8-0.8l-3.9-24.5
		C133.5,158,131.1,158.2,128.5,158.2z"/>
	<path class="st5" d="M128.5,38.8v24.8c26.1,0,47.3,21.2,47.3,47.3c0,23.6-17.3,43.2-39.9,46.7l3.9,24.5c35.8-5.7,60.8-35,60.8-71.2
		C200.6,71.1,168.3,38.8,128.5,38.8z"/>
	<path class="st4" d="M128.5,63.6c-0.6,0-1.1,0-1.7,0c-1.9,0.1-3.9,0.3-5.7,0.5c-22.6,3.6-39.9,23.1-39.9,46.7
		c0,21.3,14.1,39.3,33.5,45.2c3.9,1.2,8,1.9,12.2,2c0.5,0,1.1,0,1.7,0c2.5,0,5-0.2,7.4-0.6c22.6-3.6,39.9-23.1,39.9-46.7
		C175.8,84.8,154.7,63.6,128.5,63.6z"/>
</g>
<g>
	<g>
		<path class="st6" d="M105.1,222.7h1.3l0,0.6c0.2-0.3,0.4-0.5,0.6-0.6s0.6-0.2,0.9-0.2c0.7,0,1.2,0.3,1.5,0.9
			c0.1-0.3,0.4-0.5,0.6-0.7c0.3-0.2,0.6-0.2,1-0.2c0.6,0,1.1,0.2,1.4,0.5c0.3,0.4,0.5,0.9,0.5,1.6v3.1h-1.4v-2.8
			c0-0.4-0.1-0.7-0.2-0.9c-0.1-0.2-0.4-0.3-0.7-0.3c-0.3,0-0.5,0.1-0.7,0.3c-0.2,0.2-0.3,0.5-0.3,0.9v2.7h-1.4v-2.8
			c0-0.4-0.1-0.7-0.2-0.9c-0.1-0.2-0.4-0.3-0.7-0.3s-0.6,0.1-0.7,0.3c-0.2,0.2-0.3,0.5-0.3,0.9v2.7h-1.4V222.7z"/>
		<path class="st6" d="M117.6,227.9c-0.6,0-1.1-0.1-1.5-0.3c-0.4-0.2-0.8-0.5-1-0.9c-0.2-0.4-0.4-0.9-0.4-1.4c0-0.5,0.1-1,0.3-1.4
			c0.2-0.4,0.5-0.7,0.9-1c0.4-0.2,0.8-0.4,1.4-0.4c0.5,0,0.9,0.1,1.3,0.3c0.4,0.2,0.6,0.5,0.8,0.9c0.2,0.4,0.3,0.8,0.3,1.3
			c0,0.2,0,0.4,0,0.6H116c0.2,0.8,0.7,1.1,1.7,1.1c0.3,0,0.6,0,0.9-0.1c0.3-0.1,0.5-0.2,0.8-0.3l0.1,1.1c-0.2,0.1-0.5,0.2-0.9,0.3
			C118.4,227.9,118,227.9,117.6,227.9z M118.3,224.7c0-0.4-0.1-0.6-0.3-0.8c-0.2-0.2-0.5-0.3-0.8-0.3c-0.3,0-0.6,0.1-0.8,0.3
			c-0.2,0.2-0.3,0.5-0.4,0.8H118.3z"/>
		<path class="st6" d="M121.9,223.8h-1v-1.1h1v-1.4h1.4v1.4h1.2v1.1h-1.2v3.9h-1.4V223.8z"/>
		<path class="st6" d="M127.9,227.9c-0.4,0-0.8-0.1-1.2-0.3c-0.4-0.2-0.6-0.5-0.8-0.9c-0.2-0.4-0.3-0.9-0.3-1.4
			c0-0.5,0.1-0.9,0.3-1.3c0.2-0.4,0.5-0.7,0.9-1c0.4-0.2,0.8-0.4,1.2-0.4c0.3,0,0.7,0.1,0.9,0.2c0.3,0.1,0.5,0.3,0.7,0.6l0-0.7h1.3
			v5h-1.3l0-0.6c-0.2,0.3-0.4,0.5-0.7,0.6C128.6,227.8,128.2,227.9,127.9,227.9z M128.2,226.7c0.4,0,0.7-0.1,1-0.4
			c0.3-0.3,0.4-0.6,0.4-1.1c0-0.4-0.1-0.8-0.4-1c-0.2-0.3-0.6-0.4-1-0.4c-0.4,0-0.7,0.1-1,0.4c-0.2,0.3-0.4,0.6-0.4,1
			c0,0.4,0.1,0.8,0.4,1.1C127.5,226.5,127.8,226.7,128.2,226.7z"/>
		<path class="st6" d="M132.3,222.7h1.5l1.2,3.6l1.2-3.6h1.4l-2,5h-1.4L132.3,222.7z"/>
		<path class="st6" d="M141.5,227.9c-0.6,0-1.1-0.1-1.5-0.3c-0.4-0.2-0.8-0.5-1-0.9c-0.2-0.4-0.4-0.9-0.4-1.4c0-0.5,0.1-1,0.3-1.4
			c0.2-0.4,0.5-0.7,0.9-1c0.4-0.2,0.8-0.4,1.4-0.4c0.5,0,0.9,0.1,1.3,0.3c0.4,0.2,0.6,0.5,0.8,0.9c0.2,0.4,0.3,0.8,0.3,1.3
			c0,0.2,0,0.4,0,0.6h-3.6c0.2,0.8,0.7,1.1,1.7,1.1c0.3,0,0.6,0,0.9-0.1c0.3-0.1,0.5-0.2,0.8-0.3l0.1,1.1c-0.2,0.1-0.5,0.2-0.9,0.3
			S141.9,227.9,141.5,227.9z M142.2,224.7c0-0.4-0.1-0.6-0.3-0.8c-0.2-0.2-0.5-0.3-0.8-0.3c-0.3,0-0.6,0.1-0.8,0.3
			c-0.2,0.2-0.3,0.5-0.4,0.8H142.2z"/>
		<path class="st6" d="M145.3,222.7h1.3l0,0.8c0.1-0.3,0.3-0.5,0.6-0.7c0.2-0.2,0.5-0.2,0.8-0.2c0.2,0,0.4,0,0.6,0.1l-0.1,1.3
			c-0.2-0.1-0.4-0.1-0.6-0.1c-0.4,0-0.7,0.1-0.9,0.4c-0.2,0.3-0.3,0.7-0.3,1.1v2.3h-1.4V222.7z"/>
		<path class="st6" d="M151.6,227.9c-0.4,0-0.7,0-1.1-0.1s-0.6-0.2-0.8-0.4l0.2-1.1c0.2,0.2,0.5,0.3,0.8,0.4
			c0.3,0.1,0.6,0.1,0.9,0.1c0.6,0,0.8-0.1,0.8-0.4c0-0.2-0.1-0.3-0.2-0.3c-0.1-0.1-0.4-0.2-0.7-0.3c-0.6-0.2-1-0.4-1.3-0.6
			c-0.3-0.3-0.4-0.6-0.4-1c0-0.5,0.2-0.9,0.5-1.1c0.4-0.3,0.9-0.4,1.5-0.4c0.3,0,0.6,0,0.9,0.1c0.3,0.1,0.6,0.2,0.8,0.3l-0.2,1.1
			c-0.2-0.1-0.4-0.2-0.7-0.3c-0.3-0.1-0.5-0.1-0.8-0.1c-0.5,0-0.7,0.1-0.7,0.4c0,0.1,0.1,0.3,0.2,0.3s0.3,0.2,0.7,0.3
			c0.6,0.2,1.1,0.4,1.3,0.7c0.3,0.3,0.4,0.6,0.4,1c0,0.5-0.2,0.9-0.6,1.1C152.8,227.8,152.3,227.9,151.6,227.9z"/>
		<path class="st6" d="M158.1,227.9c-0.6,0-1.1-0.1-1.5-0.3c-0.4-0.2-0.8-0.5-1-0.9c-0.2-0.4-0.4-0.9-0.4-1.4c0-0.5,0.1-1,0.3-1.4
			c0.2-0.4,0.5-0.7,0.9-1c0.4-0.2,0.8-0.4,1.4-0.4c0.5,0,0.9,0.1,1.3,0.3c0.4,0.2,0.6,0.5,0.8,0.9c0.2,0.4,0.3,0.8,0.3,1.3
			c0,0.2,0,0.4,0,0.6h-3.6c0.2,0.8,0.7,1.1,1.7,1.1c0.3,0,0.6,0,0.9-0.1c0.3-0.1,0.5-0.2,0.8-0.3l0.1,1.1c-0.2,0.1-0.5,0.2-0.9,0.3
			C158.8,227.9,158.5,227.9,158.1,227.9z M158.8,224.7c0-0.4-0.1-0.6-0.3-0.8c-0.2-0.2-0.5-0.3-0.8-0.3c-0.3,0-0.6,0.1-0.8,0.3
			c-0.2,0.2-0.3,0.5-0.4,0.8H158.8z"/>
	</g>
</g>
<g>
	<g>
		<path class="st7" d="M122.6,111c0,2.5-2.2,4.1-6.1,4.1c-1.4,0-2.7-0.3-3.9-0.8l0.8-4.4h0l2.5,4.8c0.1,0,0.2,0.1,0.4,0.1
			c1.1,0,2-1.2,2-3.4c0-1.9-1.3-3.4-3.4-3.4v-0.2c2,0,2.7-1.1,2.7-3.5c0-1.7-0.5-2.8-1.4-2.8c-0.1,0-0.3,0-0.4,0.1l-1.9,4.8h0
			l-1.6-4c1.4-0.8,2.9-1.2,4.6-1.2c3.1,0,5,1.3,5,3.1c0,1.7-1.7,3-4,3.4C120.7,107.9,122.6,109.2,122.6,111z"/>
		<path class="st7" d="M129.4,105.3c0-2.3,1.3-4.1,3.8-4.1c2.4,0,3.8,1.8,3.8,4.1c0,2.3-1.3,4.2-3.8,4.2
			C130.8,109.5,129.4,107.6,129.4,105.3z M134.1,105.3c0-2.6-0.2-3.9-0.9-3.9c-0.7,0-0.9,1.3-0.9,3.9c0,2.6,0.2,4,0.9,4
			C133.9,109.3,134.1,107.9,134.1,105.3z M141,101.5h0.8l-7.3,13.2h-0.7L141,101.5z M138.5,110.9c0-2.3,1.3-4.1,3.8-4.1
			c2.4,0,3.8,1.8,3.8,4.1c0,2.3-1.3,4.2-3.8,4.2C139.8,115.1,138.5,113.2,138.5,110.9z M143.1,110.9c0-2.6-0.2-3.9-0.9-3.9
			c-0.7,0-0.9,1.3-0.9,3.9c0,2.6,0.2,4,0.9,4C142.9,114.8,143.1,113.5,143.1,110.9z"/>
	</g>
</g>
<rect x="132.7" y="174.4" class="st6" width="0.3" height="37.9"/>
</svg>
