<!-- Generator: Adobe Illustrator 25.3.1, SVG Export Plug-In . SVG Version: 6.00 Build 0)  -->
<svg version="1.1" id="Calque_1 first" xmlns="http://www.w3.org/2000/svg" xmlns:xlink="http://www.w3.org/1999/xlink" x="0px" y="0px"
	 viewBox="0 0 280.2 261.3" style="enable-background:new 0 0 280.2 261.3;" xml:space="preserve">
<style type="text/css">
	.st0{fill:#C4F7C9;}
	.st1{fill:#A2EFAC;}
	.st2{fill:#8F4FEB;}
	.st3{fill:#D9C4F7;}
	.st4{fill:#B691F0;}
	.st5{fill:#44E559;}
	.st6{fill:#FFFFFF;}
	.st7{fill:#8B50E7;}
</style>
<g>
	<path class="st0" d="M140.1,81.6V56.8c-0.8,0-1.8,0-2.5,0l0.9,24.9C139,81.6,139.6,81.6,140.1,81.6z"/>
	<path class="st1" d="M138.5,81.7l-0.9-24.9c-3.2,0.1-5.7,0.4-8.8,0.8l3.9,24.6C134.6,81.9,136.5,81.7,138.5,81.7z"/>
	<path class="st2" d="M92.7,129.1c0-23.7,17.3-43.3,40-46.8l-3.9-24.6c-28,4.4-49.5,23.1-57.8,50.3c-11.7,38.2,9.8,78.6,48,90.3
		l7.3-23.8C106.8,168.5,92.7,150.4,92.7,129.1z"/>
	<path class="st3" d="M126.2,174.4l-7.3,23.8c6.1,1.9,12.3,2.9,18.6,3.1l0.9-24.9C134.2,176.3,130.1,175.6,126.2,174.4z"/>
	<path class="st4" d="M140.1,176.5c-0.6,0-1.1,0-1.7,0l-0.9,24.9c4.7,0.2,9.1-0.1,13.8-0.8l-3.9-24.6
		C145.1,176.3,142.6,176.5,140.1,176.5z"/>
	<path class="st5" d="M140.1,56.8v24.9c26.2,0,47.4,21.2,47.4,47.4c0,23.7-17.3,43.3-40,46.8l3.9,24.6c35.9-5.7,61-35.1,61-71.4
		C212.4,89.1,180,56.8,140.1,56.8z"/>
	<path class="st6" d="M140.1,81.6c-0.6,0-1.1,0-1.7,0c-2,0.1-3.9,0.3-5.8,0.5c-22.7,3.6-40,23.2-40,46.8c0,21.4,14.1,39.4,33.6,45.4
		c3.9,1.2,8,1.9,12.2,2c0.5,0,1.1,0,1.7,0c2.5,0,5-0.2,7.4-0.6c22.7-3.6,40-23.2,40-46.8C187.5,102.9,166.3,81.6,140.1,81.6z"/>
</g>
<g>
	<g>
		<path class="st7" d="M121.5,125.5c-0.4,0-0.7,0-1.1-0.1c-0.3-0.1-0.6-0.2-0.8-0.4l0.2-1.1c0.2,0.2,0.5,0.3,0.8,0.4
			c0.3,0.1,0.6,0.1,0.9,0.1c0.6,0,0.8-0.1,0.8-0.4c0-0.2-0.1-0.3-0.2-0.3c-0.1-0.1-0.4-0.2-0.7-0.3c-0.6-0.2-1-0.4-1.3-0.6
			c-0.3-0.3-0.4-0.6-0.4-1c0-0.5,0.2-0.9,0.5-1.1c0.4-0.3,0.9-0.4,1.5-0.4c0.3,0,0.6,0,0.9,0.1c0.3,0.1,0.6,0.2,0.8,0.3l-0.2,1.1
			c-0.2-0.1-0.4-0.2-0.7-0.3c-0.3-0.1-0.5-0.1-0.8-0.1c-0.5,0-0.7,0.1-0.7,0.4c0,0.1,0.1,0.3,0.2,0.3c0.1,0.1,0.3,0.2,0.7,0.3
			c0.6,0.2,1.1,0.4,1.3,0.7c0.3,0.3,0.4,0.6,0.4,1c0,0.5-0.2,0.9-0.6,1.2C122.7,125.4,122.2,125.5,121.5,125.5z"/>
		<path class="st7" d="M128,125.5c-0.6,0-1.1-0.1-1.5-0.3c-0.4-0.2-0.8-0.5-1-0.9c-0.2-0.4-0.4-0.9-0.4-1.4c0-0.5,0.1-1,0.3-1.4
			c0.2-0.4,0.5-0.7,0.9-1c0.4-0.2,0.8-0.4,1.4-0.4c0.5,0,0.9,0.1,1.3,0.3c0.4,0.2,0.6,0.5,0.8,0.9c0.2,0.4,0.3,0.8,0.3,1.3
			c0,0.2,0,0.4,0,0.6h-3.6c0.2,0.8,0.7,1.1,1.7,1.1c0.3,0,0.6,0,0.9-0.1c0.3-0.1,0.5-0.2,0.8-0.3l0.1,1.1c-0.2,0.1-0.5,0.2-0.9,0.3
			C128.7,125.5,128.4,125.5,128,125.5z M128.7,122.3c0-0.4-0.1-0.6-0.3-0.8c-0.2-0.2-0.5-0.3-0.8-0.3c-0.3,0-0.6,0.1-0.8,0.3
			c-0.2,0.2-0.3,0.5-0.4,0.8H128.7z"/>
		<path class="st7" d="M131.8,117.3h1.4v8.1h-1.4V117.3z"/>
		<path class="st7" d="M137.8,125.5c-0.6,0-1.1-0.1-1.5-0.3c-0.4-0.2-0.8-0.5-1-0.9c-0.2-0.4-0.4-0.9-0.4-1.4c0-0.5,0.1-1,0.3-1.4
			c0.2-0.4,0.5-0.7,0.9-1c0.4-0.2,0.8-0.4,1.4-0.4c0.5,0,0.9,0.1,1.3,0.3c0.4,0.2,0.6,0.5,0.8,0.9c0.2,0.4,0.3,0.8,0.3,1.3
			c0,0.2,0,0.4,0,0.6h-3.6c0.2,0.8,0.7,1.1,1.7,1.1c0.3,0,0.6,0,0.9-0.1c0.3-0.1,0.5-0.2,0.8-0.3l0.1,1.1c-0.2,0.1-0.5,0.2-0.9,0.3
			C138.5,125.5,138.2,125.5,137.8,125.5z M138.5,122.3c0-0.4-0.1-0.6-0.3-0.8c-0.2-0.2-0.5-0.3-0.8-0.3c-0.3,0-0.6,0.1-0.8,0.3
			c-0.2,0.2-0.3,0.5-0.4,0.8H138.5z"/>
		<path class="st7" d="M144.2,125.5c-0.6,0-1-0.1-1.5-0.3c-0.4-0.2-0.7-0.5-1-0.9c-0.2-0.4-0.3-0.9-0.3-1.4c0-0.5,0.1-1,0.3-1.4
			c0.2-0.4,0.5-0.7,1-1c0.4-0.2,0.9-0.3,1.5-0.3c0.3,0,0.6,0,0.9,0.1c0.3,0.1,0.5,0.2,0.7,0.3l-0.2,1.2c-0.4-0.2-0.9-0.3-1.3-0.3
			c-0.5,0-0.8,0.1-1.1,0.4c-0.3,0.3-0.4,0.6-0.4,1c0,0.5,0.1,0.8,0.4,1.1s0.7,0.4,1.1,0.4c0.4,0,0.9-0.1,1.4-0.3l0.1,1.1
			c-0.2,0.1-0.5,0.2-0.8,0.3C144.8,125.5,144.5,125.5,144.2,125.5z"/>
		<path class="st7" d="M148.2,121.5h-1v-1.1h1V119h1.4v1.4h1.2v1.1h-1.2v3.9h-1.4V121.5z"/>
		<path class="st7" d="M122,136.6c-0.4,0-0.8-0.1-1.2-0.3c-0.4-0.2-0.6-0.5-0.8-0.9c-0.2-0.4-0.3-0.9-0.3-1.4c0-0.5,0.1-0.9,0.3-1.3
			c0.2-0.4,0.5-0.7,0.9-1c0.4-0.2,0.8-0.4,1.3-0.4c0.3,0,0.7,0.1,0.9,0.2c0.3,0.1,0.5,0.3,0.7,0.6l0-0.7h1.3v5.1h-1.3l0-0.6
			c-0.2,0.3-0.4,0.5-0.7,0.6C122.7,136.5,122.4,136.6,122,136.6z M122.4,135.4c0.4,0,0.7-0.1,1-0.4c0.3-0.3,0.4-0.6,0.4-1.1
			c0-0.4-0.1-0.8-0.4-1c-0.2-0.3-0.6-0.4-1-0.4c-0.4,0-0.7,0.1-1,0.4c-0.2,0.3-0.4,0.6-0.4,1c0,0.4,0.1,0.8,0.4,1.1
			S122,135.4,122.4,135.4z"/>
		<path class="st7" d="M131.2,136.6c-0.4,0-0.7,0-1.1-0.1c-0.3-0.1-0.6-0.2-0.8-0.4l0.2-1.1c0.2,0.2,0.5,0.3,0.8,0.4
			c0.3,0.1,0.6,0.1,0.9,0.1c0.6,0,0.8-0.1,0.8-0.4c0-0.2-0.1-0.3-0.2-0.3c-0.1-0.1-0.4-0.2-0.7-0.3c-0.6-0.2-1-0.4-1.3-0.6
			c-0.3-0.3-0.4-0.6-0.4-1c0-0.5,0.2-0.9,0.5-1.1c0.4-0.3,0.9-0.4,1.5-0.4c0.3,0,0.6,0,0.9,0.1c0.3,0.1,0.6,0.2,0.8,0.3l-0.2,1.1
			c-0.2-0.1-0.4-0.2-0.7-0.3c-0.3-0.1-0.5-0.1-0.8-0.1c-0.5,0-0.7,0.1-0.7,0.4c0,0.1,0.1,0.3,0.2,0.3c0.1,0.1,0.3,0.2,0.7,0.3
			c0.6,0.2,1.1,0.4,1.3,0.7c0.3,0.3,0.4,0.6,0.4,1c0,0.5-0.2,0.9-0.6,1.2C132.4,136.4,131.9,136.6,131.2,136.6z"/>
		<path class="st7" d="M137.7,136.6c-0.6,0-1.1-0.1-1.5-0.3c-0.4-0.2-0.8-0.5-1-0.9c-0.2-0.4-0.4-0.9-0.4-1.4c0-0.5,0.1-1,0.3-1.4
			c0.2-0.4,0.5-0.7,0.9-1c0.4-0.2,0.8-0.4,1.4-0.4c0.5,0,0.9,0.1,1.3,0.3c0.4,0.2,0.6,0.5,0.8,0.9c0.2,0.4,0.3,0.8,0.3,1.3
			c0,0.2,0,0.4,0,0.6h-3.6c0.2,0.8,0.7,1.1,1.7,1.1c0.3,0,0.6,0,0.9-0.1c0.3-0.1,0.5-0.2,0.8-0.3l0.1,1.1c-0.2,0.1-0.5,0.2-0.9,0.3
			C138.4,136.6,138.1,136.6,137.7,136.6z M138.4,133.4c0-0.4-0.1-0.6-0.3-0.8c-0.2-0.2-0.5-0.3-0.8-0.3c-0.3,0-0.6,0.1-0.8,0.3
			c-0.2,0.2-0.3,0.5-0.4,0.8H138.4z"/>
		<path class="st7" d="M144.1,136.6c-0.6,0-1-0.1-1.5-0.3c-0.4-0.2-0.7-0.5-1-0.9c-0.2-0.4-0.3-0.9-0.3-1.4c0-0.5,0.1-1,0.3-1.4
			c0.2-0.4,0.5-0.7,1-1c0.4-0.2,0.9-0.3,1.5-0.3c0.3,0,0.6,0,0.9,0.1c0.3,0.1,0.5,0.2,0.7,0.3l-0.2,1.2c-0.4-0.2-0.9-0.3-1.3-0.3
			c-0.5,0-0.8,0.1-1.1,0.4c-0.3,0.3-0.4,0.6-0.4,1c0,0.5,0.1,0.8,0.4,1.1s0.7,0.4,1.1,0.4c0.4,0,0.9-0.1,1.4-0.3l0.1,1.1
			c-0.2,0.1-0.5,0.2-0.8,0.3C144.7,136.5,144.4,136.6,144.1,136.6z"/>
		<path class="st7" d="M148.1,132.5h-1v-1.1h1V130h1.4v1.4h1.2v1.1h-1.2v3.9h-1.4V132.5z"/>
		<path class="st7" d="M152.9,130.3c-0.2,0-0.4-0.1-0.6-0.2c-0.2-0.2-0.2-0.3-0.2-0.6c0-0.2,0.1-0.4,0.2-0.6
			c0.2-0.2,0.4-0.2,0.6-0.2s0.4,0.1,0.6,0.2c0.2,0.2,0.2,0.3,0.2,0.6c0,0.2-0.1,0.4-0.2,0.6C153.4,130.3,153.2,130.3,152.9,130.3z
			 M152.2,131.4h1.4v5.1h-1.4V131.4z"/>
		<path class="st7" d="M158,136.6c-0.5,0-1-0.1-1.4-0.3c-0.4-0.2-0.7-0.5-1-1c-0.2-0.4-0.4-0.9-0.4-1.4c0-0.5,0.1-0.9,0.3-1.3
			c0.2-0.4,0.6-0.7,1-1c0.4-0.2,0.9-0.4,1.4-0.4c0.5,0,1,0.1,1.4,0.3s0.7,0.5,1,0.9s0.4,0.9,0.4,1.4c0,0.5-0.1,0.9-0.3,1.3
			c-0.2,0.4-0.6,0.7-1,1C159,136.5,158.6,136.6,158,136.6z M158,135.4c0.4,0,0.7-0.1,1-0.4s0.4-0.6,0.4-1.1c0-0.4-0.1-0.8-0.4-1
			c-0.2-0.3-0.6-0.4-1-0.4c-0.4,0-0.7,0.1-1,0.4c-0.2,0.3-0.4,0.6-0.4,1c0,0.4,0.1,0.8,0.4,1.1C157.3,135.2,157.6,135.4,158,135.4z"
			/>
		<path class="st7" d="M162.4,131.4h1.3l0,0.6c0.1-0.3,0.3-0.4,0.6-0.6c0.3-0.1,0.6-0.2,0.9-0.2c0.6,0,1.1,0.2,1.4,0.6
			c0.3,0.4,0.5,0.9,0.5,1.6v3.1h-1.4v-2.8c0-0.8-0.3-1.2-0.9-1.2c-0.3,0-0.6,0.1-0.8,0.3c-0.2,0.2-0.3,0.5-0.3,0.9v2.7h-1.4V131.4z"
			/>
	</g>
</g>
</svg>
