<svg id='SPORTS' mobilanim="none" width="145px" height="193px" viewBox="0 0 145 193" version="1.1" xmlns="http://www.w3.org/2000/svg" xmlns:xlink="http://www.w3.org/1999/xlink">
    <title>INFOGRAPHIE_2.7</title>
    <g id="Welcome" stroke="none" stroke-width="1" fill="none" fill-rule="evenodd">
        <g id="INFOGRAPHIE_2.7" fill-rule="nonzero">
            <g id="Group">
                <path d="M72.1993644,24.6 C71.5955508,24.6 71.0923729,24.6 70.5891949,24.6 C68.6771186,24.7027542 66.6644068,24.8055085 64.8529661,25.1137712 C42.109322,28.7101695 24.8,48.85 24.8,73.1 C24.8,94.9866525 38.9896186,113.482415 58.4122881,119.544915 C62.3370763,120.777966 66.3625,121.497246 70.6898305,121.6 C71.1930085,121.6 71.796822,121.6 72.3,121.6 C74.8158898,121.6 77.3317797,121.394492 79.7470339,120.983475 C102.490678,117.387076 119.8,97.2472458 119.8,72.9972458 C119.8,46.3838983 98.4652542,24.6 72.1993644,24.6 Z" id="Path" fill="#D9C4F7"></path>
                <path d="M72.5,25.6 L72.5,0.9 C71.7,0.9 70.7,0.9 70,0.9 L70.9,25.7 C71.4,25.7 72,25.6 72.5,25.6 Z" id="Path" fill="#C4F7C9"></path>
                <path d="M70.9,25.7 L70,0.9 C66.9,1 64.4,1.3 61.2,1.7 L65.1,26.2 C67,25.9 69,25.7 70.9,25.7 Z" id="Path" fill="#BAEDAD"></path>
                <path d="M25.3,72.9 C25.3,49.3 42.6,29.8 65.1,26.2 L61.2,1.7 C33.3,6.1 11.9,24.7 3.6,51.8 C-8,89.8 13.4,130.1 51.4,141.7 L58.6,118 C39.4,112.1 25.3,94.2 25.3,72.9 Z" id="Path" fill="#8F4FEB"></path>
                <path d="M58.7,118.1 L51.5,141.8 C57.5,143.6 63.7,144.7 70,144.9 L70.9,120.1 C66.7,119.9 62.6,119.2 58.7,118.1 Z" id="Path" fill="#D9C4F7"></path>
                <path d="M72.5,120.1 C71.9,120.1 71.4,120.1 70.9,120.1 L70,144.9 C74.7,145.1 79.1,144.8 83.8,144.1 L79.9,119.6 C77.5,119.9 75.1,120.1 72.5,120.1 Z" id="Path" fill="#B691F0"></path>
                <path d="M72.5,0.9 L72.5,25.7 C98.6,25.7 119.7,46.8 119.7,72.9 C119.7,96.5 102.4,116 79.9,119.6 L83.8,144.1 C119.5,138.4 144.5,109.2 144.5,73 C144.5,33.1 112.3,0.9 72.5,0.9 Z" id="Path" fill="#44E559"></path>
            </g>
            <g id="Group" transform="translate(46.000000, 183.000000)" fill="#8F4FEB">
                <path d="M2.4,6.7 C2,6.7 1.7,6.7 1.3,6.6 C1,6.5 0.7,6.4 0.5,6.2 L0.7,5.1 C0.9,5.3 1.2,5.4 1.5,5.5 C1.8,5.6 2.1,5.6 2.4,5.6 C3,5.6 3.2,5.5 3.2,5.2 C3.2,5 3.1,4.9 3,4.9 C2.9,4.8 2.6,4.7 2.3,4.6 C1.7,4.4 1.3,4.2 1,4 C0.7,3.7 0.6,3.4 0.6,3 C0.6,2.5 0.8,2.1 1.1,1.9 C1.5,1.6 2,1.5 2.6,1.5 C2.9,1.5 3.2,1.5 3.5,1.6 C3.8,1.7 4.1,1.8 4.3,1.9 L4.1,3 C3.9,2.9 3.7,2.8 3.4,2.7 C3.1,2.6 2.9,2.6 2.6,2.6 C2.1,2.6 1.9,2.7 1.9,3 C1.9,3.1 2,3.3 2.1,3.3 C2.2,3.4 2.4,3.5 2.8,3.6 C3.4,3.8 3.9,4 4.1,4.3 C4.4,4.6 4.5,4.9 4.5,5.3 C4.5,5.8 4.3,6.2 3.9,6.4 C3.6,6.6 3,6.7 2.4,6.7 Z" id="Path"></path>
                <path d="M6.2,1.5 L7.5,1.5 L7.5,2.2 C7.8,1.7 8.4,1.4 9.2,1.4 C9.6,1.4 10,1.5 10.4,1.7 C10.8,1.9 11,2.2 11.2,2.6 C11.4,3 11.5,3.5 11.5,4 C11.5,4.5 11.4,4.9 11.2,5.3 C11,5.7 10.7,6 10.3,6.3 C9.9,6.5 9.5,6.7 9.1,6.7 C8.8,6.7 8.5,6.6 8.2,6.5 C7.9,6.4 7.7,6.2 7.5,6 L7.5,9 L6.1,9 L6.1,1.5 L6.2,1.5 Z M8.8,5.5 C9.2,5.5 9.5,5.4 9.8,5.1 C10,4.8 10.2,4.5 10.2,4.1 C10.2,3.7 10.1,3.3 9.8,3.1 C9.5,2.8 9.2,2.7 8.8,2.7 C8.4,2.7 8.1,2.8 7.8,3.1 C7.5,3.4 7.4,3.7 7.4,4.1 C7.4,4.5 7.5,4.9 7.8,5.1 C8.1,5.4 8.4,5.5 8.8,5.5 Z" id="Shape"></path>
                <path d="M15.7,6.7 C15.2,6.7 14.8,6.6 14.3,6.4 C13.9,6.2 13.6,5.9 13.3,5.4 C13,4.9 12.9,4.5 12.9,4 C12.9,3.5 13,3.1 13.2,2.7 C13.4,2.3 13.7,2 14.2,1.7 C14.6,1.5 15.1,1.3 15.6,1.3 C16.1,1.3 16.5,1.4 17,1.6 C17.4,1.8 17.7,2.1 18,2.5 C18.2,2.9 18.4,3.4 18.4,3.9 C18.4,4.4 18.3,4.8 18.1,5.2 C17.9,5.6 17.6,5.9 17.1,6.2 C16.7,6.6 16.2,6.7 15.7,6.7 Z M15.7,5.5 C16.1,5.5 16.4,5.4 16.7,5.1 C17,4.8 17.1,4.5 17.1,4.1 C17.1,3.7 17,3.3 16.7,3.1 C16.5,2.8 16.1,2.7 15.7,2.7 C15.3,2.7 15,2.8 14.7,3.1 C14.5,3.4 14.3,3.7 14.3,4.1 C14.3,4.5 14.4,4.9 14.7,5.1 C15,5.4 15.3,5.5 15.7,5.5 Z" id="Shape"></path>
                <path d="M20.1,1.5 L21.4,1.5 L21.4,2.3 C21.5,2 21.7,1.8 22,1.6 C22.2,1.4 22.5,1.4 22.8,1.4 C23,1.4 23.2,1.4 23.4,1.5 L23.3,2.8 C23.1,2.7 22.9,2.7 22.7,2.7 C22.3,2.7 22,2.8 21.8,3.1 C21.6,3.4 21.5,3.8 21.5,4.2 L21.5,6.5 L20.1,6.5 L20.1,1.5 L20.1,1.5 Z" id="Path"></path>
                <polygon id="Path" points="25.4 2.7 24.4 2.7 24.4 1.6 25.4 1.6 25.4 0.2 26.8 0.2 26.8 1.6 28 1.6 28 2.7 26.8 2.7 26.8 6.6 25.4 6.6"></polygon>
                <path d="M31.1,6.7 C30.7,6.7 30.4,6.7 30,6.6 C29.7,6.5 29.4,6.4 29.2,6.2 L29.4,5.1 C29.6,5.3 29.9,5.4 30.2,5.5 C30.5,5.6 30.8,5.6 31.1,5.6 C31.7,5.6 31.9,5.5 31.9,5.2 C31.9,5 31.8,4.9 31.7,4.9 C31.6,4.8 31.3,4.7 31,4.6 C30.4,4.4 30,4.2 29.7,4 C29.4,3.7 29.3,3.4 29.3,3 C29.3,2.5 29.5,2.1 29.8,1.9 C30.2,1.6 30.7,1.5 31.3,1.5 C31.6,1.5 31.9,1.5 32.2,1.6 C32.5,1.7 32.8,1.8 33,1.9 L32.8,3 C32.6,2.9 32.4,2.8 32.1,2.7 C31.8,2.6 31.6,2.6 31.3,2.6 C30.8,2.6 30.6,2.7 30.6,3 C30.6,3.1 30.7,3.3 30.8,3.3 C30.9,3.4 31.1,3.5 31.5,3.6 C32.1,3.8 32.6,4 32.8,4.3 C33.1,4.6 33.2,4.9 33.2,5.3 C33.2,5.8 33,6.2 32.6,6.4 C32.3,6.6 31.8,6.7 31.1,6.7 Z" id="Path"></path>
            </g>
            <g id="Group" transform="translate(56.000000, 63.000000)" fill="#7D51E1">
                <path d="M9.2,10.9 L9.2,13.4 L10.8,13.4 L10.8,13.7 L4.1,13.7 L4.1,13.4 L5.2,13.4 L5.2,10.9 L0.3,10.9 L0.3,10.5 C2.2,8.7 3.9,3.9 4.1,0.4 L9.3,0.4 C7.8,4 5.5,6.7 0.7,10.5 L5.1,10.5 L5.1,8 L9.1,6.6 L9.1,10.5 L10.8,10.5 L10.8,10.9 L9.2,10.9 Z" id="Path"></path>
                <path d="M17.7,4.3 C17.7,2 19,0.2 21.5,0.2 C23.9,0.2 25.3,2 25.3,4.3 C25.3,6.6 24,8.5 21.5,8.5 C19,8.5 17.7,6.6 17.7,4.3 Z M22.3,4.3 C22.3,1.7 22.1,0.4 21.4,0.4 C20.7,0.4 20.5,1.7 20.5,4.2 C20.5,6.8 20.7,8.2 21.4,8.2 C22.1,8.2 22.3,6.9 22.3,4.3 Z M29.2,0.5 L30,0.5 L22.7,13.7 L22,13.7 L29.2,0.5 Z M26.7,9.8 C26.7,7.5 28,5.7 30.5,5.7 C32.9,5.7 34.3,7.5 34.3,9.8 C34.3,12.1 33,14 30.5,14 C28.1,14.1 26.7,12.2 26.7,9.8 Z M31.4,9.8 C31.4,7.2 31.2,5.9 30.5,5.9 C29.8,5.9 29.6,7.2 29.6,9.7 C29.6,12.3 29.8,13.7 30.5,13.7 C31.2,13.8 31.4,12.4 31.4,9.8 Z" id="Shape"></path>
            </g>
            <rect id="Rectangle" fill="#8F4FEB" x="62.8" y="136.3" width="1" height="37.9"></rect>
        </g>
    </g>
</svg>