<!-- Generator: Adobe Illustrator 25.3.1, SVG Export Plug-In . SVG Version: 6.00 Build 0)  -->
<svg version="1.1" id="Calque_1 seventh" xmlns="http://www.w3.org/2000/svg" xmlns:xlink="http://www.w3.org/1999/xlink" x="0px" y="0px"
	 viewBox="0 0 280.2 261.3" style="enable-background:new 0 0 280.2 261.3;" xml:space="preserve">
<style type="text/css">
	.st0{fill:#C4F7C9;}
	.st1{fill:#BAEDAD;}
	.st2{fill:#8F4FEB;}
	.st3{fill:#D9C4F7;}
	.st4{fill:#B691F0;}
	.st5{fill:#44E559;}
	.st6{fill:#7D51E1;}
</style>
<g>
	<path class="st0" d="M128.5,63.6V38.9c-0.8,0-1.8,0-2.5,0l0.9,24.8C127.4,63.7,128,63.6,128.5,63.6z"/>
	<path class="st1" d="M126.9,63.7L126,38.9c-3.1,0.1-5.6,0.4-8.8,0.8l3.9,24.5C123,63.9,125,63.7,126.9,63.7z"/>
	<path class="st2" d="M81.3,110.9c0-23.6,17.3-43.1,39.8-46.7l-3.9-24.5c-27.9,4.4-49.3,23-57.6,50.1c-11.6,38,9.8,78.3,47.8,89.9
		l7.2-23.7C95.4,150.1,81.3,132.2,81.3,110.9z"/>
	<path class="st3" d="M114.7,156.1l-7.2,23.7c6,1.8,12.2,2.9,18.5,3.1l0.9-24.8C122.7,157.9,118.6,157.2,114.7,156.1z"/>
	<path class="st4" d="M128.5,158.1c-0.6,0-1.1,0-1.6,0l-0.9,24.8c4.7,0.2,9.1-0.1,13.8-0.8l-3.9-24.5
		C133.5,157.9,131.1,158.1,128.5,158.1z"/>
	<path class="st5" d="M128.5,38.9v24.8c26.1,0,47.2,21.1,47.2,47.2c0,23.6-17.3,43.1-39.8,46.7l3.9,24.5
		c35.7-5.7,60.7-34.9,60.7-71.1C200.5,71.1,168.3,38.9,128.5,38.9z"/>
	<path class="st3" d="M128.5,63.6c-0.6,0-1.1,0-1.6,0c-1.9,0.1-3.9,0.2-5.7,0.5c-22.6,3.5-39.8,23.1-39.8,46.7
		c0,21.3,14.1,39.3,33.4,45.2c3.9,1.2,7.9,1.9,12.2,2c0.5,0,1.1,0,1.6,0c2.5,0,5-0.2,7.4-0.6c22.6-3.5,39.8-23.1,39.8-46.7
		C175.8,84.8,154.6,63.6,128.5,63.6z"/>
</g>
<g>
	<path class="st2" d="M104.4,227.7c-0.4,0-0.7,0-1.1-0.1c-0.3-0.1-0.6-0.2-0.8-0.4l0.2-1.1c0.2,0.2,0.5,0.3,0.8,0.4
		c0.3,0.1,0.6,0.1,0.9,0.1c0.6,0,0.8-0.1,0.8-0.4c0-0.2-0.1-0.3-0.2-0.3c-0.1-0.1-0.4-0.2-0.7-0.3c-0.6-0.2-1-0.4-1.3-0.6
		c-0.3-0.3-0.4-0.6-0.4-1c0-0.5,0.2-0.9,0.5-1.1c0.4-0.3,0.9-0.4,1.5-0.4c0.3,0,0.6,0,0.9,0.1c0.3,0.1,0.6,0.2,0.8,0.3l-0.2,1.1
		c-0.2-0.1-0.4-0.2-0.7-0.3c-0.3-0.1-0.5-0.1-0.8-0.1c-0.5,0-0.7,0.1-0.7,0.4c0,0.1,0.1,0.3,0.2,0.3c0.1,0.1,0.3,0.2,0.7,0.3
		c0.6,0.2,1.1,0.4,1.3,0.7c0.3,0.3,0.4,0.6,0.4,1c0,0.5-0.2,0.9-0.6,1.1C105.6,227.6,105,227.7,104.4,227.7z"/>
	<path class="st2" d="M108.2,222.5h1.3l0,0.7c0.3-0.5,0.9-0.8,1.7-0.8c0.4,0,0.8,0.1,1.2,0.3s0.6,0.5,0.8,0.9
		c0.2,0.4,0.3,0.9,0.3,1.4c0,0.5-0.1,0.9-0.3,1.3c-0.2,0.4-0.5,0.7-0.9,1c-0.4,0.2-0.8,0.4-1.2,0.4c-0.3,0-0.6-0.1-0.9-0.2
		c-0.3-0.1-0.5-0.3-0.7-0.5v3h-1.4V222.5z M110.8,226.5c0.4,0,0.7-0.1,1-0.4c0.2-0.3,0.4-0.6,0.4-1c0-0.4-0.1-0.8-0.4-1
		c-0.3-0.3-0.6-0.4-1-0.4c-0.4,0-0.7,0.1-1,0.4c-0.3,0.3-0.4,0.6-0.4,1c0,0.4,0.1,0.8,0.4,1C110.1,226.4,110.4,226.5,110.8,226.5z"
		/>
	<path class="st2" d="M117.7,227.7c-0.5,0-0.9-0.1-1.4-0.3c-0.4-0.2-0.7-0.5-1-1s-0.4-0.9-0.4-1.4c0-0.5,0.1-0.9,0.3-1.3
		c0.2-0.4,0.5-0.7,1-1c0.4-0.2,0.9-0.4,1.4-0.4c0.5,0,0.9,0.1,1.4,0.3c0.4,0.2,0.7,0.5,1,0.9c0.2,0.4,0.4,0.9,0.4,1.4
		c0,0.5-0.1,0.9-0.3,1.3c-0.2,0.4-0.5,0.7-1,1C118.7,227.6,118.2,227.7,117.7,227.7z M117.7,226.5c0.4,0,0.7-0.1,1-0.4
		c0.3-0.3,0.4-0.6,0.4-1c0-0.4-0.1-0.8-0.4-1c-0.2-0.3-0.6-0.4-1-0.4c-0.4,0-0.7,0.1-1,0.4c-0.2,0.3-0.4,0.6-0.4,1
		c0,0.4,0.1,0.8,0.4,1C117,226.4,117.3,226.5,117.7,226.5z"/>
	<path class="st2" d="M122.1,222.5h1.3l0,0.8c0.1-0.3,0.3-0.5,0.6-0.7c0.2-0.2,0.5-0.2,0.8-0.2c0.2,0,0.4,0,0.6,0.1l-0.1,1.3
		c-0.2-0.1-0.4-0.1-0.6-0.1c-0.4,0-0.7,0.1-0.9,0.4c-0.2,0.3-0.3,0.7-0.3,1.1v2.3h-1.4V222.5z"/>
	<path class="st2" d="M127.4,223.7h-1v-1.1h1v-1.4h1.4v1.4h1.2v1.1h-1.2v3.9h-1.4V223.7z"/>
	<path class="st2" d="M133.1,227.7c-0.4,0-0.7,0-1.1-0.1c-0.3-0.1-0.6-0.2-0.8-0.4l0.2-1.1c0.2,0.2,0.5,0.3,0.8,0.4
		c0.3,0.1,0.6,0.1,0.9,0.1c0.6,0,0.8-0.1,0.8-0.4c0-0.2-0.1-0.3-0.2-0.3c-0.1-0.1-0.4-0.2-0.7-0.3c-0.6-0.2-1-0.4-1.3-0.6
		c-0.3-0.3-0.4-0.6-0.4-1c0-0.5,0.2-0.9,0.5-1.1c0.4-0.3,0.9-0.4,1.5-0.4c0.3,0,0.6,0,0.9,0.1c0.3,0.1,0.6,0.2,0.8,0.3l-0.2,1.1
		c-0.2-0.1-0.4-0.2-0.7-0.3s-0.5-0.1-0.8-0.1c-0.5,0-0.7,0.1-0.7,0.4c0,0.1,0.1,0.3,0.2,0.3c0.1,0.1,0.3,0.2,0.7,0.3
		c0.6,0.2,1.1,0.4,1.3,0.7c0.3,0.3,0.4,0.6,0.4,1c0,0.5-0.2,0.9-0.6,1.1C134.3,227.6,133.8,227.7,133.1,227.7z"/>
</g>
<g>
	<g>
		<path class="st6" d="M121.2,111.9v2.5h1.6v0.3h-6.7v-0.3h1.1v-2.5h-4.9v-0.4c1.9-1.8,3.6-6.6,3.8-10.1h5.2
			c-1.5,3.6-3.8,6.3-8.6,10.1h4.4V109l4-1.4v3.9h1.7v0.4H121.2z"/>
		<path class="st6" d="M129.7,105.3c0-2.3,1.3-4.1,3.8-4.1c2.4,0,3.8,1.8,3.8,4.1c0,2.3-1.3,4.2-3.8,4.2
			C131,109.5,129.7,107.6,129.7,105.3z M134.3,105.3c0-2.6-0.2-3.9-0.9-3.9c-0.7,0-0.9,1.3-0.9,3.8c0,2.6,0.2,4,0.9,4
			C134.1,109.2,134.3,107.9,134.3,105.3z M141.2,101.5h0.8l-7.3,13.2H134L141.2,101.5z M138.7,110.8c0-2.3,1.3-4.1,3.8-4.1
			c2.4,0,3.8,1.8,3.8,4.1c0,2.3-1.3,4.2-3.8,4.2C140.1,115.1,138.7,113.2,138.7,110.8z M143.4,110.8c0-2.6-0.2-3.9-0.9-3.9
			c-0.7,0-0.9,1.3-0.9,3.8c0,2.6,0.2,4,0.9,4C143.2,114.8,143.4,113.4,143.4,110.8z"/>
	</g>
</g>
<rect x="118.8" y="174.3" class="st2" width="0.3" height="37.9"/>
</svg>
