<svg id="UTILITY" mobilanim="none" width="146px" height="189px" viewBox="0 0 146 189" version="1.1" xmlns="http://www.w3.org/2000/svg" xmlns:xlink="http://www.w3.org/1999/xlink">
    <title>INFOGRAPHIE_2.4</title>
    <g id="Welcome" stroke="none" stroke-width="1" fill="none" fill-rule="evenodd">
        <g id="INFOGRAPHIE_2.4" fill-rule="nonzero">
            <g id="Group" transform="translate(0.000000, 44.000000)">
                <path d="M73,24.9 L73,0.1 C72.2,0.1 71.2,0.1 70.5,0.1 L71.4,24.9 C71.9,24.9 72.4,24.9 73,24.9 Z" id="Path" fill="#C4F7C9"></path>
                <path d="M71.3,24.9 L70.4,0.1 C67.3,0.2 64.7,0.5 61.6,0.9 L65.5,25.4 C67.5,25.2 69.4,25 71.3,24.9 Z" id="Path" fill="#A2EFAC"></path>
                <path d="M25.7,72.2 C25.7,48.6 43,29 65.6,25.5 L61.7,1 C33.7,5.4 12.3,24.1 4,51.1 C-7.6,89.2 13.8,129.5 51.9,141.1 L59.1,117.4 C39.8,111.5 25.7,93.5 25.7,72.2 Z" id="Path" fill="#8F4FEB"></path>
                <path d="M59.2,117.4 L52,141.1 C58.1,143 64.2,144 70.6,144.2 L71.5,119.4 C67.1,119.3 63,118.6 59.2,117.4 Z" id="Path" fill="#D9C4F7"></path>
                <path d="M73,119.5 C72.4,119.5 71.9,119.5 71.3,119.5 L70.4,144.3 C75.1,144.5 79.5,144.2 84.2,143.5 L80.3,119 C78,119.3 75.5,119.5 73,119.5 Z" id="Path" fill="#B691F0"></path>
                <path d="M73,0.1 L73,24.9 C99.1,24.9 120.3,46.1 120.3,72.2 C120.3,95.8 103,115.4 80.4,118.9 L84.3,143.4 C120.1,137.7 145.1,108.4 145.1,72.2 C145.1,32.4 112.8,0.1 73,0.1 Z" id="Path" fill="#44E559"></path>
                <path d="M73,24.9 C72.4,24.9 71.9,24.9 71.3,24.9 C69.4,25 67.4,25.2 65.6,25.4 C43,29 25.7,48.6 25.7,72.2 C25.7,93.5 39.8,111.5 59.2,117.4 C63.1,118.6 67.2,119.3 71.4,119.4 C71.9,119.4 72.5,119.4 73.1,119.4 C75.6,119.4 78.1,119.2 80.5,118.8 C103.1,115.2 120.4,95.7 120.4,72.1 C120.3,46.1 99.1,24.9 73,24.9 Z" id="Path" fill="#C4F7C9"></path>
            </g>
            <g id="Group" transform="translate(55.000000, 0.000000)" fill="#8F4FEB">
                <path d="M2.5,8.2 C1.7,8.2 1.2,8 0.8,7.6 C0.4,7.2 0.2,6.7 0.2,5.9 L0.2,2.9 L1.6,2.9 L1.6,5.8 C1.6,6.5 1.9,6.9 2.6,6.9 C3.2,6.9 3.5,6.5 3.5,5.8 L3.5,3 L4.9,3 L4.9,6 C4.9,6.7 4.7,7.3 4.3,7.7 C3.8,8 3.2,8.2 2.5,8.2 Z" id="Path"></path>
                <polygon id="Path" points="7.2 4.1 6.2 4.1 6.2 3 7.2 3 7.2 1.6 8.6 1.6 8.6 3 9.8 3 9.8 4.1 8.6 4.1 8.6 8 7.2 8"></polygon>
                <path d="M12,1.9 C11.8,1.9 11.6,1.8 11.4,1.7 C11.2,1.5 11.2,1.4 11.2,1.1 C11.2,0.9 11.3,0.7 11.4,0.5 C11.6,0.3 11.8,0.3 12,0.3 C12.2,0.3 12.4,0.4 12.6,0.5 C12.8,0.7 12.8,0.8 12.8,1.1 C12.8,1.3 12.7,1.5 12.6,1.7 C12.4,1.9 12.2,1.9 12,1.9 Z M11.3,3 L12.7,3 L12.7,8 L11.3,8 L11.3,3 Z" id="Shape"></path>
                <polygon id="Path" points="14.7 0 16.1 0 16.1 8 14.7 8"></polygon>
                <path d="M18.7,1.9 C18.5,1.9 18.3,1.8 18.1,1.7 C17.9,1.5 17.9,1.4 17.9,1.1 C17.9,0.9 18,0.7 18.1,0.5 C18.3,0.3 18.5,0.3 18.7,0.3 C18.9,0.3 19.1,0.4 19.3,0.5 C19.5,0.7 19.5,0.8 19.5,1.1 C19.5,1.3 19.4,1.5 19.3,1.7 C19.1,1.9 18.9,1.9 18.7,1.9 Z M18,3 L19.4,3 L19.4,8 L18,8 L18,3 Z" id="Shape"></path>
                <polygon id="Path" points="21.8 4.1 20.8 4.1 20.8 3 21.8 3 21.8 1.6 23.2 1.6 23.2 3 24.4 3 24.4 4.1 23.2 4.1 23.2 8 21.8 8"></polygon>
                <polygon id="Path" points="27.6 7.7 25.5 3 27 3 28.3 6.2 29.5 3 31 3 27.7 10.5 26.3 10.5"></polygon>
            </g>
            <g id="Group" transform="translate(57.000000, 106.000000)" fill="#8F4FEB">
                <path d="M0.1,7.3 C0.1,3.5 2.1,0.4 5.8,0.4 C9.5,0.4 11.5,3.5 11.5,7.3 C11.5,11.1 9.5,14.3 5.8,14.3 C2.1,14.4 0.1,11.2 0.1,7.3 Z M7.2,7.3 C7.2,3.2 6.9,0.8 5.7,0.8 C4.5,0.8 4.2,3.2 4.2,7.3 C4.2,11.5 4.5,14 5.7,14 C7,14 7.2,11.5 7.2,7.3 Z" id="Shape"></path>
                <path d="M18.6,4.6 C18.6,2.3 19.9,0.5 22.4,0.5 C24.8,0.5 26.2,2.3 26.2,4.6 C26.2,6.9 24.9,8.8 22.4,8.8 C19.9,8.8 18.6,6.9 18.6,4.6 Z M23.2,4.5 C23.2,1.9 23,0.6 22.3,0.6 C21.6,0.6 21.4,1.9 21.4,4.5 C21.4,7.1 21.6,8.5 22.3,8.5 C23,8.5 23.2,7.1 23.2,4.5 Z M30.1,0.8 L30.9,0.8 L23.6,14 L22.9,14 L30.1,0.8 Z M27.6,10.1 C27.6,7.8 28.9,6 31.4,6 C33.8,6 35.2,7.8 35.2,10.1 C35.2,12.4 33.9,14.3 31.4,14.3 C29,14.4 27.6,12.5 27.6,10.1 Z M32.3,10.1 C32.3,7.5 32.1,6.2 31.4,6.2 C30.7,6.2 30.5,7.5 30.5,10.1 C30.5,12.7 30.7,14.1 31.4,14.1 C32.1,14.1 32.3,12.7 32.3,10.1 Z" id="Shape"></path>
            </g>
            <rect id="Rectangle" fill="#8F4FEB" x="71.9" y="14.6" width="1" height="37.9"></rect>
        </g>
    </g>
</svg>