<!-- Generator: Adobe Illustrator 25.3.1, SVG Export Plug-In . SVG Version: 6.00 Build 0)  -->
<svg version="1.1" id="Calque_1" xmlns="http://www.w3.org/2000/svg" xmlns:xlink="http://www.w3.org/1999/xlink" x="0px" y="0px"
	 viewBox="0 0 280.2 261.3" style="enable-background:new 0 0 280.2 261.3;" xml:space="preserve">
<style type="text/css">
	.st0{fill:#C4F7C9;}
	.st1{fill:#A2EFAC;}
	.st2{fill:#8F4FEB;}
	.st3{fill:#D9C4F7;}
	.st4{fill:#B691F0;}
	.st5{fill:#44DF59;}
	.st6{fill:#FFFFFF;}
</style>
<g>
	<path class="st0" d="M140,81.6V56.8c-0.8,0-1.8,0-2.5,0l0.9,24.9C138.9,81.6,139.5,81.6,140,81.6z"/>
	<path class="st1" d="M138.4,81.7l-0.9-24.9c-3.2,0.1-5.7,0.4-8.8,0.8l3.9,24.6C134.5,81.9,136.4,81.7,138.4,81.7z"/>
	<path class="st2" d="M92.6,129.1c0-23.7,17.3-43.3,40-46.8l-3.9-24.6c-28,4.4-49.5,23.1-57.8,50.3c-11.7,38.2,9.8,78.6,48,90.3
		l7.3-23.8C106.7,168.5,92.6,150.4,92.6,129.1z"/>
	<path class="st3" d="M126.1,174.4l-7.3,23.8c6.1,1.9,12.3,2.9,18.6,3.1l0.9-24.9C134.1,176.3,130,175.6,126.1,174.4z"/>
	<path class="st4" d="M140,176.5c-0.6,0-1.1,0-1.7,0l-0.9,24.9c4.7,0.2,9.1-0.1,13.8-0.8l-3.9-24.6C145,176.3,142.5,176.5,140,176.5
		z"/>
	<path class="st5" d="M140,56.8v24.9c26.2,0,47.4,21.2,47.4,47.4c0,23.7-17.3,43.3-40,46.8l3.9,24.6c35.9-5.7,61-35.1,61-71.4
		C212.3,89.1,179.9,56.8,140,56.8z"/>
	<path class="st2" d="M140,81.6c-0.6,0-1.1,0-1.7,0c-2,0.1-3.9,0.3-5.8,0.5c-22.7,3.6-40,23.2-40,46.8c0,21.4,14.1,39.4,33.6,45.4
		c3.9,1.2,8,1.9,12.2,2c0.5,0,1.1,0,1.7,0c2.5,0,5-0.2,7.4-0.6c22.7-3.6,40-23.2,40-46.8C187.4,102.9,166.2,81.6,140,81.6z"/>
</g>
<g>
	<g>
		<path class="st2" d="M19.5,131.6c-0.4,0-0.8-0.1-1.2-0.3c-0.4-0.2-0.6-0.5-0.8-0.9c-0.2-0.4-0.3-0.9-0.3-1.4
			c0-0.5,0.1-0.9,0.3-1.3c0.2-0.4,0.5-0.7,0.9-1c0.4-0.2,0.8-0.4,1.3-0.4c0.3,0,0.7,0.1,0.9,0.2c0.3,0.1,0.5,0.3,0.7,0.6l0-0.7h1.3
			v5.1h-1.3l0-0.6c-0.2,0.3-0.4,0.5-0.7,0.6C20.2,131.5,19.9,131.6,19.5,131.6z M19.9,130.3c0.4,0,0.7-0.1,1-0.4
			c0.3-0.3,0.4-0.6,0.4-1.1c0-0.4-0.1-0.8-0.4-1c-0.2-0.3-0.6-0.4-1-0.4c-0.4,0-0.7,0.1-1,0.4c-0.2,0.3-0.4,0.6-0.4,1
			c0,0.4,0.1,0.8,0.4,1.1C19.2,130.2,19.5,130.3,19.9,130.3z"/>
		<path class="st2" d="M24.5,126.4h1.3l0,0.8c0.1-0.3,0.3-0.5,0.6-0.7c0.2-0.2,0.5-0.2,0.8-0.2c0.2,0,0.4,0,0.6,0.1l-0.1,1.3
			c-0.2-0.1-0.4-0.1-0.6-0.1c-0.4,0-0.7,0.1-0.9,0.4c-0.2,0.3-0.3,0.7-0.3,1.1v2.3h-1.4V126.4z"/>
		<path class="st2" d="M29.9,127.5h-1v-1.1h1V125h1.4v1.4h1.2v1.1h-1.2v3.9h-1.4V127.5z"/>
	</g>
</g>
<g>
	<g>
		<path class="st6" d="M124.4,130.1v2.5h1.6v0.3h-6.7v-0.3h1.1v-2.5h-4.9v-0.4c1.9-1.8,3.6-6.6,3.9-10.1h5.3
			c-1.5,3.6-3.8,6.3-8.7,10.1h4.4v-2.5l4-1.4v3.9h1.7v0.4H124.4z"/>
		<path class="st6" d="M137.9,129.2c0,2.5-2.2,4.1-6.1,4.1c-1.4,0-2.7-0.3-3.9-0.8l0.8-4.4h0l2.5,4.8c0.1,0,0.2,0.1,0.4,0.1
			c1.1,0,2-1.2,2-3.4c0-1.9-1.3-3.5-3.4-3.5v-0.2c2,0,2.7-1.1,2.7-3.5c0-1.7-0.5-2.8-1.4-2.8c-0.1,0-0.3,0-0.4,0.1l-1.9,4.8h0
			l-1.6-4c1.5-0.8,2.9-1.2,4.6-1.2c3.1,0,5,1.3,5,3.1c0,1.7-1.7,3.1-4,3.4C136,126,137.9,127.4,137.9,129.2z"/>
		<path class="st6" d="M144.8,123.4c0-2.3,1.3-4.1,3.8-4.2c2.4,0,3.8,1.8,3.8,4.2c0,2.3-1.3,4.2-3.8,4.2
			C146.1,127.7,144.8,125.8,144.8,123.4z M149.4,123.4c0-2.6-0.2-3.9-0.9-3.9c-0.7,0-0.9,1.3-0.9,3.9c0,2.6,0.2,4,0.9,4
			C149.2,127.4,149.4,126,149.4,123.4z M156.4,119.6h0.8l-7.3,13.3h-0.7L156.4,119.6z M153.9,129c0-2.3,1.3-4.1,3.8-4.2
			c2.4,0,3.8,1.8,3.8,4.2c0,2.3-1.3,4.2-3.8,4.2C155.2,133.3,153.9,131.4,153.9,129z M158.5,129c0-2.6-0.2-3.9-0.9-3.9
			c-0.7,0-0.9,1.3-0.9,3.9c0,2.6,0.2,4,0.9,4C158.3,133,158.5,131.6,158.5,129z"/>
	</g>
</g>
<rect x="41.9" y="128.9" class="st2" width="38" height="0.3"/>
</svg>
