<svg id="COLLECTIBLES" mobilanim="none" width="229px" height="145px" viewBox="0 0 229 145" version="1.1" xmlns="http://www.w3.org/2000/svg" xmlns:xlink="http://www.w3.org/1999/xlink">
    <title>INFOGRAPHIE_2.5</title>
    <g id="Welcome" stroke="none" stroke-width="1" fill="none" fill-rule="evenodd">
        <g id="INFOGRAPHIE_2.5" fill-rule="nonzero">
            <g id="Group">
                <path d="M72.6493136,23.9 C72.0410771,23.9 71.5342133,23.9 70.9259768,23.9 C68.9998944,24.0015873 66.9724393,24.2047619 65.1477297,24.4079365 C42.2374868,28.0650794 24.7,47.9761905 24.7,71.9507937 C24.7,93.5888889 38.9935586,111.874603 58.6598733,117.868254 C62.6134108,119.087302 66.7696938,119.798413 71.0273495,119.9 C71.5342133,119.9 72.1424498,119.9 72.7506864,119.9 C75.2850053,119.9 77.8193242,119.696825 80.2522703,119.290476 C103.162513,115.633333 120.7,95.8238095 120.7,71.8492063 C120.598627,45.4365079 99.107603,23.9 72.6493136,23.9 Z" id="Path" fill="#44E559"></path>
                <path d="M72.3,24.9 L72.3,0.1 C71.5,0.1 70.5,0.1 69.8,0.1 L70.7,24.9 C71.2,24.9 71.7,24.9 72.3,24.9 Z" id="Path" fill="#C4F7C9"></path>
                <path d="M70.6,24.9 L69.7,0.1 C66.6,0.2 64,0.5 60.9,0.9 L64.8,25.4 C66.8,25.2 68.7,25 70.6,24.9 Z" id="Path" fill="#A2EFAC"></path>
                <path d="M25,72.2 C25,48.6 42.3,29 64.9,25.5 L61,1 C33,5.4 11.6,24.1 3.3,51.1 C-8.3,89.2 13.1,129.5 51.2,141.1 L58.4,117.4 C39.1,111.5 25,93.5 25,72.2 Z" id="Path" fill="#8F4FEB"></path>
                <path d="M58.5,117.4 L51.3,141.1 C57.4,143 63.5,144 69.9,144.2 L70.8,119.4 C66.4,119.3 62.3,118.6 58.5,117.4 Z" id="Path" fill="#D9C4F7"></path>
                <path d="M72.3,119.5 C71.7,119.5 71.2,119.5 70.6,119.5 L69.7,144.3 C74.4,144.5 78.8,144.2 83.5,143.5 L79.6,119 C77.3,119.3 74.8,119.5 72.3,119.5 Z" id="Path" fill="#B691F0"></path>
                <path d="M72.3,0.1 L72.3,24.9 C98.4,24.9 119.6,46.1 119.6,72.2 C119.6,95.8 102.3,115.4 79.7,118.9 L83.6,143.4 C119.4,137.7 144.4,108.4 144.4,72.2 C144.4,32.4 112.1,0.1 72.3,0.1 Z" id="Path" fill="#44E559"></path>
            </g>
            <g id="Group" transform="translate(173.000000, 66.000000)" fill="#8F4FEB">
                <path d="M3.3,8.7 C2.8,8.7 2.3,8.6 1.8,8.4 C1.4,8.2 1.1,7.9 0.8,7.5 C0.6,7.1 0.5,6.6 0.5,6.1 C0.5,5.6 0.6,5.1 0.8,4.7 C1,4.3 1.3,4 1.8,3.7 C2.2,3.5 2.7,3.4 3.3,3.4 C3.6,3.4 3.9,3.4 4.2,3.5 C4.5,3.6 4.7,3.7 4.9,3.8 L4.7,5 C4.3,4.8 3.8,4.7 3.4,4.7 C2.9,4.7 2.6,4.8 2.3,5.1 C2,5.4 1.9,5.7 1.9,6.1 C1.9,6.5 2,6.9 2.3,7.2 C2.6,7.5 3,7.6 3.4,7.6 C3.8,7.6 4.3,7.5 4.8,7.3 L4.9,8.4 C4.7,8.5 4.4,8.6 4.1,8.7 C3.8,8.8 3.7,8.7 3.3,8.7 Z" id="Path"></path>
                <path d="M9,8.7 C8.5,8.7 8.1,8.6 7.6,8.4 C7.2,8.2 6.9,7.9 6.6,7.4 C6.4,7 6.2,6.5 6.2,6 C6.2,5.5 6.3,5.1 6.5,4.7 C6.7,4.3 7.1,4 7.5,3.7 C7.9,3.5 8.4,3.3 8.9,3.3 C9.4,3.3 9.8,3.4 10.3,3.6 C10.7,3.8 11,4.1 11.3,4.5 C11.5,4.9 11.7,5.4 11.7,5.9 C11.7,6.4 11.6,6.8 11.4,7.2 C11.2,7.6 10.8,7.9 10.4,8.2 C10,8.6 9.6,8.7 9,8.7 Z M9,7.5 C9.4,7.5 9.7,7.4 10,7.1 C10.3,6.8 10.4,6.5 10.4,6 C10.4,5.6 10.3,5.2 10,5 C9.8,4.7 9.4,4.6 9,4.6 C8.6,4.6 8.3,4.7 8,5 C7.8,5.3 7.6,5.6 7.6,6 C7.6,6.4 7.7,6.8 8,7.1 C8.3,7.3 8.6,7.5 9,7.5 Z" id="Shape"></path>
                <polygon id="Path" points="13.4 0.5 14.8 0.5 14.8 8.5 13.4 8.5"></polygon>
                <polygon id="Path" points="16.8 0.5 18.2 0.5 18.2 8.5 16.8 8.5"></polygon>
                <path d="M22.8,8.7 C22.2,8.7 21.7,8.6 21.3,8.4 C20.9,8.2 20.5,7.9 20.3,7.5 C20.1,7.1 19.9,6.6 19.9,6.1 C19.9,5.6 20,5.1 20.2,4.7 C20.4,4.3 20.7,4 21.1,3.7 C21.5,3.5 21.9,3.3 22.5,3.3 C23,3.3 23.4,3.4 23.8,3.6 C24.2,3.8 24.4,4.1 24.6,4.5 C24.8,4.9 24.9,5.3 24.9,5.8 C24.9,6 24.9,6.2 24.9,6.4 L21.3,6.4 C21.5,7.2 22,7.5 23,7.5 C23.3,7.5 23.6,7.5 23.9,7.4 C24.2,7.3 24.4,7.2 24.7,7.1 L24.8,8.2 C24.6,8.3 24.3,8.4 23.9,8.5 C23.5,8.7 23.1,8.7 22.8,8.7 Z M23.5,5.5 C23.5,5.1 23.4,4.9 23.2,4.7 C23,4.5 22.7,4.4 22.4,4.4 C22.1,4.4 21.8,4.5 21.6,4.7 C21.4,4.9 21.3,5.2 21.2,5.5 L23.5,5.5 Z" id="Shape"></path>
                <path d="M29.1,8.7 C28.6,8.7 28.1,8.6 27.6,8.4 C27.2,8.2 26.9,7.9 26.6,7.5 C26.4,7.1 26.3,6.6 26.3,6.1 C26.3,5.6 26.4,5.1 26.6,4.7 C26.8,4.3 27.1,4 27.6,3.7 C28,3.5 28.5,3.4 29.1,3.4 C29.4,3.4 29.7,3.4 30,3.5 C30.3,3.6 30.5,3.7 30.7,3.8 L30.5,5 C30.1,4.8 29.6,4.7 29.2,4.7 C28.7,4.7 28.4,4.8 28.1,5.1 C27.8,5.4 27.7,5.7 27.7,6.1 C27.7,6.5 27.8,6.9 28.1,7.2 C28.4,7.5 28.8,7.6 29.2,7.6 C29.6,7.6 30.1,7.5 30.6,7.3 L30.7,8.4 C30.5,8.5 30.2,8.6 29.9,8.7 C29.6,8.8 29.4,8.7 29.1,8.7 Z" id="Path"></path>
                <polygon id="Path" points="33.1 4.6 32.1 4.6 32.1 3.5 33.1 3.5 33.1 2.1 34.5 2.1 34.5 3.5 35.7 3.5 35.7 4.6 34.5 4.6 34.5 8.5 33.1 8.5"></polygon>
                <path d="M37.9,2.5 C37.7,2.5 37.5,2.4 37.3,2.3 C37.1,2.1 37.1,2 37.1,1.7 C37.1,1.5 37.2,1.3 37.3,1.1 C37.5,0.9 37.7,0.9 37.9,0.9 C38.1,0.9 38.3,1 38.5,1.1 C38.7,1.3 38.7,1.4 38.7,1.7 C38.7,1.9 38.6,2.1 38.5,2.3 C38.4,2.4 38.2,2.5 37.9,2.5 Z M37.2,3.5 L38.6,3.5 L38.6,8.5 L37.2,8.5 L37.2,3.5 Z" id="Shape"></path>
                <path d="M43.5,8.7 C43.1,8.7 42.8,8.6 42.6,8.5 C42.3,8.4 42.1,8.2 41.9,7.9 L41.9,8.6 L40.6,8.6 L40.6,0.6 L42,0.6 L42,4.2 C42.4,3.7 42.9,3.4 43.6,3.4 C44,3.4 44.4,3.5 44.8,3.7 C45.2,3.9 45.4,4.2 45.6,4.6 C45.8,5 45.9,5.5 45.9,6 C45.9,6.5 45.8,6.9 45.6,7.3 C45.4,7.7 45.1,8 44.7,8.3 C44.4,8.6 44,8.7 43.5,8.7 Z M43.2,7.5 C43.6,7.5 43.9,7.4 44.2,7.1 C44.4,6.8 44.6,6.5 44.6,6.1 C44.6,5.7 44.5,5.3 44.2,5 C43.9,4.7 43.6,4.6 43.2,4.6 C42.8,4.6 42.5,4.7 42.2,5 C41.9,5.3 41.8,5.6 41.8,6.1 C41.8,6.5 41.9,6.9 42.2,7.1 C42.5,7.3 42.8,7.5 43.2,7.5 Z" id="Shape"></path>
                <polygon id="Path" points="47.6 0.5 49 0.5 49 8.5 47.6 8.5"></polygon>
                <path d="M53.6,8.7 C53,8.7 52.5,8.6 52.1,8.4 C51.7,8.2 51.3,7.9 51.1,7.5 C50.9,7.1 50.7,6.6 50.7,6.1 C50.7,5.6 50.8,5.1 51,4.7 C51.2,4.3 51.5,4 51.9,3.7 C52.3,3.5 52.7,3.3 53.3,3.3 C53.8,3.3 54.2,3.4 54.6,3.6 C55,3.8 55.2,4.1 55.4,4.5 C55.6,4.9 55.7,5.3 55.7,5.8 C55.7,6 55.7,6.2 55.7,6.4 L52,6.4 C52.2,7.2 52.7,7.5 53.7,7.5 C54,7.5 54.3,7.5 54.6,7.4 C54.9,7.3 55.1,7.2 55.4,7.1 L55.5,8.2 C55.3,8.3 55,8.4 54.6,8.5 C54.3,8.7 54,8.7 53.6,8.7 Z M54.3,5.5 C54.3,5.1 54.2,4.9 54,4.7 C53.8,4.5 53.5,4.4 53.2,4.4 C52.9,4.4 52.6,4.5 52.4,4.7 C52.2,4.9 52.1,5.2 52,5.5 L54.3,5.5 Z" id="Shape"></path>
            </g>
            <g id="Group" transform="translate(53.000000, 62.000000)" fill="#FFFFFF">
                <path d="M9.2,11.2 L9.2,13.7 L10.8,13.7 L10.8,14 L4.1,14 L4.1,13.7 L5.2,13.7 L5.2,11.2 L0.3,11.2 L0.3,10.8 C2.2,9 3.9,4.2 4.2,0.7 L9.4,0.7 C7.9,4.3 5.6,7 0.8,10.8 L5.2,10.8 L5.2,8.3 L9.2,6.9 L9.2,10.8 L10.9,10.8 L10.9,11.2 L9.2,11.2 Z" id="Path"></path>
                <path d="M22.7,10 C22.7,12.4 20.4,14.4 17.6,14.4 C14.7,14.4 12.6,13.1 12.6,10.9 C12.6,9.4 13.9,8.2 15.8,8 C13.9,6.6 13.3,5.6 13.3,4.1 C13.3,2 15.2,0.4 17.9,0.4 C20.3,0.4 22.1,1.6 22.1,3.1 C22.1,4.5 20.9,5.3 19,5.4 L20.3,6.3 C22,7.5 22.7,8.6 22.7,10 Z M19.6,12 C19.6,11 18.9,10.1 17.8,9.4 L16.5,8.5 C16.3,8.4 16.2,8.3 16,8.1 C15.7,8.8 15.6,9.5 15.6,10.3 C15.6,12.8 16.5,13.9 17.9,13.9 C19,14 19.6,13.1 19.6,12 Z M16.1,2.3 C16.1,3 16.6,3.7 17.5,4.3 L18.9,5.3 C19.2,4.6 19.4,3.9 19.4,3.1 C19.4,1.7 18.7,0.8 17.7,0.8 C16.8,0.8 16.1,1.4 16.1,2.3 Z" id="Shape"></path>
                <path d="M29.8,4.6 C29.8,2.3 31.1,0.5 33.6,0.5 C36,0.5 37.4,2.3 37.4,4.6 C37.4,6.9 36.1,8.8 33.6,8.8 C31.1,8.8 29.8,6.9 29.8,4.6 Z M34.4,4.5 C34.4,1.9 34.2,0.6 33.5,0.6 C32.8,0.6 32.6,1.9 32.6,4.5 C32.6,7.1 32.8,8.5 33.5,8.5 C34.2,8.5 34.4,7.1 34.4,4.5 Z M41.3,0.8 L42.1,0.8 L34.8,14 L34.1,14 L41.3,0.8 Z M38.8,10.1 C38.8,7.8 40.1,6 42.6,6 C45,6 46.4,7.8 46.4,10.1 C46.4,12.4 45.1,14.3 42.6,14.3 C40.2,14.4 38.8,12.5 38.8,10.1 Z M43.5,10.1 C43.5,7.5 43.3,6.2 42.6,6.2 C41.9,6.2 41.7,7.5 41.7,10.1 C41.7,12.7 41.9,14.1 42.6,14.1 C43.3,14.1 43.5,12.7 43.5,10.1 Z" id="Shape"></path>
            </g>
            <rect id="Rectangle" fill="#8F4FEB" x="128" y="72" width="37.9" height="1"></rect>
        </g>
    </g>
</svg>