<!-- Generator: Adobe Illustrator 25.3.1, SVG Export Plug-In . SVG Version: 6.00 Build 0)  -->
<svg version="1.1" id="Calque_1" xmlns="http://www.w3.org/2000/svg" xmlns:xlink="http://www.w3.org/1999/xlink" x="0px" y="0px"
	 viewBox="0 0 280.2 261.3" style="enable-background:new 0 0 280.2 261.3;" xml:space="preserve">
<style type="text/css">
	.st0{fill:#8F4FEB;}
	.st1{fill:#BAEDAD;}
	.st2{fill:#C4F7C9;}
	.st3{fill:#44E559;}
	.st4{fill:#B691F0;}
	.st5{fill:#D9C4F7;}
</style>
<g>
	<g>
		<g>
			<path class="st0" d="M193.5,133.9c-0.4,0-0.8,0-1.2-0.1c-0.4-0.1-0.7-0.2-1-0.3l0.2-1.4c0.2,0.1,0.5,0.2,0.8,0.3
				c0.3,0.1,0.7,0.1,1,0.1c0.6,0,1.1-0.1,1.4-0.4c0.3-0.3,0.4-0.7,0.4-1.3v-0.4c-0.2,0.3-0.4,0.5-0.7,0.7c-0.3,0.1-0.7,0.2-1.1,0.2
				c-0.5,0-0.9-0.1-1.3-0.4c-0.4-0.2-0.7-0.6-0.9-1c-0.2-0.4-0.3-1-0.3-1.5c0-0.5,0.1-1,0.3-1.5c0.2-0.4,0.5-0.8,0.9-1.1
				c0.4-0.3,0.9-0.4,1.4-0.4c0.4,0,0.7,0.1,1,0.2c0.3,0.2,0.5,0.4,0.7,0.7l0-0.7h1.4v5.1c0,1-0.3,1.8-0.8,2.3
				C195.3,133.7,194.6,133.9,193.5,133.9z M193.8,130c0.4,0,0.8-0.1,1-0.4c0.3-0.3,0.4-0.7,0.4-1.1c0-0.5-0.1-0.8-0.4-1.1
				c-0.3-0.3-0.6-0.4-1.1-0.4c-0.4,0-0.8,0.1-1.1,0.4c-0.3,0.3-0.4,0.7-0.4,1.1c0,0.5,0.1,0.9,0.4,1.1
				C193,129.9,193.3,130,193.8,130z"/>
			<path class="st0" d="M201,131.3c-0.5,0-0.9-0.1-1.3-0.4c-0.4-0.2-0.7-0.6-0.9-1c-0.2-0.4-0.3-1-0.3-1.5c0-0.5,0.1-1,0.3-1.5
				c0.2-0.4,0.5-0.8,0.9-1.1c0.4-0.3,0.9-0.4,1.4-0.4c0.4,0,0.7,0.1,1,0.2c0.3,0.2,0.5,0.4,0.7,0.7l0-0.7h1.4v5.5h-1.4l0-0.7
				c-0.2,0.3-0.4,0.5-0.7,0.7C201.8,131.3,201.4,131.3,201,131.3z M201.4,130c0.4,0,0.8-0.1,1-0.4c0.3-0.3,0.4-0.7,0.4-1.1
				c0-0.5-0.1-0.8-0.4-1.1c-0.3-0.3-0.6-0.4-1.1-0.4c-0.4,0-0.8,0.1-1.1,0.4c-0.3,0.3-0.4,0.7-0.4,1.1c0,0.5,0.1,0.9,0.4,1.1
				C200.6,129.9,201,130,201.4,130z"/>
			<path class="st0" d="M206.4,125.7h1.4l0,0.7c0.2-0.3,0.4-0.5,0.7-0.6c0.3-0.1,0.6-0.2,1-0.2c0.8,0,1.4,0.3,1.7,1
				c0.2-0.3,0.4-0.5,0.7-0.7c0.3-0.2,0.7-0.3,1.1-0.3c0.7,0,1.2,0.2,1.5,0.6c0.3,0.4,0.5,1,0.5,1.7v3.3h-1.5v-3.1
				c0-0.4-0.1-0.8-0.2-1c-0.2-0.2-0.4-0.3-0.7-0.3c-0.3,0-0.6,0.1-0.8,0.4c-0.2,0.2-0.3,0.6-0.3,1v3H210v-3.1c0-0.4-0.1-0.8-0.2-1
				c-0.2-0.2-0.4-0.3-0.7-0.3c-0.3,0-0.6,0.1-0.8,0.4c-0.2,0.2-0.3,0.6-0.3,1v3h-1.5V125.7z"/>
			<path class="st0" d="M220,131.3c-0.6,0-1.2-0.1-1.7-0.3c-0.5-0.2-0.9-0.6-1.1-1c-0.3-0.4-0.4-1-0.4-1.6c0-0.6,0.1-1.1,0.3-1.5
				c0.2-0.4,0.6-0.8,1-1c0.4-0.3,0.9-0.4,1.5-0.4c0.5,0,1,0.1,1.4,0.3c0.4,0.2,0.7,0.5,0.9,0.9c0.2,0.4,0.3,0.9,0.3,1.5
				c0,0.2,0,0.5-0.1,0.6h-3.9c0.2,0.8,0.8,1.2,1.9,1.2c0.3,0,0.7,0,1-0.1c0.3-0.1,0.6-0.2,0.8-0.3l0.2,1.2c-0.3,0.1-0.6,0.3-1,0.3
				C220.8,131.3,220.4,131.3,220,131.3z M220.8,127.8c0-0.4-0.2-0.7-0.4-0.9c-0.2-0.2-0.5-0.3-0.8-0.3c-0.3,0-0.6,0.1-0.9,0.3
				c-0.2,0.2-0.4,0.5-0.4,0.9H220.8z"/>
		</g>
		<rect x="153.4" y="119.3" class="st1" width="25.7" height="16.9"/>
	</g>
	<g>
		<g>
			<path class="st0" d="M193.6,160.2c-0.8,0-1.5-0.2-1.9-0.6c-0.4-0.4-0.7-1-0.7-1.8v-3.2h1.5v3.2c0,0.8,0.3,1.2,1,1.2
				c0.7,0,1-0.4,1-1.2v-3.2h1.5v3.2c0,0.8-0.2,1.4-0.7,1.8C195.1,160,194.4,160.2,193.6,160.2z"/>
			<path class="st0" d="M198.8,155.8h-1.1v-1.2h1.1V153h1.5v1.5h1.3v1.2h-1.3v4.3h-1.5V155.8z"/>
			<path class="st0" d="M204,153.4c-0.3,0-0.5-0.1-0.6-0.3c-0.2-0.2-0.3-0.4-0.3-0.6c0-0.2,0.1-0.5,0.3-0.6c0.2-0.2,0.4-0.2,0.6-0.2
				c0.3,0,0.5,0.1,0.6,0.2c0.2,0.2,0.3,0.4,0.3,0.6c0,0.3-0.1,0.5-0.3,0.6C204.5,153.3,204.3,153.4,204,153.4z M203.3,154.5h1.5v5.5
				h-1.5V154.5z"/>
			<path class="st0" d="M206.9,151.3h1.5v8.8h-1.5V151.3z"/>
			<path class="st0" d="M211.3,153.4c-0.3,0-0.5-0.1-0.6-0.3c-0.2-0.2-0.3-0.4-0.3-0.6c0-0.2,0.1-0.5,0.3-0.6
				c0.2-0.2,0.4-0.2,0.6-0.2c0.3,0,0.5,0.1,0.6,0.2c0.2,0.2,0.3,0.4,0.3,0.6c0,0.3-0.1,0.5-0.3,0.6
				C211.8,153.3,211.6,153.4,211.3,153.4z M210.6,154.5h1.5v5.5h-1.5V154.5z"/>
			<path class="st0" d="M214.7,155.8h-1.1v-1.2h1.1V153h1.5v1.5h1.3v1.2h-1.3v4.3h-1.5V155.8z"/>
			<path class="st0" d="M221.1,159.7l-2.3-5.1h1.6l1.4,3.5l1.4-3.5h1.6l-3.6,8.1h-1.6L221.1,159.7z"/>
		</g>
		<rect x="153.4" y="148.1" class="st2" width="25.7" height="16.9"/>
	</g>
	<g>
		<g>
			<path class="st0" d="M193.8,102.5c-0.6,0-1.1-0.1-1.6-0.3c-0.5-0.2-0.8-0.6-1.1-1c-0.3-0.4-0.4-0.9-0.4-1.5
				c0-0.6,0.1-1.1,0.4-1.5c0.2-0.4,0.6-0.8,1.1-1c0.5-0.3,1-0.4,1.6-0.4c0.3,0,0.6,0,1,0.1c0.3,0.1,0.6,0.2,0.8,0.3l-0.2,1.3
				c-0.5-0.2-1-0.3-1.4-0.3c-0.5,0-0.9,0.1-1.2,0.4c-0.3,0.3-0.4,0.7-0.4,1.1c0,0.5,0.2,0.9,0.5,1.2c0.3,0.3,0.7,0.4,1.2,0.4
				c0.5,0,1-0.1,1.5-0.3l0.2,1.2c-0.2,0.1-0.5,0.2-0.8,0.3C194.5,102.4,194.2,102.5,193.8,102.5z"/>
			<path class="st0" d="M200,102.5c-0.5,0-1-0.1-1.5-0.4c-0.5-0.2-0.8-0.6-1.1-1s-0.4-1-0.4-1.5c0-0.5,0.1-1,0.4-1.5
				c0.2-0.4,0.6-0.8,1.1-1.1c0.5-0.3,1-0.4,1.5-0.4c0.5,0,1,0.1,1.5,0.4c0.5,0.2,0.8,0.6,1.1,1c0.3,0.4,0.4,1,0.4,1.5
				c0,0.5-0.1,1-0.4,1.5c-0.2,0.4-0.6,0.8-1.1,1.1C201.1,102.4,200.6,102.5,200,102.5z M200,101.1c0.4,0,0.8-0.1,1-0.4
				c0.3-0.3,0.4-0.7,0.4-1.1c0-0.5-0.1-0.8-0.4-1.1c-0.3-0.3-0.6-0.4-1.1-0.4c-0.4,0-0.8,0.1-1.1,0.4c-0.3,0.3-0.4,0.7-0.4,1.1
				c0,0.5,0.1,0.9,0.4,1.1C199.3,101,199.6,101.1,200,101.1z"/>
			<path class="st0" d="M204.8,93.6h1.5v8.8h-1.5V93.6z"/>
			<path class="st0" d="M208.5,93.6h1.5v8.8h-1.5V93.6z"/>
			<path class="st0" d="M215,102.5c-0.6,0-1.2-0.1-1.7-0.3c-0.5-0.2-0.9-0.6-1.1-1c-0.3-0.4-0.4-1-0.4-1.6c0-0.6,0.1-1.1,0.3-1.5
				c0.2-0.4,0.6-0.8,1-1c0.4-0.3,0.9-0.4,1.5-0.4c0.5,0,1,0.1,1.4,0.3c0.4,0.2,0.7,0.5,0.9,0.9c0.2,0.4,0.3,0.9,0.3,1.5
				c0,0.2,0,0.5-0.1,0.6h-3.9c0.2,0.8,0.8,1.2,1.9,1.2c0.3,0,0.7,0,1-0.1c0.3-0.1,0.6-0.2,0.8-0.3l0.2,1.2c-0.3,0.1-0.6,0.3-1,0.3
				C215.8,102.4,215.4,102.5,215,102.5z M215.8,99c0-0.4-0.2-0.7-0.4-0.9c-0.2-0.2-0.5-0.3-0.8-0.3c-0.3,0-0.6,0.1-0.9,0.3
				c-0.2,0.2-0.4,0.5-0.4,0.9H215.8z"/>
			<path class="st0" d="M221.9,102.5c-0.6,0-1.1-0.1-1.6-0.3c-0.5-0.2-0.8-0.6-1.1-1c-0.3-0.4-0.4-0.9-0.4-1.5
				c0-0.6,0.1-1.1,0.4-1.5c0.2-0.4,0.6-0.8,1.1-1c0.5-0.3,1-0.4,1.6-0.4c0.3,0,0.6,0,1,0.1c0.3,0.1,0.6,0.2,0.8,0.3l-0.2,1.3
				c-0.5-0.2-1-0.3-1.4-0.3c-0.5,0-0.9,0.1-1.2,0.4c-0.3,0.3-0.4,0.7-0.4,1.1c0,0.5,0.2,0.9,0.5,1.2c0.3,0.3,0.7,0.4,1.2,0.4
				c0.5,0,1-0.1,1.5-0.3l0.2,1.2c-0.2,0.1-0.5,0.2-0.8,0.3C222.6,102.4,222.3,102.5,221.9,102.5z"/>
			<path class="st0" d="M226.3,98.1h-1.1v-1.2h1.1v-1.5h1.5v1.5h1.3v1.2h-1.3v4.3h-1.5V98.1z"/>
			<path class="st0" d="M231.5,95.7c-0.3,0-0.5-0.1-0.6-0.3c-0.2-0.2-0.3-0.4-0.3-0.6c0-0.2,0.1-0.5,0.3-0.6
				c0.2-0.2,0.4-0.2,0.6-0.2s0.5,0.1,0.6,0.2c0.2,0.2,0.3,0.4,0.3,0.6c0,0.3-0.1,0.5-0.3,0.6C232,95.6,231.8,95.7,231.5,95.7z
				 M230.8,96.8h1.5v5.5h-1.5V96.8z"/>
			<path class="st0" d="M237.6,102.5c-0.4,0-0.7-0.1-1-0.2c-0.3-0.2-0.5-0.4-0.7-0.7l0,0.7h-1.4v-8.8h1.5v3.9c0.4-0.5,1-0.8,1.8-0.8
				c0.5,0,0.9,0.1,1.3,0.4c0.4,0.2,0.7,0.6,0.9,1c0.2,0.4,0.3,1,0.3,1.5c0,0.5-0.1,1-0.3,1.5c-0.2,0.4-0.5,0.8-0.9,1.1
				C238.6,102.4,238.2,102.5,237.6,102.5z M237.3,101.1c0.4,0,0.8-0.1,1.1-0.4c0.3-0.3,0.4-0.7,0.4-1.1c0-0.5-0.1-0.9-0.4-1.1
				c-0.3-0.3-0.6-0.4-1-0.4c-0.4,0-0.8,0.1-1,0.4c-0.3,0.3-0.4,0.7-0.4,1.1c0,0.5,0.1,0.8,0.4,1.1
				C236.5,101,236.9,101.1,237.3,101.1z"/>
			<path class="st0" d="M242.1,93.6h1.5v8.8h-1.5V93.6z"/>
			<path class="st0" d="M248.6,102.5c-0.6,0-1.2-0.1-1.7-0.3c-0.5-0.2-0.9-0.6-1.1-1c-0.3-0.4-0.4-1-0.4-1.6c0-0.6,0.1-1.1,0.3-1.5
				c0.2-0.4,0.6-0.8,1-1c0.4-0.3,0.9-0.4,1.5-0.4c0.5,0,1,0.1,1.4,0.3c0.4,0.2,0.7,0.5,0.9,0.9c0.2,0.4,0.3,0.9,0.3,1.5
				c0,0.2,0,0.5-0.1,0.6h-3.9c0.2,0.8,0.8,1.2,1.9,1.2c0.3,0,0.7,0,1-0.1c0.3-0.1,0.6-0.2,0.8-0.3l0.2,1.2c-0.3,0.1-0.6,0.3-1,0.3
				C249.4,102.4,249,102.5,248.6,102.5z M249.4,99c0-0.4-0.2-0.7-0.4-0.9c-0.2-0.2-0.5-0.3-0.8-0.3c-0.3,0-0.6,0.1-0.9,0.3
				c-0.2,0.2-0.4,0.5-0.4,0.9H249.4z"/>
		</g>
		<rect x="153.4" y="90.4" class="st3" width="25.7" height="16.9"/>
	</g>
</g>
<g>
	<g>
		<g>
			<path class="st0" d="M66.7,102.1c-0.5,0-0.9-0.1-1.3-0.4c-0.4-0.2-0.7-0.6-0.9-1c-0.2-0.4-0.3-1-0.3-1.5c0-0.5,0.1-1,0.3-1.5
				c0.2-0.4,0.5-0.8,0.9-1.1c0.4-0.3,0.9-0.4,1.4-0.4c0.4,0,0.7,0.1,1,0.2c0.3,0.2,0.5,0.4,0.7,0.7l0-0.7H70v5.5h-1.4l0-0.7
				c-0.2,0.3-0.4,0.5-0.7,0.7C67.5,102,67.1,102.1,66.7,102.1z M67.1,100.7c0.4,0,0.8-0.1,1-0.4c0.3-0.3,0.4-0.7,0.4-1.1
				c0-0.5-0.1-0.8-0.4-1.1c-0.3-0.3-0.6-0.4-1.1-0.4c-0.4,0-0.8,0.1-1.1,0.4c-0.3,0.3-0.4,0.7-0.4,1.1c0,0.5,0.1,0.9,0.4,1.1
				C66.4,100.6,66.7,100.7,67.1,100.7z"/>
			<path class="st0" d="M72.2,96.4h1.4l0,0.9c0.2-0.3,0.4-0.6,0.6-0.7c0.3-0.2,0.6-0.3,0.9-0.3c0.2,0,0.4,0,0.6,0.1l-0.1,1.4
				c-0.2-0.1-0.4-0.1-0.7-0.1c-0.4,0-0.7,0.1-1,0.4c-0.2,0.3-0.3,0.7-0.3,1.2v2.5h-1.5V96.4z"/>
			<path class="st0" d="M78,97.6H77v-1.2H78v-1.5h1.5v1.5h1.3v1.2h-1.3v4.3H78V97.6z"/>
		</g>
		<rect x="26.8" y="90.4" class="st0" width="25.7" height="16.9"/>
	</g>
	<g>
		<g>
			<path class="st0" d="M64.5,125.7h1.4l0,0.7c0.2-0.3,0.4-0.5,0.7-0.6c0.3-0.1,0.6-0.2,1-0.2c0.8,0,1.4,0.3,1.7,1
				c0.2-0.3,0.4-0.5,0.7-0.7c0.3-0.2,0.7-0.3,1.1-0.3c0.7,0,1.2,0.2,1.5,0.6c0.3,0.4,0.5,1,0.5,1.7v3.3h-1.5v-3.1
				c0-0.4-0.1-0.8-0.2-1c-0.2-0.2-0.4-0.3-0.7-0.3c-0.3,0-0.6,0.1-0.8,0.4c-0.2,0.2-0.3,0.6-0.3,1v3H68v-3.1c0-0.4-0.1-0.8-0.2-1
				s-0.4-0.3-0.7-0.3c-0.3,0-0.6,0.1-0.8,0.4c-0.2,0.2-0.3,0.6-0.3,1v3h-1.5V125.7z"/>
			<path class="st0" d="M78.1,131.3c-0.6,0-1.2-0.1-1.7-0.3c-0.5-0.2-0.9-0.6-1.1-1c-0.3-0.4-0.4-1-0.4-1.6c0-0.6,0.1-1.1,0.3-1.5
				c0.2-0.4,0.6-0.8,1-1c0.4-0.3,0.9-0.4,1.5-0.4c0.5,0,1,0.1,1.4,0.3c0.4,0.2,0.7,0.5,0.9,0.9c0.2,0.4,0.3,0.9,0.3,1.5
				c0,0.2,0,0.5-0.1,0.6h-3.9c0.2,0.8,0.8,1.2,1.9,1.2c0.3,0,0.7,0,1-0.1c0.3-0.1,0.6-0.2,0.8-0.3l0.2,1.2c-0.3,0.1-0.6,0.3-1,0.3
				C78.9,131.3,78.5,131.3,78.1,131.3z M78.9,127.8c0-0.4-0.2-0.7-0.4-0.9c-0.2-0.2-0.5-0.3-0.8-0.3c-0.3,0-0.6,0.1-0.9,0.3
				c-0.2,0.2-0.4,0.5-0.4,0.9H78.9z"/>
			<path class="st0" d="M82.7,126.9h-1.1v-1.2h1.1v-1.5h1.5v1.5h1.3v1.2h-1.3v4.3h-1.5V126.9z"/>
			<path class="st0" d="M89.3,131.3c-0.5,0-0.9-0.1-1.3-0.4c-0.4-0.2-0.7-0.6-0.9-1c-0.2-0.4-0.3-1-0.3-1.5c0-0.5,0.1-1,0.3-1.5
				c0.2-0.4,0.5-0.8,0.9-1.1c0.4-0.3,0.9-0.4,1.4-0.4c0.4,0,0.7,0.1,1,0.2c0.3,0.2,0.5,0.4,0.7,0.7l0-0.7h1.4v5.5h-1.4l0-0.7
				c-0.2,0.3-0.4,0.5-0.7,0.7C90,131.3,89.7,131.3,89.3,131.3z M89.7,130c0.4,0,0.8-0.1,1-0.4c0.3-0.3,0.4-0.7,0.4-1.1
				c0-0.5-0.1-0.8-0.4-1.1c-0.3-0.3-0.6-0.4-1.1-0.4c-0.4,0-0.8,0.1-1.1,0.4c-0.3,0.3-0.4,0.7-0.4,1.1c0,0.5,0.1,0.9,0.4,1.1
				C88.9,129.9,89.2,130,89.7,130z"/>
			<path class="st0" d="M94.1,125.7h1.7l1.3,3.9l1.3-3.9h1.6l-2.1,5.5h-1.6L94.1,125.7z"/>
			<path class="st0" d="M104.1,131.3c-0.6,0-1.2-0.1-1.7-0.3c-0.5-0.2-0.9-0.6-1.1-1c-0.3-0.4-0.4-1-0.4-1.6c0-0.6,0.1-1.1,0.3-1.5
				c0.2-0.4,0.6-0.8,1-1c0.4-0.3,0.9-0.4,1.5-0.4c0.5,0,1,0.1,1.4,0.3c0.4,0.2,0.7,0.5,0.9,0.9c0.2,0.4,0.3,0.9,0.3,1.5
				c0,0.2,0,0.5-0.1,0.6h-3.9c0.2,0.8,0.8,1.2,1.9,1.2c0.3,0,0.7,0,1-0.1c0.3-0.1,0.6-0.2,0.8-0.3l0.2,1.2c-0.3,0.1-0.6,0.3-1,0.3
				C104.9,131.3,104.5,131.3,104.1,131.3z M104.9,127.8c0-0.4-0.2-0.7-0.4-0.9c-0.2-0.2-0.5-0.3-0.8-0.3c-0.3,0-0.6,0.1-0.9,0.3
				c-0.2,0.2-0.4,0.5-0.4,0.9H104.9z"/>
			<path class="st0" d="M108.2,125.7h1.4l0,0.9c0.2-0.3,0.4-0.6,0.6-0.7c0.3-0.2,0.6-0.3,0.9-0.3c0.2,0,0.4,0,0.6,0.1l-0.1,1.4
				c-0.2-0.1-0.4-0.1-0.7-0.1c-0.4,0-0.7,0.1-1,0.4c-0.2,0.3-0.3,0.7-0.3,1.2v2.5h-1.5V125.7z"/>
			<path class="st0" d="M115.2,131.3c-0.4,0-0.8,0-1.2-0.1s-0.7-0.2-0.9-0.4l0.2-1.2c0.2,0.2,0.5,0.3,0.9,0.4
				c0.3,0.1,0.6,0.2,0.9,0.2c0.6,0,0.9-0.2,0.9-0.5c0-0.2-0.1-0.3-0.2-0.4c-0.1-0.1-0.4-0.2-0.8-0.3c-0.6-0.2-1.1-0.4-1.4-0.7
				c-0.3-0.3-0.4-0.7-0.4-1.1c0-0.5,0.2-0.9,0.6-1.2c0.4-0.3,0.9-0.5,1.6-0.5c0.3,0,0.7,0,1,0.1c0.3,0.1,0.6,0.2,0.8,0.3l-0.2,1.2
				c-0.2-0.1-0.5-0.2-0.8-0.3c-0.3-0.1-0.6-0.1-0.8-0.1c-0.5,0-0.8,0.1-0.8,0.4c0,0.2,0.1,0.3,0.2,0.4s0.4,0.2,0.8,0.3
				c0.7,0.2,1.2,0.4,1.5,0.7c0.3,0.3,0.4,0.7,0.4,1.1c0,0.5-0.2,1-0.6,1.3C116.5,131.2,115.9,131.3,115.2,131.3z"/>
			<path class="st0" d="M122.2,131.3c-0.6,0-1.2-0.1-1.7-0.3c-0.5-0.2-0.9-0.6-1.1-1c-0.3-0.4-0.4-1-0.4-1.6c0-0.6,0.1-1.1,0.3-1.5
				c0.2-0.4,0.6-0.8,1-1c0.4-0.3,0.9-0.4,1.5-0.4c0.5,0,1,0.1,1.4,0.3c0.4,0.2,0.7,0.5,0.9,0.9c0.2,0.4,0.3,0.9,0.3,1.5
				c0,0.2,0,0.5-0.1,0.6h-3.9c0.2,0.8,0.8,1.2,1.9,1.2c0.3,0,0.7,0,1-0.1c0.3-0.1,0.6-0.2,0.8-0.3l0.2,1.2c-0.3,0.1-0.6,0.3-1,0.3
				C123,131.3,122.6,131.3,122.2,131.3z M123,127.8c0-0.4-0.2-0.7-0.4-0.9c-0.2-0.2-0.5-0.3-0.8-0.3c-0.3,0-0.6,0.1-0.9,0.3
				c-0.2,0.2-0.4,0.5-0.4,0.9H123z"/>
		</g>
		<rect x="26.8" y="119.3" class="st4" width="25.7" height="16.9"/>
	</g>
	<g>
		<g>
			<path class="st0" d="M66.2,160.2c-0.4,0-0.8,0-1.2-0.1c-0.4-0.1-0.7-0.2-0.9-0.4l0.2-1.2c0.2,0.2,0.5,0.3,0.9,0.4
				c0.3,0.1,0.6,0.2,0.9,0.2c0.6,0,0.9-0.2,0.9-0.5c0-0.2-0.1-0.3-0.2-0.4c-0.1-0.1-0.4-0.2-0.8-0.3c-0.6-0.2-1.1-0.4-1.4-0.7
				c-0.3-0.3-0.4-0.7-0.4-1.1c0-0.5,0.2-0.9,0.6-1.2c0.4-0.3,0.9-0.5,1.6-0.5c0.3,0,0.7,0,1,0.1c0.3,0.1,0.6,0.2,0.8,0.3l-0.2,1.2
				c-0.2-0.1-0.5-0.2-0.8-0.3c-0.3-0.1-0.6-0.1-0.8-0.1c-0.5,0-0.8,0.1-0.8,0.4c0,0.2,0.1,0.3,0.2,0.4c0.1,0.1,0.4,0.2,0.8,0.3
				c0.7,0.2,1.2,0.4,1.5,0.7c0.3,0.3,0.4,0.7,0.4,1.1c0,0.5-0.2,1-0.6,1.3C67.5,160.1,66.9,160.2,66.2,160.2z"/>
			<path class="st0" d="M70.4,154.5h1.4l0,0.7c0.4-0.6,1-0.9,1.8-0.9c0.5,0,0.9,0.1,1.3,0.4c0.4,0.2,0.7,0.6,0.9,1
				c0.2,0.4,0.3,1,0.3,1.5c0,0.5-0.1,1-0.3,1.5c-0.2,0.4-0.5,0.8-0.9,1.1c-0.4,0.3-0.9,0.4-1.4,0.4c-0.4,0-0.7-0.1-1-0.2
				c-0.3-0.1-0.5-0.3-0.7-0.6v3.3h-1.5V154.5z M73.2,158.9c0.4,0,0.8-0.1,1.1-0.4c0.3-0.3,0.4-0.7,0.4-1.1c0-0.5-0.1-0.9-0.4-1.1
				c-0.3-0.3-0.6-0.4-1-0.4c-0.4,0-0.8,0.1-1,0.4c-0.3,0.3-0.4,0.7-0.4,1.1c0,0.5,0.1,0.8,0.4,1.1C72.4,158.7,72.8,158.9,73.2,158.9
				z"/>
			<path class="st0" d="M80.7,160.2c-0.5,0-1-0.1-1.5-0.4c-0.5-0.2-0.8-0.6-1.1-1c-0.3-0.4-0.4-1-0.4-1.5c0-0.5,0.1-1,0.4-1.5
				c0.2-0.4,0.6-0.8,1.1-1.1c0.5-0.3,1-0.4,1.5-0.4c0.5,0,1,0.1,1.5,0.4c0.5,0.2,0.8,0.6,1.1,1c0.3,0.4,0.4,1,0.4,1.5
				c0,0.5-0.1,1-0.4,1.5c-0.2,0.4-0.6,0.8-1.1,1.1C81.8,160.1,81.3,160.2,80.7,160.2z M80.7,158.9c0.4,0,0.8-0.1,1-0.4
				c0.3-0.3,0.4-0.7,0.4-1.1c0-0.5-0.1-0.8-0.4-1.1c-0.3-0.3-0.6-0.4-1.1-0.4c-0.4,0-0.8,0.1-1.1,0.4c-0.3,0.3-0.4,0.7-0.4,1.1
				c0,0.5,0.1,0.9,0.4,1.1C79.9,158.7,80.3,158.9,80.7,158.9z"/>
			<path class="st0" d="M85.5,154.5H87l0,0.9c0.2-0.3,0.4-0.6,0.6-0.7c0.3-0.2,0.6-0.3,0.9-0.3c0.2,0,0.4,0,0.6,0.1L89,156
				c-0.2-0.1-0.4-0.1-0.7-0.1c-0.4,0-0.7,0.1-1,0.4c-0.2,0.3-0.3,0.7-0.3,1.2v2.5h-1.5V154.5z"/>
			<path class="st0" d="M91.4,155.8h-1.1v-1.2h1.1V153h1.5v1.5h1.3v1.2h-1.3v4.3h-1.5V155.8z"/>
			<path class="st0" d="M97.6,160.2c-0.4,0-0.8,0-1.2-0.1c-0.4-0.1-0.7-0.2-0.9-0.4l0.2-1.2c0.2,0.2,0.5,0.3,0.9,0.4
				c0.3,0.1,0.6,0.2,0.9,0.2c0.6,0,0.9-0.2,0.9-0.5c0-0.2-0.1-0.3-0.2-0.4c-0.1-0.1-0.4-0.2-0.8-0.3c-0.6-0.2-1.1-0.4-1.4-0.7
				c-0.3-0.3-0.4-0.7-0.4-1.1c0-0.5,0.2-0.9,0.6-1.2c0.4-0.3,0.9-0.5,1.6-0.5c0.3,0,0.7,0,1,0.1c0.3,0.1,0.6,0.2,0.8,0.3l-0.2,1.2
				c-0.2-0.1-0.5-0.2-0.8-0.3c-0.3-0.1-0.6-0.1-0.8-0.1c-0.5,0-0.8,0.1-0.8,0.4c0,0.2,0.1,0.3,0.2,0.4c0.1,0.1,0.4,0.2,0.8,0.3
				c0.7,0.2,1.2,0.4,1.5,0.7c0.3,0.3,0.4,0.7,0.4,1.1c0,0.5-0.2,1-0.6,1.3C98.9,160.1,98.3,160.2,97.6,160.2z"/>
		</g>
		<rect x="26.8" y="148.1" class="st5" width="25.7" height="16.9"/>
	</g>
</g>
</svg>
