<svg id="GAME" mobilanim="none" width="146px" height="189px" viewBox="0 0 146 189" version="1.1" xmlns="http://www.w3.org/2000/svg" xmlns:xlink="http://www.w3.org/1999/xlink">
    <title>INFOGRAPHIE_2.3</title>
    <g id="Welcome" stroke="none" stroke-width="1" fill="none" fill-rule="evenodd">
        <g id="INFOGRAPHIE_2.3" fill-rule="nonzero">
            <g id="Group" transform="translate(0.000000, 44.000000)">
                <path d="M73.3493136,23.9 C72.7410771,23.9 72.2342133,23.9 71.6259768,23.9 C69.6998944,24.0016949 67.6724393,24.2050847 65.8477297,24.4084746 C42.9374868,28.0694915 25.4,47.9 25.4,71.9 C25.4,93.5610169 39.6935586,111.866102 59.3598733,117.866102 C63.3134108,119.086441 67.4696938,119.798305 71.7273495,119.9 C72.2342133,119.9 72.8424498,119.9 73.4506864,119.9 C75.9850053,119.9 78.5193242,119.69661 80.9522703,119.289831 C103.862513,115.628814 121.4,95.7983051 121.4,71.7983051 C121.298627,45.459322 99.807603,23.9 73.3493136,23.9 Z" id="Path" fill="#A2EFAC"></path>
                <path d="M73,24.9 L73,0.1 C72.2,0.1 71.2,0.1 70.5,0.1 L71.4,24.9 C71.9,24.9 72.5,24.9 73,24.9 Z" id="Path" fill="#C4F7C9"></path>
                <path d="M71.4,25 L70.5,0.2 C67.4,0.3 64.8,0.6 61.7,1 L65.6,25.5 C67.5,25.2 69.4,25 71.4,25 Z" id="Path" fill="#A2EFAC"></path>
                <path d="M25.7,72.2 C25.7,48.6 43,29 65.6,25.5 L61.7,1 C33.7,5.4 12.3,24.1 4,51.1 C-7.6,89.2 13.8,129.5 51.9,141.1 L59.1,117.4 C39.8,111.5 25.7,93.5 25.7,72.2 Z" id="Path" fill="#8F4FEB"></path>
                <path d="M59.2,117.4 L52,141.1 C58.1,143 64.2,144 70.6,144.2 L71.5,119.4 C67.1,119.3 63.1,118.6 59.2,117.4 Z" id="Path" fill="#D9C4F7"></path>
                <path d="M73,119.5 C72.4,119.5 71.9,119.5 71.3,119.5 L70.4,144.3 C75.1,144.5 79.5,144.2 84.2,143.5 L80.3,119 C78,119.3 75.5,119.5 73,119.5 Z" id="Path" fill="#B691F0"></path>
                <path d="M73,0.1 L73,24.9 C99.1,24.9 120.3,46.1 120.3,72.2 C120.3,95.8 103,115.4 80.4,118.9 L84.3,143.4 C120.1,137.7 145.1,108.4 145.1,72.2 C145.1,32.4 112.8,0.1 73,0.1 Z" id="Path" fill="#44E559"></path>
            </g>
            <g id="Group" transform="translate(52.000000, 0.000000)" fill="#8B50E7">
                <path d="M2.6,8.7 C2.3,8.7 1.9,8.7 1.5,8.6 C1.1,8.5 0.8,8.4 0.6,8.3 L0.7,7.1 C0.9,7.2 1.2,7.3 1.5,7.4 C1.8,7.5 2.1,7.5 2.4,7.5 C3,7.5 3.4,7.4 3.6,7.1 C3.9,6.8 4,6.4 4,5.9 L4,5.5 C3.8,5.8 3.6,6 3.3,6.1 C3,6.2 2.7,6.3 2.3,6.3 C1.9,6.3 1.5,6.2 1.1,6 C0.7,5.8 0.5,5.5 0.3,5.1 C0.1,4.7 0,4.2 0,3.7 C0,3.2 0.1,2.8 0.3,2.4 C0.5,2 0.8,1.7 1.2,1.4 C1.6,1.2 2,1 2.4,1 C2.7,1 3.1,1.1 3.3,1.2 C3.6,1.3 3.8,1.5 4,1.8 L4,1.1 L5.3,1.1 L5.3,5.8 C5.3,6.7 5.1,7.5 4.6,7.9 C4.3,8.4 3.6,8.7 2.6,8.7 Z M2.8,5.1 C3.2,5.1 3.5,5 3.8,4.7 C4.1,4.4 4.2,4.1 4.2,3.6 C4.2,3.2 4.1,2.8 3.8,2.6 C3.6,2.3 3.2,2.2 2.8,2.2 C2.4,2.2 2.1,2.3 1.8,2.6 C1.6,2.9 1.4,3.2 1.4,3.6 C1.4,4 1.5,4.4 1.8,4.7 C2.1,5 2.5,5.1 2.8,5.1 Z" id="Shape"></path>
                <path d="M9.5,6.3 C9.1,6.3 8.7,6.2 8.3,6 C7.9,5.8 7.7,5.5 7.5,5.1 C7.3,4.7 7.2,4.2 7.2,3.7 C7.2,3.2 7.3,2.8 7.5,2.4 C7.7,2 8,1.7 8.4,1.4 C8.8,1.2 9.2,1 9.6,1 C9.9,1 10.3,1.1 10.5,1.2 C10.8,1.3 11,1.5 11.2,1.8 L11.2,1.1 L12.5,1.1 L12.5,6.1 L11.2,6.1 L11.2,5.5 C11,5.8 10.8,6 10.5,6.1 C10.2,6.3 9.9,6.3 9.5,6.3 Z M9.9,5.1 C10.3,5.1 10.6,5 10.9,4.7 C11.2,4.4 11.3,4.1 11.3,3.6 C11.3,3.2 11.2,2.8 10.9,2.6 C10.7,2.3 10.3,2.2 9.9,2.2 C9.5,2.2 9.2,2.3 8.9,2.6 C8.7,2.9 8.5,3.2 8.5,3.6 C8.5,4 8.6,4.4 8.9,4.7 C9.2,5 9.5,5.1 9.9,5.1 Z" id="Shape"></path>
                <path d="M14.5,1.1 L15.8,1.1 L15.8,1.7 C16,1.4 16.2,1.2 16.4,1.1 C16.7,1 17,0.9 17.3,0.9 C18,0.9 18.5,1.2 18.8,1.8 C18.9,1.5 19.2,1.3 19.4,1.1 C19.7,0.9 20,0.9 20.4,0.9 C21,0.9 21.5,1.1 21.8,1.4 C22.1,1.8 22.3,2.3 22.3,3 L22.3,6.1 L21,6.1 L21,3.3 C21,2.9 20.9,2.6 20.8,2.4 C20.7,2.2 20.4,2.1 20.1,2.1 C19.8,2.1 19.6,2.2 19.4,2.4 C19.2,2.6 19.1,2.9 19.1,3.3 L19.1,6 L17.7,6 L17.7,3.2 C17.7,2.8 17.6,2.5 17.5,2.3 C17.4,2.1 17.1,2 16.8,2 C16.5,2 16.2,2.1 16.1,2.3 C15.9,2.5 15.8,2.8 15.8,3.2 L15.8,5.9 L14.4,5.9 L14.4,1.1 L14.5,1.1 Z" id="Path"></path>
                <path d="M26.9,6.3 C26.3,6.3 25.8,6.2 25.4,6 C25,5.8 24.6,5.5 24.4,5.1 C24.2,4.7 24,4.2 24,3.7 C24,3.2 24.1,2.7 24.3,2.3 C24.5,1.9 24.8,1.6 25.2,1.3 C25.6,1.1 26,0.9 26.6,0.9 C27.1,0.9 27.5,1 27.9,1.2 C28.3,1.4 28.5,1.7 28.7,2.1 C28.9,2.5 29,2.9 29,3.4 C29,3.6 29,3.8 29,4 L25.4,4 C25.6,4.8 26.1,5.1 27.1,5.1 C27.4,5.1 27.7,5.1 28,5 C28.3,4.9 28.5,4.8 28.8,4.7 L28.9,5.8 C28.7,5.9 28.4,6 28,6.1 C27.7,6.3 27.3,6.3 26.9,6.3 Z M27.7,3.1 C27.7,2.7 27.6,2.5 27.4,2.3 C27.2,2.1 26.9,2 26.6,2 C26.3,2 26,2.1 25.8,2.3 C25.6,2.5 25.5,2.8 25.4,3.1 L27.7,3.1 Z" id="Shape"></path>
            </g>
            <g id="Group" transform="translate(56.000000, 106.000000)" fill="#8B50E7">
                <path d="M10.4,9.7 L10.4,14.1 L0.7,14.1 L0.7,14.1 L1.6,12.9 C4.8,8.8 6,6.4 6,3.8 C6,1.9 5.5,0.8 4.6,0.8 C4.5,0.8 4.3,0.8 4.2,0.9 L2.3,6.2 L2.3,6.2 L0.8,1.6 C2.1,0.9 3.6,0.5 5.2,0.5 C8.5,0.5 10.2,1.7 10.2,3.9 C10.2,6 8.7,7.6 3.6,10.8 L10,10.8 L10,9.7 L10.4,9.7 L10.4,9.7 Z" id="Path"></path>
                <path d="M17.4,4.6 C17.4,2.3 18.7,0.5 21.2,0.5 C23.6,0.5 25,2.3 25,4.6 C25,6.9 23.7,8.8 21.2,8.8 C18.7,8.8 17.4,6.9 17.4,4.6 Z M22,4.6 C22,2 21.8,0.7 21.1,0.7 C20.4,0.7 20.2,2 20.2,4.6 C20.2,7.2 20.4,8.6 21.1,8.6 C21.8,8.6 22,7.2 22,4.6 Z M29,0.8 L29.8,0.8 L22.5,14 L21.8,14 L29,0.8 Z M26.5,10.2 C26.5,7.9 27.8,6.1 30.3,6.1 C32.7,6.1 34.1,7.9 34.1,10.2 C34.1,12.5 32.8,14.4 30.3,14.4 C27.8,14.4 26.5,12.5 26.5,10.2 Z M31.1,10.2 C31.1,7.6 30.9,6.3 30.2,6.3 C29.5,6.3 29.3,7.6 29.3,10.2 C29.3,12.8 29.5,14.2 30.2,14.2 C30.9,14.1 31.1,12.8 31.1,10.2 Z" id="Shape"></path>
            </g>
            <rect id="Rectangle" fill="#8B50E7" x="66.9" y="14.7" width="1" height="37.9"></rect>
        </g>
    </g>
</svg>