<svg id="METAVERSE" mobilanim="none" width="145px" height="190px" viewBox="0 0 145 190" version="1.1" xmlns="http://www.w3.org/2000/svg" xmlns:xlink="http://www.w3.org/1999/xlink">
    <title>INFOGRAPHIE_2.6</title>
    <g id="Welcome" stroke="none" stroke-width="1" fill="none" fill-rule="evenodd">
        <g id="INFOGRAPHIE_2.6" fill-rule="nonzero">
            <g id="Group">
                <path d="M72.8493136,24.6 C72.2410771,24.6 71.7342133,24.6 71.1259768,24.6 C69.1998944,24.7016949 67.1724393,24.9050847 65.3477297,25.1084746 C42.4374868,28.7694915 24.9,48.6 24.9,72.6 C24.9,94.2610169 39.1935586,112.566102 58.8598733,118.566102 C62.8134108,119.786441 66.9696938,120.498305 71.2273495,120.6 C71.7342133,120.6 72.3424498,120.6 72.9506864,120.6 C75.4850053,120.6 78.0193242,120.39661 80.4522703,119.989831 C103.362513,116.328814 120.9,96.4983051 120.9,72.4983051 C120.798627,46.159322 99.4089757,24.6 72.8493136,24.6 Z" id="Path" fill="#B691F0"></path>
                <path d="M72.5,25.6 L72.5,0.8 C71.7,0.8 70.7,0.8 70,0.8 L70.9,25.6 C71.4,25.6 72,25.6 72.5,25.6 Z" id="Path" fill="#C4F7C9"></path>
                <path d="M70.9,25.7 L70,0.9 C66.9,1 64.3,1.3 61.2,1.7 L65.1,26.2 C67,25.9 68.9,25.7 70.9,25.7 Z" id="Path" fill="#A2EFAC"></path>
                <path d="M25.3,72.9 C25.3,49.3 42.6,29.7 65.2,26.2 L61.3,1.7 C33.3,6.1 11.9,24.8 3.6,51.8 C-8,89.9 13.4,130.2 51.5,141.8 L58.7,118.1 C39.3,112.2 25.3,94.2 25.3,72.9 Z" id="Path" fill="#8F4FEB"></path>
                <path d="M58.7,118.1 L51.5,141.8 C57.6,143.7 63.7,144.7 70.1,144.9 L71,120.1 C66.7,120 62.6,119.3 58.7,118.1 Z" id="Path" fill="#D9C4F7"></path>
                <path d="M72.5,120.2 C71.9,120.2 71.4,120.2 70.8,120.2 L70,145 C74.7,145.2 79.1,144.9 83.8,144.2 L79.9,119.7 C77.5,120 75.1,120.2 72.5,120.2 Z" id="Path" fill="#B691F0"></path>
                <path d="M72.5,0.8 L72.5,25.6 C98.6,25.6 119.8,46.8 119.8,72.9 C119.8,96.5 102.5,116.1 79.9,119.6 L83.8,144.1 C119.6,138.4 144.6,109.1 144.6,72.9 C144.6,33.1 112.3,0.8 72.5,0.8 Z" id="Path" fill="#44E559"></path>
            </g>
            <g id="Group" transform="translate(48.000000, 183.000000)" fill="#8B50E7">
                <path d="M1.1,1.7 L2.4,1.7 L2.4,2.3 C2.6,2 2.8,1.8 3,1.7 C3.2,1.6 3.6,1.5 3.9,1.5 C4.6,1.5 5.1,1.8 5.4,2.4 C5.5,2.1 5.8,1.9 6,1.7 C6.3,1.5 6.6,1.5 7,1.5 C7.6,1.5 8.1,1.7 8.4,2 C8.7,2.4 8.9,2.9 8.9,3.6 L8.9,6.7 L7.5,6.7 L7.5,3.9 C7.5,3.5 7.4,3.2 7.3,3 C7.2,2.8 6.9,2.7 6.6,2.7 C6.3,2.7 6.1,2.8 5.9,3 C5.7,3.2 5.6,3.5 5.6,3.9 L5.6,6.6 L4.2,6.6 L4.2,3.8 C4.2,3.4 4.1,3.1 4,2.9 C3.9,2.7 3.6,2.6 3.3,2.6 C3,2.6 2.7,2.7 2.6,2.9 C2.4,3.1 2.3,3.4 2.3,3.8 L2.3,6.5 L0.9,6.5 L0.9,1.7 L1.1,1.7 Z" id="Path"></path>
                <path d="M13.6,6.9 C13,6.9 12.5,6.8 12.1,6.6 C11.7,6.4 11.3,6.1 11.1,5.7 C10.9,5.3 10.7,4.8 10.7,4.3 C10.7,3.8 10.8,3.3 11,2.9 C11.2,2.5 11.5,2.2 11.9,1.9 C12.3,1.7 12.7,1.5 13.3,1.5 C13.8,1.5 14.2,1.6 14.6,1.8 C15,2 15.2,2.3 15.4,2.7 C15.6,3.1 15.7,3.5 15.7,4 C15.7,4.2 15.7,4.4 15.7,4.6 L12,4.6 C12.2,5.4 12.7,5.7 13.7,5.7 C14,5.7 14.3,5.7 14.6,5.6 C14.9,5.5 15.1,5.4 15.4,5.3 L15.5,6.4 C15.3,6.5 15,6.6 14.6,6.7 C14.4,6.9 14,6.9 13.6,6.9 Z M14.3,3.7 C14.3,3.3 14.2,3.1 14,2.9 C13.8,2.7 13.5,2.6 13.2,2.6 C12.9,2.6 12.6,2.7 12.4,2.9 C12.2,3.1 12.1,3.4 12,3.7 L14.3,3.7 Z" id="Shape"></path>
                <polygon id="Path" points="17.9 2.8 16.9 2.8 16.9 1.7 17.9 1.7 17.9 0.3 19.3 0.3 19.3 1.7 20.5 1.7 20.5 2.8 19.3 2.8 19.3 6.7 17.9 6.7"></polygon>
                <path d="M23.9,6.9 C23.5,6.9 23.1,6.8 22.7,6.6 C22.3,6.4 22.1,6.1 21.9,5.7 C21.7,5.3 21.6,4.8 21.6,4.3 C21.6,3.8 21.7,3.4 21.9,3 C22.1,2.6 22.4,2.3 22.8,2 C23.2,1.8 23.6,1.6 24,1.6 C24.3,1.6 24.7,1.7 24.9,1.8 C25.2,1.9 25.4,2.1 25.6,2.4 L25.6,1.7 L26.9,1.7 L26.9,6.7 L25.6,6.7 L25.6,6.1 C25.4,6.4 25.2,6.6 24.9,6.7 C24.6,6.8 24.2,6.9 23.9,6.9 Z M24.2,5.7 C24.6,5.7 24.9,5.6 25.2,5.3 C25.5,5 25.6,4.7 25.6,4.2 C25.6,3.8 25.5,3.4 25.2,3.2 C25,2.9 24.6,2.8 24.2,2.8 C23.8,2.8 23.5,2.9 23.2,3.2 C23,3.5 22.8,3.8 22.8,4.2 C22.8,4.6 22.9,5 23.2,5.3 C23.5,5.5 23.8,5.7 24.2,5.7 Z" id="Shape"></path>
                <polygon id="Path" points="28.3 1.7 29.8 1.7 31 5.3 32.2 1.7 33.6 1.7 31.6 6.7 30.2 6.7"></polygon>
                <path d="M37.5,6.9 C36.9,6.9 36.4,6.8 36,6.6 C35.6,6.4 35.2,6.1 35,5.7 C34.8,5.3 34.6,4.8 34.6,4.3 C34.6,3.8 34.7,3.3 34.9,2.9 C35.1,2.5 35.4,2.2 35.8,1.9 C36.2,1.7 36.6,1.5 37.2,1.5 C37.7,1.5 38.1,1.6 38.5,1.8 C38.9,2 39.1,2.3 39.3,2.7 C39.5,3.1 39.6,3.5 39.6,4 C39.6,4.2 39.6,4.4 39.6,4.6 L36,4.6 C36.2,5.4 36.7,5.7 37.7,5.7 C38,5.7 38.3,5.7 38.6,5.6 C38.9,5.5 39.1,5.4 39.4,5.3 L39.5,6.4 C39.3,6.5 39,6.6 38.6,6.7 C38.2,6.8 37.9,6.9 37.5,6.9 Z M38.2,3.7 C38.2,3.3 38.1,3.1 37.9,2.9 C37.7,2.7 37.4,2.6 37.1,2.6 C36.8,2.6 36.5,2.7 36.3,2.9 C36.1,3.1 36,3.4 35.9,3.7 L38.2,3.7 Z" id="Shape"></path>
                <path d="M41.3,1.7 L42.6,1.7 L42.6,2.5 C42.7,2.2 42.9,2 43.2,1.8 C43.4,1.6 43.7,1.6 44,1.6 C44.2,1.6 44.4,1.6 44.6,1.7 L44.5,3 C44.3,2.9 44.1,2.9 43.9,2.9 C43.5,2.9 43.2,3 43,3.3 C42.8,3.6 42.7,4 42.7,4.4 L42.7,6.7 L41.3,6.7 L41.3,1.7 Z" id="Path"></path>
                <path d="M47.6,6.9 C47.2,6.9 46.9,6.9 46.5,6.8 C46.1,6.7 45.9,6.6 45.7,6.4 L45.9,5.3 C46.1,5.5 46.4,5.6 46.7,5.7 C47,5.8 47.3,5.8 47.6,5.8 C48.2,5.8 48.4,5.7 48.4,5.4 C48.4,5.2 48.3,5.1 48.2,5.1 C48.1,5 47.8,4.9 47.5,4.8 C46.9,4.6 46.5,4.4 46.2,4.2 C45.9,3.9 45.8,3.6 45.8,3.2 C45.8,2.7 46,2.3 46.3,2.1 C46.7,1.8 47.2,1.7 47.8,1.7 C48.1,1.7 48.4,1.7 48.7,1.8 C49,1.9 49.3,2 49.5,2.1 L49.3,3.2 C49.1,3.1 48.9,3 48.6,2.9 C48.3,2.8 48.1,2.8 47.8,2.8 C47.3,2.8 47.1,2.9 47.1,3.2 C47.1,3.3 47.2,3.5 47.3,3.5 C47.4,3.5 47.6,3.7 48,3.8 C48.6,4 49.1,4.2 49.3,4.5 C49.6,4.8 49.7,5.1 49.7,5.5 C49.7,6 49.5,6.4 49.1,6.6 C48.8,6.8 48.3,6.9 47.6,6.9 Z" id="Path"></path>
                <path d="M54.1,6.9 C53.5,6.9 53,6.8 52.6,6.6 C52.2,6.4 51.8,6.1 51.6,5.7 C51.4,5.3 51.2,4.8 51.2,4.3 C51.2,3.8 51.3,3.3 51.5,2.9 C51.7,2.5 52,2.2 52.4,1.9 C52.8,1.7 53.2,1.5 53.8,1.5 C54.3,1.5 54.7,1.6 55.1,1.8 C55.5,2 55.7,2.3 55.9,2.7 C56.1,3.1 56.2,3.5 56.2,4 C56.2,4.2 56.2,4.4 56.2,4.6 L52.6,4.6 C52.8,5.4 53.3,5.7 54.3,5.7 C54.6,5.7 54.9,5.7 55.2,5.6 C55.5,5.5 55.7,5.4 56,5.3 L56.1,6.4 C55.9,6.5 55.6,6.6 55.2,6.7 C54.8,6.9 54.5,6.9 54.1,6.9 Z M54.8,3.7 C54.8,3.3 54.7,3.1 54.5,2.9 C54.3,2.7 54,2.6 53.7,2.6 C53.4,2.6 53.1,2.7 52.9,2.9 C52.7,3.1 52.6,3.4 52.5,3.7 L54.8,3.7 Z" id="Shape"></path>
            </g>
            <g id="Group" transform="translate(56.000000, 63.000000)" fill="#FFFFFF">
                <path d="M10.6,10 C10.6,12.5 8.4,14.1 4.5,14.1 C3.1,14.1 1.8,13.8 0.6,13.3 L1.4,8.9 L1.4,8.9 L3.9,13.7 C4,13.7 4.1,13.8 4.3,13.8 C5.4,13.8 6.3,12.6 6.3,10.4 C6.3,8.5 5,7 2.9,7 L2.9,6.8 C4.9,6.8 5.6,5.7 5.6,3.3 C5.6,1.6 5.1,0.5 4.2,0.5 C4.1,0.5 3.9,0.5 3.8,0.6 L1.9,5.4 L1.9,5.4 L0.3,1.4 C1.7,0.6 3.2,0.2 4.9,0.2 C8,0.2 9.9,1.5 9.9,3.3 C9.9,5 8.2,6.3 5.9,6.7 C8.7,6.9 10.6,8.2 10.6,10 Z" id="Path"></path>
                <path d="M17.4,4.3 C17.4,2 18.7,0.2 21.2,0.2 C23.6,0.2 25,2 25,4.3 C25,6.6 23.7,8.5 21.2,8.5 C18.8,8.5 17.4,6.6 17.4,4.3 Z M22.1,4.3 C22.1,1.7 21.9,0.4 21.2,0.4 C20.5,0.4 20.3,1.7 20.3,4.3 C20.3,6.9 20.5,8.3 21.2,8.3 C21.9,8.3 22.1,6.9 22.1,4.3 Z M29,0.5 L29.8,0.5 L22.5,13.7 L21.8,13.7 L29,0.5 Z M26.5,9.9 C26.5,7.6 27.8,5.8 30.3,5.8 C32.7,5.8 34.1,7.6 34.1,9.9 C34.1,12.2 32.8,14.1 30.3,14.1 C27.8,14.1 26.5,12.2 26.5,9.9 Z M31.1,9.9 C31.1,7.3 30.9,6 30.2,6 C29.5,6 29.3,7.3 29.3,9.9 C29.3,12.5 29.5,13.9 30.2,13.9 C30.9,13.8 31.1,12.5 31.1,9.9 Z" id="Shape"></path>
            </g>
            <rect id="Rectangle" fill="#8B50E7" x="76.7" y="136.4" width="1" height="37.9"></rect>
        </g>
    </g>
</svg>