<!-- Generator: Adobe Illustrator 25.3.1, SVG Export Plug-In . SVG Version: 6.00 Build 0)  -->
<svg version="1.1" id="Calque_1" xmlns="http://www.w3.org/2000/svg" xmlns:xlink="http://www.w3.org/1999/xlink" x="0px" y="0px"
	 viewBox="0 0 559 112.3" style="enable-background:new 0 0 559 112.3;" xml:space="preserve">
<style type="text/css">
	.st0{fill:#44E559;}
	.st1{fill:#8F4FEB;}
</style>
<path class="st0" d="M105.1,0C98,0,91.3,3.5,87.2,9.4c4.1,2.7,7.9,6,11.1,9.7c1.4-3.8,5.7-5.7,9.4-4.2c2.9,1.1,4.8,3.9,4.7,6.9v68.7
	c0,4-3.2,7.3-7.3,7.3c-3,0-5.7-1.8-6.8-4.6l0,0c-0.4-0.9-0.5-1.8-0.5-2.7V56.2c0-12.1-5.3-23.7-14.5-31.5v65.9
	c0,4.4,1.4,8.8,3.9,12.4l0,0c6.9,9.9,20.4,12.4,30.3,5.5c5.9-4.1,9.4-10.8,9.4-17.9V21.8C127,9.8,117.2,0,105.1,0
	C105.2,0,105.2,0,105.1,0z"/>
<path class="st1" d="M87.2,9.4C61.4-7.8,26.5-0.7,9.4,25.1s-10.1,60.7,15.7,77.9c18.8,12.5,43.3,12.5,62.1,0
	c-2.5-3.6-3.9-8-3.9-12.4v-2.8c-17.4,15-43.7,13.1-58.8-4.3C9.5,66,11.5,39.6,28.9,24.6c15.6-13.5,38.8-13.5,54.4,0l0,0
	c9.2,7.9,14.5,19.4,14.5,31.5l0,0v34.4c0,0.9,0.2,1.8,0.5,2.7C117,72,117,40.3,98.4,19.1l0,0C95.1,15.4,91.4,12.1,87.2,9.4z"/>
<path class="st0" d="M192.2,86.5c-9.7,0.2-18.7-5.3-23-14c-2.4-4.8-3.6-10.2-3.5-15.5c0-5.1,1.1-10.1,3.4-14.7
	c2.2-4.4,5.5-8.1,9.6-10.9c7.5-4.9,17-5.5,25.1-1.7c3.2,1.6,5.9,4,7.8,7l0.2-6.3c0-0.8,0.7-1.4,1.5-1.4h9.4c0.8,0,1.5,0.7,1.5,1.5
	v52.8c0,0.8-0.7,1.5-1.5,1.5h-9.4c-0.8,0-1.4-0.6-1.5-1.4l-0.2-6.2C207.6,83.4,201.1,86.5,192.2,86.5z M195.4,75.2
	c4.6,0.1,9.1-1.7,12.1-5.2c3.1-3.4,4.7-7.8,4.7-13.2c0-5.4-1.6-9.7-4.7-13.1c-6.6-6.7-17.3-6.8-24-0.2c-0.1,0.1-0.1,0.1-0.2,0.2
	c-3.2,3.4-4.7,7.8-4.7,13.1c0,5.4,1.6,9.8,4.7,13.2C186.3,73.4,190.7,75.3,195.4,75.2z"/>
<path class="st0" d="M239.6,29h9.2c0.8,0,1.4,0.6,1.5,1.4l0.1,7.9c1.4-3.1,3.6-5.7,6.5-7.6c2.9-1.8,6.2-2.7,9.5-2.6
	c1.1,0,2.2,0.1,3.3,0.3c0.7,0.1,1.3,0.3,2,0.5c0.7,0.2,1.1,0.9,1,1.5l-0.9,8.9c-0.1,0.8-0.8,1.4-1.6,1.3c-0.1,0-0.2,0-0.2,0
	c-1.6-0.5-3.3-0.7-4.9-0.7c-4.1-0.2-8,1.7-10.5,4.9c-2.5,3.3-3.7,7.8-3.7,13.6v24.8c0,0.8-0.7,1.5-1.5,1.5c0,0,0,0,0,0h-9.8
	c-0.8,0-1.5-0.6-1.5-1.4c0,0,0,0,0,0V30.5C238,29.7,238.7,29,239.6,29C239.5,29,239.6,29,239.6,29z"/>
<path class="st0" d="M291.4,39.7h-10.2c-0.8,0-1.5-0.7-1.5-1.5v-7.8c0-0.8,0.7-1.5,1.5-1.5h10.2V15c0-0.8,0.7-1.5,1.5-1.5h9.8
	c0.8,0,1.5,0.7,1.5,1.5V29h12.8c0.8,0,1.5,0.6,1.5,1.4c0,0,0,0,0,0v7.8c0,0.8-0.7,1.5-1.5,1.5c0,0,0,0,0,0H304v43.5
	c0,0.8-0.7,1.5-1.5,1.5h-9.8c-0.8,0-1.5-0.7-1.5-1.5V39.7z"/>
<path class="st0" d="M329.5,29h9.2c0.8,0,1.4,0.6,1.5,1.4l0.1,7.9l0,0c1.4-3.1,3.6-5.7,6.4-7.6c2.9-1.8,6.2-2.7,9.5-2.6
	c1.1,0,2.2,0.1,3.3,0.3c0.7,0.1,1.4,0.3,2,0.5c0.7,0.2,1.1,0.9,1,1.5l-0.9,8.9c-0.1,0.8-0.8,1.4-1.6,1.3c-0.1,0-0.2,0-0.3-0.1
	c-1.6-0.5-3.3-0.7-4.9-0.7c-4.1-0.2-8,1.7-10.4,4.9c-2.5,3.3-3.8,7.8-3.8,13.6v24.8c0,0.8-0.7,1.5-1.5,1.5h-9.8
	c-0.8,0-1.5-0.7-1.5-1.5V30.5C328.1,29.7,328.7,29,329.5,29C329.5,29,329.5,29,329.5,29z"/>
<path class="st0" d="M393.7,86.5c-9.7,0.2-18.7-5.3-23-14c-2.4-4.8-3.6-10.2-3.5-15.5c0-5.1,1.1-10.1,3.4-14.7
	c2.2-4.4,5.5-8.1,9.7-10.9c7.5-4.9,17-5.5,25.1-1.7c3.2,1.6,5.9,4,7.8,7l0.2-6.3c0-0.8,0.7-1.4,1.5-1.4h9.4c0.8,0,1.5,0.7,1.5,1.5
	l0,0v52.8c0,0.8-0.7,1.5-1.5,1.5l0,0h-9.4c-0.8,0-1.4-0.6-1.5-1.4l-0.2-6.2C409.2,83.4,402.7,86.5,393.7,86.5z M396.9,75.2
	c4.6,0.2,9.1-1.7,12.2-5.1c3.1-3.4,4.7-7.8,4.7-13.2c0-5.4-1.6-9.7-4.7-13.1c-6.6-6.7-17.3-6.8-24-0.2c-0.1,0.1-0.1,0.1-0.2,0.2
	c-3.2,3.4-4.7,7.8-4.7,13.1c0,5.4,1.6,9.8,4.7,13.2C387.8,73.4,392.3,75.3,396.9,75.2z"/>
<path class="st0" d="M463.2,86.5c-9.7,0.2-18.7-5.3-23-14c-2.4-4.8-3.6-10.2-3.5-15.5c0-5.1,1.1-10.1,3.4-14.7
	c2.2-4.4,5.5-8.1,9.6-10.9c7.5-4.8,16.9-5.5,24.9-1.8c3.2,1.5,5.9,3.8,7.8,6.8V14.9c0-0.8,0.7-1.5,1.5-1.5l0,0h9.8
	c0.8,0,1.5,0.7,1.5,1.5v0v68.3c0,0.8-0.7,1.5-1.5,1.5l0,0h-9.4c-0.8,0-1.4-0.6-1.5-1.4l-0.2-6.2C478.7,83.4,472.2,86.5,463.2,86.5z
	 M466.4,75.1c4.6,0.2,9.1-1.7,12.2-5.1c3.1-3.4,4.7-7.8,4.7-13.2c0-5.4-1.6-9.7-4.7-13.1c-6.6-6.7-17.3-6.8-24-0.2
	c-0.1,0.1-0.1,0.1-0.2,0.2c-3.2,3.4-4.7,7.8-4.7,13.1s1.6,9.8,4.7,13.2C457.3,73.4,461.8,75.3,466.4,75.1L466.4,75.1z"/>
<path class="st0" d="M536.6,86.5c-5.7,0.1-11.4-1.1-16.7-3.5c-4.7-2.2-8.5-5.8-11.1-10.2c-2.7-4.8-4.1-10.2-4-15.8
	c-0.1-5.3,1.1-10.5,3.5-15.2c2.2-4.4,5.7-8.1,9.9-10.7c4.5-2.7,9.6-4,14.8-3.9c4.7-0.1,9.4,1.1,13.5,3.3c3.9,2.2,7.2,5.6,9.2,9.6
	c2.3,4.5,3.4,9.6,3.3,14.7c0,1.8-0.1,3.6-0.3,5.5c-0.1,0.5-0.5,0.8-1,0.8h-40.2c0.6,4.4,2.9,8.4,6.5,11.1c3.5,2.6,8.1,3.9,13.7,3.9
	c6.1,0,12-1.3,17.6-3.7c0.5-0.2,1.1,0,1.3,0.6c0,0.1,0,0.1,0.1,0.2l1,7.9c0.1,0.4-0.1,0.8-0.5,1c-2.9,1.4-5.9,2.5-9.1,3.2
	C544.3,86.1,540.5,86.5,536.6,86.5z M546.6,51.5c-0.3-4.6-1.7-8.1-4.1-10.6c-2.4-2.5-5.8-3.8-10-3.8c-3.8-0.2-7.5,1.2-10.2,3.8
	c-2.7,2.5-4.3,6-4.8,10.6H546.6z"/>
</svg>
