<svg width="22px" height="20px" viewBox="0 0 22 20" version="1.1" xmlns="http://www.w3.org/2000/svg" xmlns:xlink="http://www.w3.org/1999/xlink">
    <title>C3C71BEE-50D7-4471-93A1-8FD0E78E8964</title>
    <defs>
        <filter id="filter-1">
            <feColorMatrix in="SourceGraphic" type="matrix" values="0 0 0 0 1.000000 0 0 0 0 1.000000 0 0 0 0 1.000000 0 0 0 1.000000 0"></feColorMatrix>
        </filter>
        <polygon id="path-2" points="0 0 22 0 22 13 0 13"></polygon>
    </defs>
    <g id="Welcome" stroke="none" stroke-width="1" fill="none" fill-rule="evenodd">
        <g id="SITE_ICO_ARTRADE_3" transform="translate(-965.000000, -649.000000)">
            <g id="Group-8-Copy" transform="translate(965.000000, 649.000000)">
                <path d="M15.0689972,11.9981858 C14.5100227,12.0311572 14.027272,11.6107715 14.001864,11.0585001 C13.9679868,10.5144715 14.3999216,10.0446286 14.9673655,10.0199001 L14.9673655,5.98914287 C14.9673655,5.44511429 15.4247082,5 15.9836827,5 C16.5426572,5 17,5.44511429 17,5.98914287 L17,10.1270572 C16.9915307,11.1574144 16.1361303,11.9899429 15.0689972,11.9981858" id="Fill-1" fill="#8F4FEB"></path>
                <g filter="url(#filter-1)" id="Group-5">
                    <g transform="translate(0.000000, 7.000000)">
                        <mask id="mask-3" fill="white">
                            <use xlink:href="#path-2"></use>
                        </mask>
                        <g id="Clip-4"></g>
                        <path d="M4.47356079,11.1892049 L17.5163097,11.1892049 L20.0604702,1.81079512 L1.92154791,1.81079512 L4.47356079,11.1892049 Z M17.6262425,13 L4.36362793,13 C3.54698381,13 2.84027255,12.4567615 2.65966856,11.6871735 L0.0448369032,2.06732443 C0.0448369032,2.05223447 0.0369845559,2.03714452 0.0369845559,2.02205456 C-0.159324127,1.11665699 0.445306616,0.226349391 1.38758829,0.0377248984 C1.5053735,0.0150899594 1.62315871,0 1.74879627,0 L20.2489265,0 C21.2147653,0 21.9999969,0.754497969 21.9999969,1.68253047 C21.9999969,1.79570517 21.9842953,1.91642484 21.9607383,2.02959954 C21.9607383,2.0446895 21.9528859,2.05977945 21.9528859,2.07486941 L19.3380543,11.6947185 C19.1495979,12.4567615 18.4428867,13 17.6262425,13 L17.6262425,13 Z" id="Fill-3" fill="#44E559" mask="url(#mask-3)"></path>
                    </g>
                </g>
                <path d="M6.82460568,6.25229961 C6.82460568,3.84756899 8.69463722,1.90013141 11.0037855,1.90013141 C13.3129338,1.90013141 15.1829653,3.84756899 15.1829653,6.25229961 L17,6.25229961 C17,2.79894875 14.3123028,0 10.9962145,0 C7.68012618,0 5,2.79894875 5,6.24441524 L5,10.2023653 C5,11.195795 5.77223975,11.9921156 6.72618297,12 L15.281388,12 L15.281388,10.107753 L6.82460568,10.107753 L6.82460568,6.25229961 Z" id="Fill-6" fill="#8F4FEB"></path>
            </g>
        </g>
    </g>
</svg>