<!-- Generator: Adobe Illustrator 25.3.1, SVG Export Plug-In . SVG Version: 6.00 Build 0)  -->
<svg version="1.1" id="Calque_1" xmlns="http://www.w3.org/2000/svg" xmlns:xlink="http://www.w3.org/1999/xlink" x="0px" y="0px"
	 viewBox="0 0 841.9 595.3" style="enable-background:new 0 0 841.9 595.3;" xml:space="preserve">
<style type="text/css">
	.st0{fill:#44E559;}
</style>
<path class="st0" d="M549.7,379.7L432.1,170.3c-2.3-4-6.5-6.5-11.2-6.5s-8.9,2.5-11.2,6.5L292.1,379.7c-2.4,4.3-2.2,9.6,0.7,13.6
	c2.8,4,7.6,6.1,12.5,5.3l115.6-18.2l115.6,18.2c0.7,0.1,1.3,0.2,2,0.2c4.2,0,8.1-2,10.5-5.5C551.9,389.3,552.1,384,549.7,379.7z
	 M433.8,356.5v-61.9c0-7.1-5.7-12.8-12.8-12.8s-12.8,5.7-12.8,12.8v61.9l-80.6,12.7l93.5-166.5l93.5,166.5L433.8,356.5z"/>
</svg>
