<!-- Generator: Adobe Illustrator 25.3.1, SVG Export Plug-In . SVG Version: 6.00 Build 0)  -->
<svg version="1.1" id="Calque_1" xmlns="http://www.w3.org/2000/svg" xmlns:xlink="http://www.w3.org/1999/xlink" x="0px" y="0px"
	 viewBox="0 0 280.2 261.3" style="enable-background:new 0 0 280.2 261.3;" xml:space="preserve">
<style type="text/css">
	.st0{fill:#8F4FEB;}
	.st1{fill:#44E559;}
</style>
<path class="st0" d="M196.6,152.2c-6.6,0.4-12.3-4.7-12.6-11.4c-0.4-6.6,4.7-12.3,11.4-12.6V79.3c0-6.6,5.4-12,12-12s12,5.4,12,12
	v50.2C219.3,142,209.2,152.1,196.6,152.2z"/>
<path class="st1" d="M224.5,261.3H55.6c-10.4,0-19.4-7.2-21.7-17.4L0.6,116.4c0-0.2-0.1-0.4-0.1-0.6C-2,103.8,5.7,92,17.7,89.5
	c1.5-0.3,3-0.5,4.6-0.5h235.6c12.3,0,22.3,10,22.3,22.3c0,1.5-0.2,3.1-0.5,4.6c0,0.2-0.1,0.4-0.1,0.6l-33.3,127.5
	C243.9,254.1,234.9,261.3,224.5,261.3z M57,237.3h166.1l32.4-124.3h-231L57,237.3z"/>
<path class="st0" d="M84.9,79.3c0-30.5,24.7-55.2,55.2-55.2s55.2,24.7,55.2,55.2c0,0,0,0,0,0h24C219.3,35.5,183.8,0,140,0
	c-43.8,0-79.2,35.5-79.2,79.2v50.2c0,12.6,10.2,22.7,22.8,22.8h113v-24H84.9V79.3z"/>
</svg>
