<!-- Generator: Adobe Illustrator 25.3.1, SVG Export Plug-In . SVG Version: 6.00 Build 0)  -->
<svg version="1.1" id="Calque_1" xmlns="http://www.w3.org/2000/svg" xmlns:xlink="http://www.w3.org/1999/xlink" x="0px" y="0px"
	 viewBox="0 0 841.9 595.3" style="enable-background:new 0 0 841.9 595.3;" xml:space="preserve">
<style type="text/css">
	.st0{fill:#44E559;}
</style>
<path class="st0" d="M420.9,422.1l-5.5-2.4c-1.3-0.6-31.5-13.8-61.9-40.8c-41.1-36.5-62.9-80.7-62.9-127.8c0-43,35-77.9,77.9-77.9
	c19.5,0,38.1,7.3,52.3,20.2c14.2-12.8,32.8-20.2,52.3-20.2c43,0,77.9,35,77.9,77.9c0,47.1-21.7,91.3-62.9,127.8
	c-30.4,27-60.6,40.2-61.9,40.8L420.9,422.1z M368.7,200.8c-27.7,0-50.3,22.6-50.3,50.3c0,82.3,80.5,129.3,102.6,140.6
	c22-11.3,102.6-58.3,102.6-140.6c0-27.7-22.6-50.3-50.3-50.3c-16.3,0-31.6,7.9-41,21.2l-11.3,15.8L409.7,222
	C400.3,208.7,384.9,200.8,368.7,200.8z"/>
</svg>
