<svg id="Calque_1" data-name="Calque 1" xmlns="http://www.w3.org/2000/svg" viewBox="0 0 630.98 444.38"><defs><style>.cls-1{fill:#7a51de;}</style></defs><path class="cls-1" d="M459.24,473.1H248.41a46.24,46.24,0,0,1-46.19-46.19V363.45a31.4,31.4,0,0,0-31.37-31.37H107v-9.27h63.82a40.68,40.68,0,0,1,40.64,40.64v63.46a37,37,0,0,0,36.92,36.92H459.24a31.4,31.4,0,0,0,31.36-31.36V288.61a46.24,46.24,0,0,1,46.19-46.19H697.37a31.4,31.4,0,0,0,31.36-31.37V28.72H738V211.05a40.68,40.68,0,0,1-40.63,40.64H536.79a37,37,0,0,0-36.92,36.92V432.47A40.68,40.68,0,0,1,459.24,473.1Z" transform="translate(-107.03 -28.72)"/></svg>