<svg id="Calque_1" data-name="Calque 1" xmlns="http://www.w3.org/2000/svg" viewBox="0 0 595 1774.95"><defs><style>.cls-1{fill:#7a51de;}</style></defs><path class="cls-1" d="M809.36,1691v90.14A37,37,0,0,1,773,1818.05v0H612.41a40.68,40.68,0,0,0-40.64,40.64v63.83H581v-63.83a31.4,31.4,0,0,1,31.37-31.37h160v.06a46.24,46.24,0,0,0,46.19-46.19V1691Z" transform="translate(-223.64 -147.52)"/><path class="cls-1" d="M269.79,317.43a46.22,46.22,0,0,1-46.15-46.19V181.1h9.27v90.14a36.94,36.94,0,0,0,36.88,36.91H427.72a31.4,31.4,0,0,0,31.36-31.36V188.16a40.68,40.68,0,0,1,40.64-40.64h63.83v9.27H499.73a31.4,31.4,0,0,0-31.37,31.37v88.63a40.67,40.67,0,0,1-40.63,40.63Z" transform="translate(-223.64 -147.52)"/></svg>