<svg id="Calque_1" data-name="Calque 1" xmlns="http://www.w3.org/2000/svg" viewBox="0 0 576.1 1791.74"><defs><style>.cls-1{fill:#7a51de;}</style></defs><path class="cls-1" d="M809.36,1691v90.14A37,37,0,0,1,773,1818.05v0H612.41a40.68,40.68,0,0,0-40.64,40.64v63.83H581v-63.83a31.4,31.4,0,0,1,31.37-31.37h160v.06a46.24,46.24,0,0,0,46.19-46.19V1691Z" transform="translate(-242.54 -130.73)"/><path class="cls-1" d="M487.11,362.26h-9.28V298.44a31.4,31.4,0,0,0-31.36-31.37H288.73a46.24,46.24,0,0,1-46.19-46.19V130.73h9.27v90.14a37,37,0,0,0,36.92,36.92H446.47a40.68,40.68,0,0,1,40.64,40.64Z" transform="translate(-242.54 -130.73)"/></svg>