<svg class="svgmashvp" width="1058px" height="2361px" viewBox="0 0 1058 2361" version="1.1" xmlns="http://www.w3.org/2000/svg" xmlns:xlink="http://www.w3.org/1999/xlink">
    <title>ROAD-MAP-MASHVP</title>
    <g id="Welcome" stroke="none" stroke-width="1" fill="none" fill-rule="evenodd">
        <g id="ROAD-MAP-MASHVP" transform="translate(5.427185, 0.000000)" stroke="#7A51DE" stroke-width="9">
            <path d="M782.879912,2.84217094e-14 L782.879912,180.078231 C783.373726,202.910451 771.015303,215.637135 745.804643,218.258281 C720.755476,218.197604 669.209772,218.197604 591.167531,218.258281 C560.153388,219.930154 544.646316,235.743876 544.646316,265.699446 C544.646316,295.655016 544.646316,341.225943 544.646316,402.412225 C543.527066,424.754212 531.47296,437.334338 508.483997,440.152603 C485.340075,439.912697 415.857901,439.912697 300.037476,440.152603 C273.837321,438.75424 259.087773,424.349616 255.788833,396.938729 C256.267711,368.525278 256.267711,347.87003 255.788833,334.972986 C255.083118,313.754846 243.564365,301.741813 221.232577,298.933887 C198.527393,298.839604 176.964139,298.839604 156.542815,298.933887" id="line" fill="none" stroke-width="8"></path>
            <path d="M59.4396711,619.591516 L59.4396711,711.321355 C61.461079,733.065177 73.1976977,746.136161 94.6495271,750.534307 C101.556452,750.534307 157.735597,750.534307 263.186964,750.534307 C284.562574,744.04927 295.25038,730.978285 295.25038,711.321355 C295.25038,691.664424 295.25038,663.026022 295.25038,625.40615 C295.25038,601.753637 308.335856,589.927381 334.506809,589.927381 C357.350973,589.927381 377.342975,589.927381 394.482815,589.927381" id="line" fill="none" stroke-width="8"></path>
            <path d="M682.572815,621.41535 L746.798781,621.41535 C768.399022,623.745645 780.432449,635.398406 782.899064,656.373634 C782.899064,670.772079 782.899064,693.594696 782.899064,724.841483 C788.122937,750.27025 801.754263,762.984633 823.793042,762.984633 C845.83182,762.984633 907.504262,762.984633 1008.81037,762.984633 C1031.74686,765.429385 1044.67473,779.216964 1047.59396,804.34737 C1047.81645,817.279736 1047.81645,847.267279 1047.59396,894.31" id="line" fill="none" stroke-width="8"></path>
            <path d="M799.932815,964.227094 L682.572815,964.227094 C661.031198,969.771447 650.260389,981.780492 650.260389,1000.25423 C650.260389,1018.72796 650.260389,1070.05585 650.260389,1154.23788 C647.898881,1174.51953 635.242677,1186.0004 612.291778,1188.68049 C588.966248,1188.60866 537.965998,1188.60866 459.291031,1188.68049 C434.858133,1185.30545 421.102233,1172.29281 418.023329,1149.64256 C417.876939,1121.93478 417.876939,1098.64861 418.023329,1079.78402 C417.171666,1059.12519 405.007931,1048.09694 381.532124,1046.69925 C359.476675,1047.02717 311.828831,1047.02717 238.588594,1046.69925" id="line" fill="none" stroke-width="8"></path>
            <path d="M1.42108547e-14,1224 L1.42108547e-14,1315.97583 C3.29728723,1339.68217 17.6303857,1353.32498 42.9992953,1356.90424 C68.5916409,1356.59657 120.978461,1356.59657 200.159755,1356.90424 C222.299907,1358.61534 234.147726,1370.16049 235.703212,1391.53967 C235.586854,1413.80332 235.586854,1435.13343 235.703212,1455.53" id="line" fill="none" stroke-width="8"></path>
            <path d="M479.572815,1616.61108 L583.85515,1616.61108 C604.547112,1614.84607 616.463767,1603.91566 619.605115,1583.81986 C619.605115,1562.59464 619.605115,1540.04002 619.605115,1516.15602 C620.970526,1491.13221 633.820855,1477.7782 658.1561,1476.09397 C679.06024,1475.84894 700.159145,1475.84894 721.452815,1476.09397" id="line" fill="none" stroke-width="8"></path>
            <path d="M882.731464,1680.27631 L882.731464,1747.47184 C880.910586,1765.05185 869.501756,1775.09326 848.504973,1777.59608 C827.936346,1777.91218 774.579621,1778.42463 688.434797,1779.13343 C663.369604,1780.38118 649.394838,1794.45991 646.510497,1821.36962 C646.510497,1835.40284 646.510497,1864.66041 646.510497,1909.14233" id="line" fill="none" stroke-width="8"></path>
            <path d="M645.121009,2128.48 L645.121009,2218.74321 C642.438727,2245.36335 627.431599,2259.31708 600.099623,2260.60439 C572.62718,2260.60501 520.929004,2260.60501 445.005095,2260.60439 C424.500706,2260.95715 412.006973,2271.3138 407.523896,2291.67435 C407.428949,2309.55989 407.428949,2332.33511 407.523896,2360" id="line" fill="none" stroke-width="8"></path>
        </g>
    </g>
</svg>