<svg id="Calque_1" data-name="Calque 1" xmlns="http://www.w3.org/2000/svg" viewBox="0 0 526.52 1758.68"><defs><style>.cls-1{fill:#7a51de;}</style></defs><path class="cls-1" d="M809.36,1691v90.14A37,37,0,0,1,773,1818.05v0H612.41a40.68,40.68,0,0,0-40.64,40.64v63.83H581v-63.83a31.4,31.4,0,0,1,31.37-31.37h160v.06a46.24,46.24,0,0,0,46.19-46.19V1691Z" transform="translate(-292.12 -163.78)"/><path class="cls-1" d="M396,314.07H292.12V304.8H396a31.4,31.4,0,0,0,31.36-31.36V210a46.24,46.24,0,0,1,46.19-46.19H534v9.28H473.5A37,37,0,0,0,436.59,210v63.47A40.68,40.68,0,0,1,396,314.07Z" transform="translate(-292.12 -163.78)"/></svg>