<svg id="Calque_1" data-name="Calque 1" xmlns="http://www.w3.org/2000/svg" viewBox="0 0 533.92 1774.98"><defs><style>.cls-1{fill:#7a51de;}</style></defs><path class="cls-1" d="M809.36,1691v90.14A37,37,0,0,1,773,1818.05v0H612.41a40.68,40.68,0,0,0-40.64,40.64v63.83H581v-63.83a31.4,31.4,0,0,1,31.37-31.37h160v.06a46.24,46.24,0,0,0,46.19-46.19V1691Z" transform="translate(-284.71 -147.49)"/><path class="cls-1" d="M294,379h-9.28V288.87a46.24,46.24,0,0,1,46.19-46.19H488.64A31.4,31.4,0,0,0,520,211.32V147.49h9.27v63.83A40.68,40.68,0,0,1,488.64,252H330.9A37,37,0,0,0,294,288.87Z" transform="translate(-284.71 -147.49)"/></svg>