<svg width="1057px" height="2360px" viewBox="0 0 1057 2360" version="1.1" xmlns="http://www.w3.org/2000/svg" xmlns:xlink="http://www.w3.org/1999/xlink">
    <title>Group 13</title>
    <g id="Welcome" stroke="none" stroke-width="1" fill="none" fill-rule="evenodd">
        <g id="Group-13">
            <g id="Roadmap_2" transform="translate(59.000000, 585.000000)" fill="#7A51DE" fill-rule="nonzero">
                <path d="M585.72,1543.48 L585.72,1633.62 C585.673995,1653.77216 569.509195,1670.18147 549.36,1670.53 L549.36,1670.53 L388.77,1670.53 C366.334287,1670.55205 348.15205,1688.73429 348.13,1711.17 L348.13,1775 L357.36,1775 L357.36,1711.17 C357.376538,1693.85168 371.411682,1679.81654 388.73,1679.8 L548.73,1679.8 L548.73,1679.86 C574.228609,1679.83244 594.892443,1659.16861 594.92,1633.67 L594.92,1543.48 L585.72,1543.48 Z" id="line" fill="#7A51DE" stroke-width="3"></path>
                <path d="M46.15,169.91 C20.6624473,169.871405 0.016513994,149.207577 0,123.72 L0,33.58 L9.27,33.58 L9.27,123.72 C9.28651317,144.086277 25.7837428,160.596927 46.15,160.63 L204.08,160.63 C221.390513,160.607962 235.417962,146.580513 235.44,129.27 L235.44,40.64 C235.46205,18.2042875 253.644287,0.0220498563 276.08,-5.68434189e-14 L339.91,-5.68434189e-14 L339.91,9.27 L276.09,9.27 C258.771682,9.28653827 244.736538,23.3216824 244.72,40.64 L244.72,129.27 C244.69795,151.70019 226.52019,169.87795 204.09,169.9 L46.15,169.91 Z" id="Path"></path>
            </g>
            <g id="Roadmap_1" transform="translate(160.000000, 0.000000)" fill="#7A51DE" fill-rule="nonzero">
                <path d="M353.21,444.38 L142.38,444.38 C116.881391,444.352443 96.2175572,423.688609 96.19,398.19 L96.19,334.73 C96.1734617,317.411682 82.1383176,303.376538 64.82,303.36 L0.97,303.36 L0.97,294.09 L64.79,294.09 C87.2257125,294.11205 105.40795,312.294287 105.43,334.73 L105.43,398.19 C105.474,418.5621 121.9779,435.066 142.35,435.11 L353.21,435.11 C370.520513,435.087962 384.547962,421.060513 384.57,403.75 L384.57,259.89 C384.597557,234.391391 405.261391,213.727557 430.76,213.7 L591.34,213.7 C608.654412,213.677951 622.683472,199.644418 622.7,182.33 L622.7,0 L631.97,0 L631.97,182.33 C631.94796,204.761813 613.771807,222.94244 591.34,222.97 L430.76,222.97 C410.3879,223.014 393.884,239.5179 393.84,259.89 L393.84,403.75 C393.812451,426.177908 375.637908,444.352451 353.21,444.38 Z" id="line" fill="#7A51DE" stroke-width="3"></path>
            </g>
            <g id="Roadmap_3" transform="translate(409.000000, 617.000000)" fill="#7A51DE" fill-rule="nonzero">
                <path d="M237.71,1510.31 L237.71,1600.45 C237.663995,1620.60216 221.499195,1637.01147 201.35,1637.36 L201.35,1637.36 L40.76,1637.36 C18.3242875,1637.38205 0.142049856,1655.56429 0.12,1678 L0.12,1741.83 L9.35,1741.83 L9.35,1678 C9.36653827,1660.68168 23.4016824,1646.64654 40.72,1646.63 L200.72,1646.63 L200.72,1646.69 C226.218609,1646.66244 246.882443,1625.99861 246.91,1600.5 L246.91,1510.31 L237.71,1510.31 Z" id="Path"></path>
                <path d="M606.51,141.31 L606.51,141.01 L419.35,141.01 C398.9779,140.966 382.474,124.4621 382.43,104.09 L382.43,40.64 C382.40795,18.2042875 364.225713,0.0220498563 341.79,0 L278,0 L278,9.31 L341.82,9.31 C359.138318,9.32653827 373.173462,23.3616824 373.19,40.68 L373.19,104.14 C373.228533,129.619106 393.870903,150.265948 419.35,150.31 L601.59,150.31 C621.809663,150.561343 638.082375,166.998831 638.13,187.22 L638.13,277.31 L647.4,277.31 L647.4,187.2 C647.375478,163.748854 629.803143,144.027786 606.51,141.31 L606.51,141.31 Z" id="Path"></path>
            </g>
            <g id="Roadmap_4" transform="translate(243.000000, 959.000000)" fill="#7A51DE" fill-rule="nonzero">
                <path d="M375.45,233.700011 L221.32,233.700011 C195.829187,233.672466 175.168574,213.020798 175.13,187.53 L175.13,124.04 C175.107951,106.725588 161.074418,92.6965284 143.76,92.68 L0.03,92.68 L0.03,83.4 L143.76,83.4 C166.195713,83.4220499 184.37795,101.604287 184.4,124.04 L184.4,187.53 C184.444,207.9021 200.9479,224.406 221.32,224.45 L375.45,224.45 C392.764412,224.427951 406.793472,210.394418 406.81,193.08 L406.81,129.25 L406.81,40.65 C406.83756,18.2181928 425.018187,0.042039927 447.45,0.02 L561.36,0.02 L561.36,9.29 L447.53,9.29 C430.215582,9.30652841 416.182049,23.3355878 416.16,40.65 L416.16,129.26 L416.16,193.09 C416.121373,215.541319 397.901346,233.71659 375.45,233.700011 Z" id="Path"></path>
            </g>
            <g id="Roadmap_6" transform="translate(484.000000, 1471.000000)" fill="#7A51DE" fill-rule="nonzero">
                <path d="M103.88,150.29 L0,150.29 L0,141.02 L103.88,141.02 C121.190513,140.997962 135.217962,126.970513 135.24,109.66 L135.24,46.22 C135.267557,20.7213907 155.931391,0.0575571508 181.43,0.03 L241.88,0.03 L241.88,9.31 L181.38,9.31 C161.015698,9.35947484 144.519475,25.8556982 144.47,46.22 L144.47,109.69 C144.426002,132.090609 126.280598,150.240484 103.88,150.29 Z" id="Path"></path>
            </g>
            <path d="M244.57,1455.53 L235.29,1455.53 L235.29,1391.71 C235.273472,1374.39558 221.244412,1360.36205 203.93,1360.34 L46.19,1360.34 C20.6913907,1360.31244 0.0275571508,1339.64861 -2.27373675e-13,1314.15 L-2.27373675e-13,1224 L9.27,1224 L9.27,1314.14 C9.31400037,1334.5121 25.8179004,1351.016 46.19,1351.06 L203.93,1351.06 C226.365713,1351.08205 244.54795,1369.26429 244.57,1391.7 L244.57,1455.53 Z" id="Path" fill="#7A51DE" fill-rule="nonzero"></path>
            <path d="M650.937682,1909.14233 L650.937682,1821.36962 C655.076414,1793.21216 669.051181,1779.13343 692.861982,1779.13343 C716.672783,1779.13343 770.029509,1778.62098 852.932158,1777.59608 C875.749819,1775.18646 887.158649,1763.17448 887.158649,1741.56016 C887.158649,1719.94583 887.158649,1699.51788 887.158649,1680.27631" id="Path-2" stroke="#7A51DE" stroke-width="9"></path>
        </g>
    </g>
</svg>