<svg id="Calque_1" data-name="Calque 1" xmlns="http://www.w3.org/2000/svg" viewBox="0 0 688.66 1803"><defs><style>.cls-1{fill:#7a51de;}</style></defs><path class="cls-1" d="M809.36,1691v90.14A37,37,0,0,1,773,1818.05v0H612.41a40.68,40.68,0,0,0-40.64,40.64v63.83H581v-63.83a31.4,31.4,0,0,1,31.37-31.37h160v.06a46.24,46.24,0,0,0,46.19-46.19V1691Z" transform="translate(-129.97 -119.47)"/><path class="cls-1" d="M505.42,353.17H351.29A46.24,46.24,0,0,1,305.1,307V243.51a31.4,31.4,0,0,0-31.37-31.36H130v-9.28H273.73a40.68,40.68,0,0,1,40.64,40.64V307a37,37,0,0,0,36.92,36.92H505.42a31.4,31.4,0,0,0,31.36-31.37l0-63.83,0-88.6a40.68,40.68,0,0,1,40.64-40.63H691.33v9.27H577.5a31.4,31.4,0,0,0-31.37,31.36l0,88.61,0,63.83A40.68,40.68,0,0,1,505.42,353.17Z" transform="translate(-129.97 -119.47)"/></svg>