<svg id="Calque_1" data-name="Calque 1" xmlns="http://www.w3.org/2000/svg" viewBox="0 0 593.99 1797.78"><defs><style>.cls-1{fill:#7a51de;}</style></defs><path class="cls-1" d="M809.36,1691v90.14A37,37,0,0,1,773,1818.05v0H612.41a40.68,40.68,0,0,0-40.64,40.64v63.83H581v-63.83a31.4,31.4,0,0,1,31.37-31.37h160v.06a46.24,46.24,0,0,0,46.19-46.19V1691Z" transform="translate(-224.65 -124.69)"/><path class="cls-1" d="M553.16,266v-.3H366a37,37,0,0,1-36.92-36.92V165.33a40.68,40.68,0,0,0-40.64-40.64H224.65V134h63.82a31.4,31.4,0,0,1,31.37,31.37v63.46A46.24,46.24,0,0,0,366,275H548.24a37,37,0,0,1,36.54,36.91V402h9.27V311.89A46.25,46.25,0,0,0,553.16,266Z" transform="translate(-224.65 -124.69)"/></svg>